ISO-10303-21;
HEADER;
FILE_DESCRIPTION (( 'STEP AP214' ),
    '1' );
FILE_NAME ('nosecone.STEP',
    '2026-02-17T00:53:20',
    ( '' ),
    ( '' ),
    'SwSTEP 2.0',
    'SolidWorks 2025',
    '' );
FILE_SCHEMA (( 'AUTOMOTIVE_DESIGN' ));
ENDSEC;

DATA;
#1 = FACE_OUTER_BOUND ( 'NONE', #122, .T. ) ;
#2 = VERTEX_POINT ( 'NONE', #76 ) ;
#3 = VERTEX_POINT ( 'NONE', #182 ) ;
#4 = ADVANCED_FACE ( 'NONE', ( #54 ), #65, .F. ) ;
#5 = EDGE_LOOP ( 'NONE', ( #273, #179, #103, #205 ) ) ;
#6 = ORIENTED_EDGE ( 'NONE', *, *, #252, .T. ) ;
#7 = ORIENTED_EDGE ( 'NONE', *, *, #292, .T. ) ;
#8 = EDGE_LOOP ( 'NONE', ( #55, #152, #128, #227 ) ) ;
#9 = CYLINDRICAL_SURFACE ( 'NONE', #307, 3.015000000000000124 ) ;
#10 = FACE_OUTER_BOUND ( 'NONE', #184, .T. ) ;
#11 = DIRECTION ( 'NONE',  ( -0.000000000000000000, -1.000000000000000000, -0.000000000000000000 ) ) ;
#12 = EDGE_CURVE ( 'NONE', #131, #3, #51, .T. ) ;
#13 = CARTESIAN_POINT ( 'NONE',  ( 0.000000000000000000, 0.3000000000000021538, -2.774999999999999911 ) ) ;
#14 = FACE_OUTER_BOUND ( 'NONE', #247, .T. ) ;
#15 = CARTESIAN_POINT ( 'NONE',  ( 0.000000000000000000, 1.300000000000001155, 0.000000000000000000 ) ) ;
#16 = CARTESIAN_POINT ( 'NONE',  ( 1.886082017607073672E-16, 1.300000000000001155, 1.540102843464938420 ) ) ;
#17 = DIRECTION ( 'NONE',  ( 0.000000000000000000, 0.000000000000000000, -1.000000000000000000 ) ) ;
#18 = VECTOR ( 'NONE', #249, 100.0000000000000000 ) ;
#19 = DIRECTION ( 'NONE',  ( 9.517293141685752028E-17, -0.6293203910498337272, 0.7771459614569738994 ) ) ;
#20 = CARTESIAN_POINT ( 'NONE',  ( 0.000000000000000000, 9.390000000000000568, -1.387778780781445676E-15 ) ) ;
#21 =( GEOMETRIC_REPRESENTATION_CONTEXT ( 3 ) GLOBAL_UNCERTAINTY_ASSIGNED_CONTEXT ( ( #80 ) ) GLOBAL_UNIT_ASSIGNED_CONTEXT ( ( #48, #244, #50 ) ) REPRESENTATION_CONTEXT ( 'NONE', 'WORKASPACE' ) );
#22 = VERTEX_POINT ( 'NONE', #208 ) ;
#23 = CLOSED_SHELL ( 'NONE', ( #4, #170, #59, #28, #283, #306, #96, #253, #209, #141, #153 ) ) ;
#24 = ORIENTED_EDGE ( 'NONE', *, *, #292, .F. ) ;
#25 = AXIS2_PLACEMENT_3D ( 'NONE', #31, #35, #36 ) ;
#26 = ORIENTED_EDGE ( 'NONE', *, *, #72, .T. ) ;
#27 = EDGE_CURVE ( 'NONE', #295, #129, #232, .T. ) ;
#28 = ADVANCED_FACE ( 'NONE', ( #14 ), #88, .T. ) ;
#29 = CARTESIAN_POINT ( 'NONE',  ( 3.398394867633905390E-16, -5.000000000000000000, 2.774999999999999911 ) ) ;
#30 = CIRCLE ( 'NONE', #94, 3.015000000000000124 ) ;
#31 = CARTESIAN_POINT ( 'NONE',  ( 0.000000000000000000, 1.300000000000001155, 0.000000000000000000 ) ) ;
#32 = VERTEX_POINT ( 'NONE', #13 ) ;
#33 = DIRECTION ( 'NONE',  ( 0.000000000000000000, 0.000000000000000000, -1.000000000000000000 ) ) ;
#34 = ORIENTED_EDGE ( 'NONE', *, *, #252, .F. ) ;
#35 = DIRECTION ( 'NONE',  ( 0.000000000000000000, -1.000000000000000000, 0.000000000000000000 ) ) ;
#36 = DIRECTION ( 'NONE',  ( 0.000000000000000000, 0.000000000000000000, -1.000000000000000000 ) ) ;
#37 = CIRCLE ( 'NONE', #121, 3.015000000000000124 ) ;
#38 = EDGE_CURVE ( 'NONE', #269, #131, #207, .T. ) ;
#39 = CARTESIAN_POINT ( 'NONE',  ( 0.000000000000000000, -5.000000000000000000, 0.000000000000000000 ) ) ;
#40 = AXIS2_PLACEMENT_3D ( 'NONE', #197, #89, #167 ) ;
#41 = DIRECTION ( 'NONE',  ( -0.000000000000000000, 1.000000000000000000, -0.000000000000000000 ) ) ;
#42 = VECTOR ( 'NONE', #11, 100.0000000000000000 ) ;
#43 = CARTESIAN_POINT ( 'NONE',  ( 0.000000000000000000, 0.000000000000000000, -3.357088904299999843 ) ) ;
#44 = CARTESIAN_POINT ( 'NONE',  ( 0.000000000000000000, 0.000000000000000000, 0.000000000000000000 ) ) ;
#45 = FACE_OUTER_BOUND ( 'NONE', #8, .T. ) ;
#46 = FACE_BOUND ( 'NONE', #98, .T. ) ;
#47 = ORIENTED_EDGE ( 'NONE', *, *, #191, .F. ) ;
#48 =( LENGTH_UNIT ( ) NAMED_UNIT ( * ) SI_UNIT ( .CENTI., .METRE. ) );
#49 = AXIS2_PLACEMENT_3D ( 'NONE', #44, #264, #17 ) ;
#50 =( NAMED_UNIT ( * ) SI_UNIT ( $, .STERADIAN. ) SOLID_ANGLE_UNIT ( ) );
#51 = CIRCLE ( 'NONE', #75, 3.015000000000000124 ) ;
#52 = DIRECTION ( 'NONE',  ( 0.000000000000000000, 0.000000000000000000, 1.000000000000000000 ) ) ;
#53 = ORIENTED_EDGE ( 'NONE', *, *, #285, .F. ) ;
#54 = FACE_OUTER_BOUND ( 'NONE', #226, .T. ) ;
#55 = ORIENTED_EDGE ( 'NONE', *, *, #262, .F. ) ;
#56 = ORIENTED_EDGE ( 'NONE', *, *, #234, .T. ) ;
#57 = CARTESIAN_POINT ( 'NONE',  ( 0.000000000000000000, 0.000000000000000000, 0.000000000000000000 ) ) ;
#58 = DIRECTION ( 'NONE',  ( 0.000000000000000000, -1.000000000000000000, 0.000000000000000000 ) ) ;
#59 = ADVANCED_FACE ( 'NONE', ( #255 ), #9, .T. ) ;
#60 = CARTESIAN_POINT ( 'NONE',  ( 0.000000000000000000, 0.000000000000000000, 0.000000000000000000 ) ) ;
#61 = PRODUCT_DEFINITION_CONTEXT ( 'detailed design', #92, 'design' ) ;
#62 = DIRECTION ( 'NONE',  ( 0.000000000000000000, -1.000000000000000000, 0.000000000000000000 ) ) ;
#63 = AXIS2_PLACEMENT_3D ( 'NONE', #124, #52, #97 ) ;
#64 = DIRECTION ( 'NONE',  ( -0.000000000000000000, 1.000000000000000000, -0.000000000000000000 ) ) ;
#65 = CONICAL_SURFACE ( 'NONE', #25, 1.540102843464938420, 0.8901179185171127495 ) ;
#66 = DIRECTION ( 'NONE',  ( 0.000000000000000000, 0.000000000000000000, -1.000000000000000000 ) ) ;
#67 = CARTESIAN_POINT ( 'NONE',  ( 0.000000000000000000, 1.300000000000001155, -1.540102843464938420 ) ) ;
#68 = CARTESIAN_POINT ( 'NONE',  ( 2.642238442620489038E-16, 1.300000000000001155, 1.540102843464938420 ) ) ;
#69 = EDGE_CURVE ( 'NONE', #32, #129, #188, .T. ) ;
#70 = DIRECTION ( 'NONE',  ( 0.000000000000000000, -0.000000000000000000, -1.000000000000000000 ) ) ;
#71 = DIRECTION ( 'NONE',  ( 0.000000000000000000, -1.000000000000000000, 0.000000000000000000 ) ) ;
#72 = EDGE_CURVE ( 'NONE', #22, #186, #201, .T. ) ;
#73 = CARTESIAN_POINT ( 'NONE',  ( 3.398394867633905390E-16, 0.3000000000000021538, 2.774999999999999911 ) ) ;
#74 = ORIENTED_EDGE ( 'NONE', *, *, #225, .F. ) ;
#75 = AXIS2_PLACEMENT_3D ( 'NONE', #57, #58, #278 ) ;
#76 = CARTESIAN_POINT ( 'NONE',  ( 3.692310099429270002E-16, -5.000000000000000000, -3.015000000000000124 ) ) ;
#77 = EDGE_LOOP ( 'NONE', ( #100, #105, #270, #79 ) ) ;
#78 = CIRCLE ( 'NONE', #146, 1.540102843464938420 ) ;
#79 = ORIENTED_EDGE ( 'NONE', *, *, #38, .F. ) ;
#80 = UNCERTAINTY_MEASURE_WITH_UNIT (LENGTH_MEASURE( 1.000000000000000082E-05 ), #48, 'distance_accuracy_value', 'NONE');
#81 = CARTESIAN_POINT ( 'NONE',  ( 0.000000000000000000, 1.300000000000001155, 0.000000000000000000 ) ) ;
#82 = EDGE_CURVE ( 'NONE', #129, #295, #254, .T. ) ;
#83 = DIRECTION ( 'NONE',  ( -0.000000000000000000, -1.000000000000000000, -0.000000000000000000 ) ) ;
#84 = CARTESIAN_POINT ( 'NONE',  ( 0.000000000000000000, 1.300000000000001155, 0.000000000000000000 ) ) ;
#85 = CARTESIAN_POINT ( 'NONE',  ( 0.000000000000000000, -5.000000000000000000, 0.000000000000000000 ) ) ;
#86 = CARTESIAN_POINT ( 'NONE',  ( 3.692310099429270002E-16, -5.000000000000000000, -3.015000000000000124 ) ) ;
#87 = CARTESIAN_POINT ( 'NONE',  ( 0.000000000000000000, -5.000000000000000000, 3.015000000000000124 ) ) ;
#88 = TOROIDAL_SURFACE ( 'NONE', #268, -11.45368149025249238, 14.81077039455249178 ) ;
#89 = DIRECTION ( 'NONE',  ( -1.000000000000000000, 0.000000000000000000, 0.000000000000000000 ) ) ;
#90 = EDGE_CURVE ( 'NONE', #228, #22, #116, .T. ) ;
#91 = CARTESIAN_POINT ( 'NONE',  ( 0.000000000000000000, 1.300000000000001155, 0.000000000000000000 ) ) ;
#92 = APPLICATION_CONTEXT ( 'automotive_design' ) ;
#93 = LINE ( 'NONE', #215, #230 ) ;
#94 = AXIS2_PLACEMENT_3D ( 'NONE', #173, #305, #145 ) ;
#95 = PRESENTATION_STYLE_ASSIGNMENT (( #259 ) ) ;
#96 = ADVANCED_FACE ( 'NONE', ( #165 ), #257, .T. ) ;
#97 = DIRECTION ( 'NONE',  ( 1.000000000000000000, 0.000000000000000000, 0.000000000000000000 ) ) ;
#98 = EDGE_LOOP ( 'NONE', ( #159, #74 ) ) ;
#99 = DIRECTION ( 'NONE',  ( 0.000000000000000000, 0.000000000000000000, -1.000000000000000000 ) ) ;
#100 = ORIENTED_EDGE ( 'NONE', *, *, #109, .F. ) ;
#101 = PRODUCT_DEFINITION_SHAPE ( 'NONE', 'NONE',  #180 ) ;
#102 = CARTESIAN_POINT ( 'NONE',  ( 0.000000000000000000, 1.300000000000001155, 0.000000000000000000 ) ) ;
#103 = ORIENTED_EDGE ( 'NONE', *, *, #38, .T. ) ;
#104 = EDGE_LOOP ( 'NONE', ( #120, #149 ) ) ;
#105 = ORIENTED_EDGE ( 'NONE', *, *, #142, .T. ) ;
#106 = ORIENTED_EDGE ( 'NONE', *, *, #69, .F. ) ;
#107 = DIRECTION ( 'NONE',  ( 0.000000000000000000, 0.000000000000000000, -1.000000000000000000 ) ) ;
#108 = AXIS2_PLACEMENT_3D ( 'NONE', #233, #41, #162 ) ;
#109 = EDGE_CURVE ( 'NONE', #2, #269, #37, .T. ) ;
#110 = FACE_OUTER_BOUND ( 'NONE', #224, .T. ) ;
#111 = CARTESIAN_POINT ( 'NONE',  ( 0.000000000000000000, 0.3000000000000021538, 0.000000000000000000 ) ) ;
#112 = DIRECTION ( 'NONE',  ( 0.000000000000000000, 0.000000000000000000, -1.000000000000000000 ) ) ;
#113 = DIRECTION ( 'NONE',  ( 0.000000000000000000, -0.000000000000000000, -1.000000000000000000 ) ) ;
#114 = CARTESIAN_POINT ( 'NONE',  ( 0.000000000000000000, -5.000000000000000000, 0.000000000000000000 ) ) ;
#115 = CIRCLE ( 'NONE', #161, 2.774999999999999911 ) ;
#116 = CIRCLE ( 'NONE', #216, 14.81077039455249178 ) ;
#117 = DIRECTION ( 'NONE',  ( 0.000000000000000000, 0.000000000000000000, -1.000000000000000000 ) ) ;
#118 = LINE ( 'NONE', #16, #172 ) ;
#119 = PLANE ( 'NONE',  #176 ) ;
#120 = ORIENTED_EDGE ( 'NONE', *, *, #82, .F. ) ;
#121 = AXIS2_PLACEMENT_3D ( 'NONE', #39, #236, #107 ) ;
#122 = EDGE_LOOP ( 'NONE', ( #229, #156, #223 ) ) ;
#123 = EDGE_LOOP ( 'NONE', ( #267, #26 ) ) ;
#124 = CARTESIAN_POINT ( 'NONE',  ( 0.000000000000000000, 0.000000000000000000, 0.000000000000000000 ) ) ;
#125 = CIRCLE ( 'NONE', #300, 3.357088904299999843 ) ;
#126 = VERTEX_POINT ( 'NONE', #212 ) ;
#127 = EDGE_CURVE ( 'NONE', #246, #126, #185, .T. ) ;
#128 = ORIENTED_EDGE ( 'NONE', *, *, #69, .T. ) ;
#129 = VERTEX_POINT ( 'NONE', #137 ) ;
#130 = CARTESIAN_POINT ( 'NONE',  ( 0.000000000000000000, 0.3000000000000021538, 0.000000000000000000 ) ) ;
#131 = VERTEX_POINT ( 'NONE', #132 ) ;
#132 = CARTESIAN_POINT ( 'NONE',  ( 0.000000000000000000, 0.000000000000000000, 3.015000000000000124 ) ) ;
#133 = DIRECTION ( 'NONE',  ( 0.000000000000000000, 0.000000000000000000, -1.000000000000000000 ) ) ;
#134 = CARTESIAN_POINT ( 'NONE',  ( 0.000000000000000000, -5.000000000000000000, 0.000000000000000000 ) ) ;
#135 = CARTESIAN_POINT ( 'NONE',  ( 0.000000000000000000, 1.300000000000001155, 0.000000000000000000 ) ) ;
#136 = PRESENTATION_LAYER_ASSIGNMENT (  '', '', ( #220 ) ) ;
#137 = CARTESIAN_POINT ( 'NONE',  ( 0.000000000000000000, -5.000000000000000000, -2.774999999999999911 ) ) ;
#138 = AXIS2_PLACEMENT_3D ( 'NONE', #134, #231, #133 ) ;
#139 = FACE_BOUND ( 'NONE', #104, .T. ) ;
#140 = DIRECTION ( 'NONE',  ( -0.000000000000000000, -1.000000000000000000, -0.000000000000000000 ) ) ;
#141 = ADVANCED_FACE ( 'NONE', ( #10 ), #301, .T. ) ;
#142 = EDGE_CURVE ( 'NONE', #2, #3, #237, .T. ) ;
#143 = PLANE ( 'NONE',  #266 ) ;
#144 = DIRECTION ( 'NONE',  ( 0.000000000000000000, 0.000000000000000000, -1.000000000000000000 ) ) ;
#145 = DIRECTION ( 'NONE',  ( 0.000000000000000000, 0.000000000000000000, -1.000000000000000000 ) ) ;
#146 = AXIS2_PLACEMENT_3D ( 'NONE', #102, #71, #99 ) ;
#147 = PRODUCT_CONTEXT ( 'NONE', #187, 'mechanical' ) ;
#148 = AXIS2_PLACEMENT_3D ( 'NONE', #91, #263, #144 ) ;
#149 = ORIENTED_EDGE ( 'NONE', *, *, #27, .F. ) ;
#150 = PRODUCT ( 'nosecone', 'nosecone', '', ( #147 ) ) ;
#151 = DIRECTION ( 'NONE',  ( 0.000000000000000000, 0.000000000000000000, -1.000000000000000000 ) ) ;
#152 = ORIENTED_EDGE ( 'NONE', *, *, #285, .T. ) ;
#153 = ADVANCED_FACE ( 'NONE', ( #110 ), #296, .F. ) ;
#154 = CARTESIAN_POINT ( 'NONE',  ( 0.000000000000000000, 0.000000000000000000, 0.000000000000000000 ) ) ;
#155 = TOROIDAL_SURFACE ( 'NONE', #272, -11.45368149025249238, 14.81077039455249178 ) ;
#156 = ORIENTED_EDGE ( 'NONE', *, *, #191, .T. ) ;
#157 = ORIENTED_EDGE ( 'NONE', *, *, #275, .T. ) ;
#158 = ORIENTED_EDGE ( 'NONE', *, *, #109, .T. ) ;
#159 = ORIENTED_EDGE ( 'NONE', *, *, #12, .F. ) ;
#160 = DIRECTION ( 'NONE',  ( -0.000000000000000000, 1.000000000000000000, -0.000000000000000000 ) ) ;
#161 = AXIS2_PLACEMENT_3D ( 'NONE', #130, #181, #151 ) ;
#162 = DIRECTION ( 'NONE',  ( 0.000000000000000000, 0.000000000000000000, 1.000000000000000000 ) ) ;
#163 = AXIS2_PLACEMENT_3D ( 'NONE', #210, #62, #189 ) ;
#164 = FACE_OUTER_BOUND ( 'NONE', #288, .T. ) ;
#165 = FACE_OUTER_BOUND ( 'NONE', #5, .T. ) ;
#166 = VECTOR ( 'NONE', #218, 100.0000000000000000 ) ;
#167 = DIRECTION ( 'NONE',  ( 0.000000000000000000, 0.000000000000000000, 1.000000000000000000 ) ) ;
#168 = AXIS2_PLACEMENT_3D ( 'NONE', #135, #299, #277 ) ;
#169 = DIRECTION ( 'NONE',  ( 0.000000000000000000, -1.000000000000000000, -0.000000000000000000 ) ) ;
#170 = ADVANCED_FACE ( 'NONE', ( #164 ), #256, .F. ) ;
#171 = CARTESIAN_POINT ( 'NONE',  ( 0.000000000000000000, 0.000000000000000000, 0.000000000000000000 ) ) ;
#172 = VECTOR ( 'NONE', #19, 100.0000000000000000 ) ;
#173 = CARTESIAN_POINT ( 'NONE',  ( 0.000000000000000000, -5.000000000000000000, 0.000000000000000000 ) ) ;
#174 = APPLICATION_PROTOCOL_DEFINITION ( 'draft international standard', 'automotive_design', 1998, #92 ) ;
#175 = SHAPE_DEFINITION_REPRESENTATION ( #101, #214 ) ;
#176 = AXIS2_PLACEMENT_3D ( 'NONE', #114, #308, #70 ) ;
#177 = ORIENTED_EDGE ( 'NONE', *, *, #262, .T. ) ;
#178 = DIRECTION ( 'NONE',  ( 0.000000000000000000, 0.000000000000000000, -1.000000000000000000 ) ) ;
#179 = ORIENTED_EDGE ( 'NONE', *, *, #275, .F. ) ;
#180 = PRODUCT_DEFINITION ( 'UNKNOWN', '', #183, #61 ) ;
#181 = DIRECTION ( 'NONE',  ( -0.000000000000000000, 1.000000000000000000, -0.000000000000000000 ) ) ;
#182 = CARTESIAN_POINT ( 'NONE',  ( 3.692310099429270002E-16, 0.000000000000000000, -3.015000000000000124 ) ) ;
#183 = PRODUCT_DEFINITION_FORMATION_WITH_SPECIFIED_SOURCE ( 'ANY', '', #150, .NOT_KNOWN. ) ;
#184 = EDGE_LOOP ( 'NONE', ( #204, #271 ) ) ;
#185 = CIRCLE ( 'NONE', #291, 1.540102843464938420 ) ;
#186 = VERTEX_POINT ( 'NONE', #43 ) ;
#187 = APPLICATION_CONTEXT ( 'automotive_design' ) ;
#188 = LINE ( 'NONE', #303, #42 ) ;
#189 = DIRECTION ( 'NONE',  ( 0.000000000000000000, 0.000000000000000000, -1.000000000000000000 ) ) ;
#190 = DIRECTION ( 'NONE',  ( 0.000000000000000000, -1.000000000000000000, 0.000000000000000000 ) ) ;
#191 = EDGE_CURVE ( 'NONE', #228, #186, #282, .T. ) ;
#192 = DIRECTION ( 'NONE',  ( 0.000000000000000000, 0.000000000000000000, -1.000000000000000000 ) ) ;
#193 = CARTESIAN_POINT ( 'NONE',  ( -1.402671437549100192E-15, 0.000000000000000000, -11.45368149025249238 ) ) ;
#194 = FACE_OUTER_BOUND ( 'NONE', #123, .T. ) ;
#195 = CYLINDRICAL_SURFACE ( 'NONE', #294, 2.774999999999999911 ) ;
#196 = SURFACE_SIDE_STYLE ('',( #284 ) ) ;
#197 = CARTESIAN_POINT ( 'NONE',  ( 0.000000000000000000, 0.000000000000000000, 11.45368149025249238 ) ) ;
#198 = ORIENTED_EDGE ( 'NONE', *, *, #297, .F. ) ;
#199 = ORIENTED_EDGE ( 'NONE', *, *, #90, .T. ) ;
#200 = PRODUCT_RELATED_PRODUCT_CATEGORY ( 'part', '', ( #150 ) ) ;
#201 = CIRCLE ( 'NONE', #311, 3.357088904299999843 ) ;
#202 = ORIENTED_EDGE ( 'NONE', *, *, #27, .T. ) ;
#203 = ORIENTED_EDGE ( 'NONE', *, *, #239, .F. ) ;
#204 = ORIENTED_EDGE ( 'NONE', *, *, #297, .T. ) ;
#205 = ORIENTED_EDGE ( 'NONE', *, *, #12, .T. ) ;
#206 = UNCERTAINTY_MEASURE_WITH_UNIT (LENGTH_MEASURE( 1.000000000000000082E-05 ), #219, 'distance_accuracy_value', 'NONE');
#207 = LINE ( 'NONE', #302, #18 ) ;
#208 = CARTESIAN_POINT ( 'NONE',  ( 4.111248181104090148E-16, 0.000000000000000000, 3.357088904299999843 ) ) ;
#209 = ADVANCED_FACE ( 'NONE', ( #45 ), #195, .F. ) ;
#210 = CARTESIAN_POINT ( 'NONE',  ( 0.000000000000000000, -5.000000000000000000, 0.000000000000000000 ) ) ;
#211 = CARTESIAN_POINT ( 'NONE',  ( 0.000000000000000000, 0.000000000000000000, 0.000000000000000000 ) ) ;
#212 = CARTESIAN_POINT ( 'NONE',  ( 0.000000000000000000, 1.300000000000001155, -1.540102843464938420 ) ) ;
#213 = DIRECTION ( 'NONE',  ( -0.000000000000000000, -1.000000000000000000, -0.000000000000000000 ) ) ;
#214 = ADVANCED_BREP_SHAPE_REPRESENTATION ( 'nosecone', ( #217, #63 ), #21 ) ;
#215 = CARTESIAN_POINT ( 'NONE',  ( 3.398394867633905390E-16, 1.300000000000001155, 2.774999999999999911 ) ) ;
#216 = AXIS2_PLACEMENT_3D ( 'NONE', #193, #298, #274 ) ;
#217 = MANIFOLD_SOLID_BREP ( 'Chamfer1', #23 ) ;
#218 = DIRECTION ( 'NONE',  ( 0.000000000000000000, -0.6293203910498337272, -0.7771459614569738994 ) ) ;
#219 =( LENGTH_UNIT ( ) NAMED_UNIT ( * ) SI_UNIT ( .CENTI., .METRE. ) );
#220 = STYLED_ITEM ( 'NONE', ( #95 ), #217 ) ;
#221 = LINE ( 'NONE', #67, #166 ) ;
#222 = VECTOR ( 'NONE', #64, 100.0000000000000000 ) ;
#223 = ORIENTED_EDGE ( 'NONE', *, *, #72, .F. ) ;
#224 = EDGE_LOOP ( 'NONE', ( #34, #198, #56, #53 ) ) ;
#225 = EDGE_CURVE ( 'NONE', #3, #131, #250, .T. ) ;
#226 = EDGE_LOOP ( 'NONE', ( #245, #6, #24, #248 ) ) ;
#227 = ORIENTED_EDGE ( 'NONE', *, *, #82, .T. ) ;
#228 = VERTEX_POINT ( 'NONE', #20 ) ;
#229 = ORIENTED_EDGE ( 'NONE', *, *, #90, .F. ) ;
#230 = VECTOR ( 'NONE', #213, 100.0000000000000000 ) ;
#231 = DIRECTION ( 'NONE',  ( 0.000000000000000000, -1.000000000000000000, 0.000000000000000000 ) ) ;
#232 = CIRCLE ( 'NONE', #138, 2.774999999999999911 ) ;
#233 = CARTESIAN_POINT ( 'NONE',  ( 0.000000000000000000, -5.000000000000000000, 0.000000000000000000 ) ) ;
#234 = EDGE_CURVE ( 'NONE', #126, #32, #221, .T. ) ;
#235 = DIRECTION ( 'NONE',  ( 0.000000000000000000, 0.000000000000000000, 1.000000000000000000 ) ) ;
#236 = DIRECTION ( 'NONE',  ( 0.000000000000000000, -1.000000000000000000, 0.000000000000000000 ) ) ;
#237 = LINE ( 'NONE', #86, #222 ) ;
#238 = FACE_OUTER_BOUND ( 'NONE', #293, .T. ) ;
#239 = EDGE_CURVE ( 'NONE', #186, #22, #125, .T. ) ;
#240 = FILL_AREA_STYLE ('',( #304 ) ) ;
#241 = AXIS2_PLACEMENT_3D ( 'NONE', #111, #260, #33 ) ;
#242 = DIRECTION ( 'NONE',  ( -0.000000000000000000, -1.000000000000000000, -0.000000000000000000 ) ) ;
#243 = AXIS2_PLACEMENT_3D ( 'NONE', #84, #190, #113 ) ;
#244 =( NAMED_UNIT ( * ) PLANE_ANGLE_UNIT ( ) SI_UNIT ( $, .RADIAN. ) );
#245 = ORIENTED_EDGE ( 'NONE', *, *, #127, .F. ) ;
#246 = VERTEX_POINT ( 'NONE', #68 ) ;
#247 = EDGE_LOOP ( 'NONE', ( #47, #199, #203 ) ) ;
#248 = ORIENTED_EDGE ( 'NONE', *, *, #234, .F. ) ;
#249 = DIRECTION ( 'NONE',  ( -0.000000000000000000, 1.000000000000000000, -0.000000000000000000 ) ) ;
#250 = CIRCLE ( 'NONE', #49, 3.015000000000000124 ) ;
#251 = DIRECTION ( 'NONE',  ( 0.000000000000000000, -1.000000000000000000, 0.000000000000000000 ) ) ;
#252 = EDGE_CURVE ( 'NONE', #246, #290, #118, .T. ) ;
#253 = ADVANCED_FACE ( 'NONE', ( #139, #238 ), #119, .T. ) ;
#254 = CIRCLE ( 'NONE', #163, 2.774999999999999911 ) ;
#255 = FACE_OUTER_BOUND ( 'NONE', #77, .T. ) ;
#256 = CYLINDRICAL_SURFACE ( 'NONE', #148, 2.774999999999999911 ) ;
#257 = CYLINDRICAL_SURFACE ( 'NONE', #108, 3.015000000000000124 ) ;
#258 =( GEOMETRIC_REPRESENTATION_CONTEXT ( 3 ) GLOBAL_UNCERTAINTY_ASSIGNED_CONTEXT ( ( #206 ) ) GLOBAL_UNIT_ASSIGNED_CONTEXT ( ( #219, #286, #309 ) ) REPRESENTATION_CONTEXT ( 'NONE', 'WORKASPACE' ) );
#259 = SURFACE_STYLE_USAGE ( .BOTH. , #196 ) ;
#260 = DIRECTION ( 'NONE',  ( -0.000000000000000000, 1.000000000000000000, -0.000000000000000000 ) ) ;
#261 = DIRECTION ( 'NONE',  ( 0.000000000000000000, 0.000000000000000000, -1.000000000000000000 ) ) ;
#262 = EDGE_CURVE ( 'NONE', #290, #295, #93, .T. ) ;
#263 = DIRECTION ( 'NONE',  ( -0.000000000000000000, -1.000000000000000000, -0.000000000000000000 ) ) ;
#264 = DIRECTION ( 'NONE',  ( 0.000000000000000000, -1.000000000000000000, 0.000000000000000000 ) ) ;
#265 = APPLICATION_PROTOCOL_DEFINITION ( 'draft international standard', 'automotive_design', 1998, #187 ) ;
#266 = AXIS2_PLACEMENT_3D ( 'NONE', #281, #169, #261 ) ;
#267 = ORIENTED_EDGE ( 'NONE', *, *, #239, .T. ) ;
#268 = AXIS2_PLACEMENT_3D ( 'NONE', #211, #83, #112 ) ;
#269 = VERTEX_POINT ( 'NONE', #87 ) ;
#270 = ORIENTED_EDGE ( 'NONE', *, *, #225, .T. ) ;
#271 = ORIENTED_EDGE ( 'NONE', *, *, #127, .T. ) ;
#272 = AXIS2_PLACEMENT_3D ( 'NONE', #154, #242, #178 ) ;
#273 = ORIENTED_EDGE ( 'NONE', *, *, #142, .F. ) ;
#274 = DIRECTION ( 'NONE',  ( -1.224646799147353207E-16, 0.000000000000000000, -1.000000000000000000 ) ) ;
#275 = EDGE_CURVE ( 'NONE', #269, #2, #30, .T. ) ;
#276 = DIRECTION ( 'NONE',  ( 0.000000000000000000, 0.000000000000000000, -1.000000000000000000 ) ) ;
#277 = DIRECTION ( 'NONE',  ( 0.000000000000000000, 0.000000000000000000, -1.000000000000000000 ) ) ;
#278 = DIRECTION ( 'NONE',  ( 0.000000000000000000, 0.000000000000000000, -1.000000000000000000 ) ) ;
#279 = DIRECTION ( 'NONE',  ( -0.000000000000000000, -1.000000000000000000, -0.000000000000000000 ) ) ;
#280 = COLOUR_RGB ( '',0.7921568627450980005, 0.8196078431372548767, 0.9333333333333333481 ) ;
#281 = CARTESIAN_POINT ( 'NONE',  ( 0.000000000000000000, 0.000000000000000000, 0.000000000000000000 ) ) ;
#282 = CIRCLE ( 'NONE', #40, 14.81077039455249178 ) ;
#283 = ADVANCED_FACE ( 'NONE', ( #46, #194 ), #143, .T. ) ;
#284 = SURFACE_STYLE_FILL_AREA ( #240 ) ;
#285 = EDGE_CURVE ( 'NONE', #290, #32, #287, .T. ) ;
#286 =( NAMED_UNIT ( * ) PLANE_ANGLE_UNIT ( ) SI_UNIT ( $, .RADIAN. ) );
#287 = CIRCLE ( 'NONE', #241, 2.774999999999999911 ) ;
#288 = EDGE_LOOP ( 'NONE', ( #7, #177, #202, #106 ) ) ;
#289 = MECHANICAL_DESIGN_GEOMETRIC_PRESENTATION_REPRESENTATION (  '', ( #220 ), #258 ) ;
#290 = VERTEX_POINT ( 'NONE', #73 ) ;
#291 = AXIS2_PLACEMENT_3D ( 'NONE', #81, #251, #276 ) ;
#292 = EDGE_CURVE ( 'NONE', #32, #290, #115, .T. ) ;
#293 = EDGE_LOOP ( 'NONE', ( #157, #158 ) ) ;
#294 = AXIS2_PLACEMENT_3D ( 'NONE', #15, #140, #66 ) ;
#295 = VERTEX_POINT ( 'NONE', #29 ) ;
#296 = CONICAL_SURFACE ( 'NONE', #168, 1.540102843464938420, 0.8901179185171127495 ) ;
#297 = EDGE_CURVE ( 'NONE', #126, #246, #78, .T. ) ;
#298 = DIRECTION ( 'NONE',  ( 1.000000000000000000, 0.000000000000000000, -1.224646799147353207E-16 ) ) ;
#299 = DIRECTION ( 'NONE',  ( 0.000000000000000000, -1.000000000000000000, 0.000000000000000000 ) ) ;
#300 = AXIS2_PLACEMENT_3D ( 'NONE', #171, #310, #117 ) ;
#301 = PLANE ( 'NONE',  #243 ) ;
#302 = CARTESIAN_POINT ( 'NONE',  ( 0.000000000000000000, -5.000000000000000000, 3.015000000000000124 ) ) ;
#303 = CARTESIAN_POINT ( 'NONE',  ( 0.000000000000000000, 1.300000000000001155, -2.774999999999999911 ) ) ;
#304 = FILL_AREA_STYLE_COLOUR ( '', #280 ) ;
#305 = DIRECTION ( 'NONE',  ( 0.000000000000000000, -1.000000000000000000, 0.000000000000000000 ) ) ;
#306 = ADVANCED_FACE ( 'NONE', ( #1 ), #155, .T. ) ;
#307 = AXIS2_PLACEMENT_3D ( 'NONE', #85, #160, #235 ) ;
#308 = DIRECTION ( 'NONE',  ( 0.000000000000000000, -1.000000000000000000, 0.000000000000000000 ) ) ;
#309 =( NAMED_UNIT ( * ) SI_UNIT ( $, .STERADIAN. ) SOLID_ANGLE_UNIT ( ) );
#310 = DIRECTION ( 'NONE',  ( -0.000000000000000000, -1.000000000000000000, -0.000000000000000000 ) ) ;
#311 = AXIS2_PLACEMENT_3D ( 'NONE', #60, #279, #192 ) ;
ENDSEC;
END-ISO-10303-21;
