ISO-10303-21;
HEADER;
FILE_DESCRIPTION (( 'STEP AP214' ),
    '1' );
FILE_NAME ('Uboltattatchmentpartnosecone.SLDPRT.STEP',
    '2026-02-17T00:54:54',
    ( '' ),
    ( '' ),
    'SwSTEP 2.0',
    'SolidWorks 2025',
    '' );
FILE_SCHEMA (( 'AUTOMOTIVE_DESIGN' ));
ENDSEC;

DATA;
#1 = STYLED_ITEM ( 'NONE', ( #166 ), #347 ) ;
#2 = FACE_OUTER_BOUND ( 'NONE', #264, .T. ) ;
#3 = DIRECTION ( 'NONE',  ( 0.000000000000000000, 1.000000000000000000, 0.000000000000000000 ) ) ;
#4 = LINE ( 'NONE', #301, #108 ) ;
#5 = UNCERTAINTY_MEASURE_WITH_UNIT (LENGTH_MEASURE( 1.000000000000000082E-05 ), #118, 'distance_accuracy_value', 'NONE');
#6 = LINE ( 'NONE', #12, #28 ) ;
#7 = EDGE_CURVE ( 'NONE', #144, #184, #213, .T. ) ;
#8 = ADVANCED_FACE ( 'NONE', ( #95 ), #44, .F. ) ;
#9 = FACE_BOUND ( 'NONE', #13, .T. ) ;
#10 = VERTEX_POINT ( 'NONE', #48 ) ;
#11 = CARTESIAN_POINT ( 'NONE',  ( 3.520859547548640440E-16, 6.000000000000000888, 2.875000000000000000 ) ) ;
#12 = CARTESIAN_POINT ( 'NONE',  ( -1.876500000000000057, 0.000000000000000000, -0.4150000000000000910 ) ) ;
#13 = EDGE_LOOP ( 'NONE', ( #285, #141 ) ) ;
#14 = AXIS2_PLACEMENT_3D ( 'NONE', #63, #119, #223 ) ;
#15 = ORIENTED_EDGE ( 'NONE', *, *, #31, .T. ) ;
#16 = EDGE_CURVE ( 'NONE', #20, #184, #232, .T. ) ;
#17 = AXIS2_PLACEMENT_3D ( 'NONE', #22, #163, #53 ) ;
#18 = ORIENTED_EDGE ( 'NONE', *, *, #131, .T. ) ;
#19 = CARTESIAN_POINT ( 'NONE',  ( 0.000000000000000000, 6.000000000000000888, 0.000000000000000000 ) ) ;
#20 = VERTEX_POINT ( 'NONE', #215 ) ;
#21 = ORIENTED_EDGE ( 'NONE', *, *, #245, .F. ) ;
#22 = CARTESIAN_POINT ( 'NONE',  ( 0.000000000000000000, 1.000000000000000000, 0.000000000000000000 ) ) ;
#23 = CYLINDRICAL_SURFACE ( 'NONE', #263, 0.4150000000000000910 ) ;
#24 = CARTESIAN_POINT ( 'NONE',  ( -1.876500000000000057, 1.000000000000000000, 0.4150000000000000910 ) ) ;
#25 = CIRCLE ( 'NONE', #90, 3.155000000000000249 ) ;
#26 = DIRECTION ( 'NONE',  ( 0.000000000000000000, 0.000000000000000000, 1.000000000000000000 ) ) ;
#27 = AXIS2_PLACEMENT_3D ( 'NONE', #293, #342, #148 ) ;
#28 = VECTOR ( 'NONE', #224, 100.0000000000000000 ) ;
#29 = CARTESIAN_POINT ( 'NONE',  ( 1.876500000000000057, 0.000000000000000000, -6.894149155800024837E-16 ) ) ;
#30 = EDGE_CURVE ( 'NONE', #84, #20, #155, .T. ) ;
#31 = EDGE_CURVE ( 'NONE', #102, #98, #122, .T. ) ;
#32 = CARTESIAN_POINT ( 'NONE',  ( 0.000000000000000000, 6.000000000000000888, 0.000000000000000000 ) ) ;
#33 = DIRECTION ( 'NONE',  ( 0.000000000000000000, -0.000000000000000000, 1.000000000000000000 ) ) ;
#34 = EDGE_LOOP ( 'NONE', ( #86, #73 ) ) ;
#35 = SURFACE_SIDE_STYLE ('',( #230 ) ) ;
#36 = ORIENTED_EDGE ( 'NONE', *, *, #31, .F. ) ;
#37 = DIRECTION ( 'NONE',  ( 0.000000000000000000, 0.000000000000000000, 1.000000000000000000 ) ) ;
#38 = VERTEX_POINT ( 'NONE', #180 ) ;
#39 = EDGE_LOOP ( 'NONE', ( #198, #289 ) ) ;
#40 =( NAMED_UNIT ( * ) SI_UNIT ( $, .STERADIAN. ) SOLID_ANGLE_UNIT ( ) );
#41 = EDGE_LOOP ( 'NONE', ( #278, #92 ) ) ;
#42 = PRODUCT_RELATED_PRODUCT_CATEGORY ( 'part', '', ( #344 ) ) ;
#43 = CIRCLE ( 'NONE', #251, 3.154999999999999361 ) ;
#44 = CYLINDRICAL_SURFACE ( 'NONE', #27, 0.4150000000000000910 ) ;
#45 = MECHANICAL_DESIGN_GEOMETRIC_PRESENTATION_REPRESENTATION (  '', ( #1 ), #77 ) ;
#46 = AXIS2_PLACEMENT_3D ( 'NONE', #353, #247, #327 ) ;
#47 = ORIENTED_EDGE ( 'NONE', *, *, #114, .F. ) ;
#48 = CARTESIAN_POINT ( 'NONE',  ( 0.000000000000000000, 6.000000000000000888, -2.875000000000000000 ) ) ;
#49 = AXIS2_PLACEMENT_3D ( 'NONE', #187, #107, #26 ) ;
#50 = ORIENTED_EDGE ( 'NONE', *, *, #296, .T. ) ;
#51 = PRODUCT_DEFINITION_SHAPE ( 'NONE', 'NONE',  #167 ) ;
#52 = LINE ( 'NONE', #133, #199 ) ;
#53 = DIRECTION ( 'NONE',  ( 0.000000000000000000, -0.000000000000000000, 1.000000000000000000 ) ) ;
#54 = EDGE_CURVE ( 'NONE', #314, #150, #328, .T. ) ;
#55 = CARTESIAN_POINT ( 'NONE',  ( 0.000000000000000000, 0.000000000000000000, -3.154999999999999361 ) ) ;
#56 = CARTESIAN_POINT ( 'NONE',  ( 1.876500000000000057, 0.000000000000000000, -6.894149155800024837E-16 ) ) ;
#57 = DIRECTION ( 'NONE',  ( 0.000000000000000000, 0.000000000000000000, 1.000000000000000000 ) ) ;
#58 = AXIS2_PLACEMENT_3D ( 'NONE', #303, #226, #59 ) ;
#59 = DIRECTION ( 'NONE',  ( 0.000000000000000000, 0.000000000000000000, 1.000000000000000000 ) ) ;
#60 =( NAMED_UNIT ( * ) PLANE_ANGLE_UNIT ( ) SI_UNIT ( $, .RADIAN. ) );
#61 = EDGE_LOOP ( 'NONE', ( #171, #207, #234, #205 ) ) ;
#62 = AXIS2_PLACEMENT_3D ( 'NONE', #76, #134, #219 ) ;
#63 = CARTESIAN_POINT ( 'NONE',  ( 0.000000000000000000, 1.000000000000000000, 0.000000000000000000 ) ) ;
#64 = CIRCLE ( 'NONE', #268, 0.4150000000000000910 ) ;
#65 = CARTESIAN_POINT ( 'NONE',  ( -1.876500000000000057, 0.000000000000000000, 0.000000000000000000 ) ) ;
#66 = DIRECTION ( 'NONE',  ( 0.000000000000000000, -0.000000000000000000, 1.000000000000000000 ) ) ;
#67 = ORIENTED_EDGE ( 'NONE', *, *, #94, .T. ) ;
#68 = ADVANCED_FACE ( 'NONE', ( #291 ), #267, .F. ) ;
#69 = ORIENTED_EDGE ( 'NONE', *, *, #121, .T. ) ;
#70 = CARTESIAN_POINT ( 'NONE',  ( -1.876500000000000057, 1.000000000000000000, 0.000000000000000000 ) ) ;
#71 = CARTESIAN_POINT ( 'NONE',  ( 1.876500000000000057, 0.000000000000000000, 0.4149999999999993694 ) ) ;
#72 = CIRCLE ( 'NONE', #320, 0.4150000000000000910 ) ;
#73 = ORIENTED_EDGE ( 'NONE', *, *, #311, .F. ) ;
#74 = DIRECTION ( 'NONE',  ( 0.000000000000000000, 1.000000000000000000, 0.000000000000000000 ) ) ;
#75 = VECTOR ( 'NONE', #240, 100.0000000000000000 ) ;
#76 = CARTESIAN_POINT ( 'NONE',  ( 1.876500000000000057, 1.000000000000000000, -6.894149155800024837E-16 ) ) ;
#77 =( GEOMETRIC_REPRESENTATION_CONTEXT ( 3 ) GLOBAL_UNCERTAINTY_ASSIGNED_CONTEXT ( ( #5 ) ) GLOBAL_UNIT_ASSIGNED_CONTEXT ( ( #118, #60, #227 ) ) REPRESENTATION_CONTEXT ( 'NONE', 'WORKASPACE' ) );
#78 = EDGE_CURVE ( 'NONE', #283, #113, #220, .T. ) ;
#79 = DIRECTION ( 'NONE',  ( -0.000000000000000000, 1.000000000000000000, -0.000000000000000000 ) ) ;
#80 = DIRECTION ( 'NONE',  ( 0.000000000000000000, 1.000000000000000000, 0.000000000000000000 ) ) ;
#81 = FACE_BOUND ( 'NONE', #173, .T. ) ;
#82 = DIRECTION ( 'NONE',  ( -0.000000000000000000, -1.000000000000000000, -0.000000000000000000 ) ) ;
#83 = CARTESIAN_POINT ( 'NONE',  ( 0.000000000000000000, 0.000000000000000000, 0.000000000000000000 ) ) ;
#84 = VERTEX_POINT ( 'NONE', #193 ) ;
#85 = FACE_OUTER_BOUND ( 'NONE', #97, .T. ) ;
#86 = ORIENTED_EDGE ( 'NONE', *, *, #159, .F. ) ;
#87 = AXIS2_PLACEMENT_3D ( 'NONE', #239, #146, #99 ) ;
#88 = DIRECTION ( 'NONE',  ( -0.000000000000000000, -1.000000000000000000, -0.000000000000000000 ) ) ;
#89 = ORIENTED_EDGE ( 'NONE', *, *, #16, .F. ) ;
#90 = AXIS2_PLACEMENT_3D ( 'NONE', #299, #3, #57 ) ;
#91 = CARTESIAN_POINT ( 'NONE',  ( 3.863760651309899072E-16, 0.000000000000000000, 3.154999999999999361 ) ) ;
#92 = ORIENTED_EDGE ( 'NONE', *, *, #222, .T. ) ;
#93 = VECTOR ( 'NONE', #127, 100.0000000000000000 ) ;
#94 = EDGE_CURVE ( 'NONE', #319, #38, #64, .T. ) ;
#95 = FACE_OUTER_BOUND ( 'NONE', #257, .T. ) ;
#96 = PRODUCT_CONTEXT ( 'NONE', #156, 'mechanical' ) ;
#97 = EDGE_LOOP ( 'NONE', ( #158, #139, #317, #145 ) ) ;
#98 = VERTEX_POINT ( 'NONE', #190 ) ;
#99 = DIRECTION ( 'NONE',  ( 0.000000000000000000, 0.000000000000000000, 1.000000000000000000 ) ) ;
#100 = DIRECTION ( 'NONE',  ( -0.000000000000000000, -1.000000000000000000, -0.000000000000000000 ) ) ;
#101 =( LENGTH_UNIT ( ) NAMED_UNIT ( * ) SI_UNIT ( .CENTI., .METRE. ) );
#102 = VERTEX_POINT ( 'NONE', #24 ) ;
#103 = FACE_OUTER_BOUND ( 'NONE', #152, .T. ) ;
#104 = EDGE_CURVE ( 'NONE', #184, #20, #266, .T. ) ;
#105 = CARTESIAN_POINT ( 'NONE',  ( 0.000000000000000000, 0.000000000000000000, 0.000000000000000000 ) ) ;
#106 = AXIS2_PLACEMENT_3D ( 'NONE', #281, #126, #313 ) ;
#107 = DIRECTION ( 'NONE',  ( 0.000000000000000000, 1.000000000000000000, 0.000000000000000000 ) ) ;
#108 = VECTOR ( 'NONE', #331, 100.0000000000000000 ) ;
#109 = CARTESIAN_POINT ( 'NONE',  ( 3.520859547548640440E-16, 1.000000000000000222, 2.875000000000000000 ) ) ;
#110 = LINE ( 'NONE', #276, #307 ) ;
#111 = CYLINDRICAL_SURFACE ( 'NONE', #14, 3.154999999999999361 ) ;
#112 = FACE_BOUND ( 'NONE', #120, .T. ) ;
#113 = VERTEX_POINT ( 'NONE', #298 ) ;
#114 = EDGE_CURVE ( 'NONE', #315, #150, #164, .T. ) ;
#115 = FACE_OUTER_BOUND ( 'NONE', #34, .T. ) ;
#116 = VERTEX_POINT ( 'NONE', #55 ) ;
#117 = UNCERTAINTY_MEASURE_WITH_UNIT (LENGTH_MEASURE( 1.000000000000000082E-05 ), #101, 'distance_accuracy_value', 'NONE');
#118 =( LENGTH_UNIT ( ) NAMED_UNIT ( * ) SI_UNIT ( .CENTI., .METRE. ) );
#119 = DIRECTION ( 'NONE',  ( -0.000000000000000000, -1.000000000000000000, -0.000000000000000000 ) ) ;
#120 = EDGE_LOOP ( 'NONE', ( #67, #343 ) ) ;
#121 = EDGE_CURVE ( 'NONE', #315, #10, #335, .T. ) ;
#122 = CIRCLE ( 'NONE', #282, 0.4150000000000000910 ) ;
#123 = ORIENTED_EDGE ( 'NONE', *, *, #311, .T. ) ;
#124 = CARTESIAN_POINT ( 'NONE',  ( 1.876500000000000057, 1.000000000000000000, -6.894149155800024837E-16 ) ) ;
#125 = DIRECTION ( 'NONE',  ( 0.000000000000000000, 0.000000000000000000, 1.000000000000000000 ) ) ;
#126 = DIRECTION ( 'NONE',  ( 0.000000000000000000, 1.000000000000000000, 0.000000000000000000 ) ) ;
#127 = DIRECTION ( 'NONE',  ( -0.000000000000000000, 1.000000000000000000, -0.000000000000000000 ) ) ;
#128 = ADVANCED_BREP_SHAPE_REPRESENTATION ( 'Uboltattatchmentpartnosecone.SLDPRT', ( #347, #194 ), #277 ) ;
#129 = DIRECTION ( 'NONE',  ( 0.000000000000000000, 0.000000000000000000, -1.000000000000000000 ) ) ;
#130 = FACE_OUTER_BOUND ( 'NONE', #288, .T. ) ;
#131 = EDGE_CURVE ( 'NONE', #283, #260, #4, .T. ) ;
#132 = DIRECTION ( 'NONE',  ( 0.000000000000000000, 0.000000000000000000, -1.000000000000000000 ) ) ;
#133 = CARTESIAN_POINT ( 'NONE',  ( 0.000000000000000000, 1.000000000000000000, -3.154999999999999361 ) ) ;
#134 = DIRECTION ( 'NONE',  ( 0.000000000000000000, 1.000000000000000000, 0.000000000000000000 ) ) ;
#135 = DIRECTION ( 'NONE',  ( 0.000000000000000000, 0.000000000000000000, 1.000000000000000000 ) ) ;
#136 = AXIS2_PLACEMENT_3D ( 'NONE', #32, #143, #66 ) ;
#137 = DIRECTION ( 'NONE',  ( -0.000000000000000000, 1.000000000000000000, -0.000000000000000000 ) ) ;
#138 = CARTESIAN_POINT ( 'NONE',  ( 3.863760651309899565E-16, 6.000000000000000888, 3.155000000000000249 ) ) ;
#139 = ORIENTED_EDGE ( 'NONE', *, *, #209, .F. ) ;
#140 = DIRECTION ( 'NONE',  ( 0.000000000000000000, 0.000000000000000000, 1.000000000000000000 ) ) ;
#141 = ORIENTED_EDGE ( 'NONE', *, *, #121, .F. ) ;
#142 = EDGE_LOOP ( 'NONE', ( #231, #290, #295, #15 ) ) ;
#143 = DIRECTION ( 'NONE',  ( 0.000000000000000000, 1.000000000000000000, 0.000000000000000000 ) ) ;
#144 = VERTEX_POINT ( 'NONE', #329 ) ;
#145 = ORIENTED_EDGE ( 'NONE', *, *, #16, .T. ) ;
#146 = DIRECTION ( 'NONE',  ( -0.000000000000000000, 1.000000000000000000, -0.000000000000000000 ) ) ;
#147 = AXIS2_PLACEMENT_3D ( 'NONE', #65, #200, #37 ) ;
#148 = DIRECTION ( 'NONE',  ( 0.000000000000000000, 0.000000000000000000, 1.000000000000000000 ) ) ;
#149 = COLOUR_RGB ( '',0.7921568627450980005, 0.8196078431372548767, 0.9333333333333333481 ) ;
#150 = VERTEX_POINT ( 'NONE', #109 ) ;
#151 = VECTOR ( 'NONE', #216, 100.0000000000000000 ) ;
#152 = EDGE_LOOP ( 'NONE', ( #208, #280, #333, #238 ) ) ;
#153 = SHAPE_DEFINITION_REPRESENTATION ( #51, #128 ) ;
#154 = AXIS2_PLACEMENT_3D ( 'NONE', #19, #100, #129 ) ;
#155 = LINE ( 'NONE', #71, #75 ) ;
#156 = APPLICATION_CONTEXT ( 'automotive_design' ) ;
#157 = EDGE_CURVE ( 'NONE', #98, #102, #228, .T. ) ;
#158 = ORIENTED_EDGE ( 'NONE', *, *, #7, .F. ) ;
#159 = EDGE_CURVE ( 'NONE', #116, #260, #292, .T. ) ;
#160 = DIRECTION ( 'NONE',  ( 0.000000000000000000, 1.000000000000000000, 0.000000000000000000 ) ) ;
#161 = DIRECTION ( 'NONE',  ( -0.000000000000000000, -1.000000000000000000, -0.000000000000000000 ) ) ;
#162 = CYLINDRICAL_SURFACE ( 'NONE', #274, 3.154999999999999361 ) ;
#163 = DIRECTION ( 'NONE',  ( 0.000000000000000000, 1.000000000000000000, 0.000000000000000000 ) ) ;
#164 = LINE ( 'NONE', #248, #151 ) ;
#165 = VECTOR ( 'NONE', #201, 100.0000000000000000 ) ;
#166 = PRESENTATION_STYLE_ASSIGNMENT (( #204 ) ) ;
#167 = PRODUCT_DEFINITION ( 'UNKNOWN', '', #177, #310 ) ;
#168 = PRESENTATION_LAYER_ASSIGNMENT (  '', '', ( #1 ) ) ;
#169 = DIRECTION ( 'NONE',  ( 0.000000000000000000, 0.000000000000000000, -1.000000000000000000 ) ) ;
#170 = AXIS2_PLACEMENT_3D ( 'NONE', #56, #221, #275 ) ;
#171 = ORIENTED_EDGE ( 'NONE', *, *, #349, .T. ) ;
#172 = DIRECTION ( 'NONE',  ( 0.000000000000000000, 1.000000000000000000, 0.000000000000000000 ) ) ;
#173 = EDGE_LOOP ( 'NONE', ( #36, #237 ) ) ;
#174 = AXIS2_PLACEMENT_3D ( 'NONE', #269, #182, #321 ) ;
#175 = CYLINDRICAL_SURFACE ( 'NONE', #233, 2.875000000000000000 ) ;
#176 = ORIENTED_EDGE ( 'NONE', *, *, #185, .T. ) ;
#177 = PRODUCT_DEFINITION_FORMATION_WITH_SPECIFIED_SOURCE ( 'ANY', '', #344, .NOT_KNOWN. ) ;
#178 = ORIENTED_EDGE ( 'NONE', *, *, #104, .F. ) ;
#179 = APPLICATION_PROTOCOL_DEFINITION ( 'draft international standard', 'automotive_design', 1998, #330 ) ;
#180 = CARTESIAN_POINT ( 'NONE',  ( -1.876500000000000057, 0.000000000000000000, -0.4150000000000000910 ) ) ;
#181 = ADVANCED_FACE ( 'NONE', ( #217, #81, #271 ), #351, .T. ) ;
#182 = DIRECTION ( 'NONE',  ( -0.000000000000000000, -1.000000000000000000, -0.000000000000000000 ) ) ;
#183 = AXIS2_PLACEMENT_3D ( 'NONE', #192, #80, #135 ) ;
#184 = VERTEX_POINT ( 'NONE', #191 ) ;
#185 = EDGE_CURVE ( 'NONE', #113, #283, #25, .T. ) ;
#186 = AXIS2_PLACEMENT_3D ( 'NONE', #124, #210, #125 ) ;
#187 = CARTESIAN_POINT ( 'NONE',  ( 0.000000000000000000, 6.000000000000000888, 0.000000000000000000 ) ) ;
#188 = CIRCLE ( 'NONE', #147, 0.4150000000000000910 ) ;
#189 = DIRECTION ( 'NONE',  ( 0.000000000000000000, 0.000000000000000000, 1.000000000000000000 ) ) ;
#190 = CARTESIAN_POINT ( 'NONE',  ( -1.876500000000000057, 1.000000000000000000, -0.4150000000000000910 ) ) ;
#191 = CARTESIAN_POINT ( 'NONE',  ( 1.876500000000000057, 1.000000000000000000, -0.4150000000000008127 ) ) ;
#192 = CARTESIAN_POINT ( 'NONE',  ( -1.876500000000000057, 1.000000000000000000, 0.000000000000000000 ) ) ;
#193 = CARTESIAN_POINT ( 'NONE',  ( 1.876500000000000057, 0.000000000000000000, 0.4149999999999993694 ) ) ;
#194 = AXIS2_PLACEMENT_3D ( 'NONE', #212, #318, #341 ) ;
#195 = EDGE_CURVE ( 'NONE', #10, #314, #110, .T. ) ;
#196 = ADVANCED_FACE ( 'NONE', ( #130 ), #162, .T. ) ;
#197 = CARTESIAN_POINT ( 'NONE',  ( 0.000000000000000000, 0.000000000000000000, 0.000000000000000000 ) ) ;
#198 = ORIENTED_EDGE ( 'NONE', *, *, #54, .F. ) ;
#199 = VECTOR ( 'NONE', #246, 100.0000000000000000 ) ;
#200 = DIRECTION ( 'NONE',  ( 0.000000000000000000, 1.000000000000000000, 0.000000000000000000 ) ) ;
#201 = DIRECTION ( 'NONE',  ( -0.000000000000000000, 1.000000000000000000, -0.000000000000000000 ) ) ;
#202 = AXIS2_PLACEMENT_3D ( 'NONE', #105, #218, #243 ) ;
#203 = EDGE_LOOP ( 'NONE', ( #348, #270, #229, #340 ) ) ;
#204 = SURFACE_STYLE_USAGE ( .BOTH. , #35 ) ;
#205 = ORIENTED_EDGE ( 'NONE', *, *, #195, .F. ) ;
#206 = CARTESIAN_POINT ( 'NONE',  ( -1.876500000000000057, 0.000000000000000000, 0.4150000000000000910 ) ) ;
#207 = ORIENTED_EDGE ( 'NONE', *, *, #114, .T. ) ;
#208 = ORIENTED_EDGE ( 'NONE', *, *, #222, .F. ) ;
#209 = EDGE_CURVE ( 'NONE', #84, #144, #72, .T. ) ;
#210 = DIRECTION ( 'NONE',  ( 0.000000000000000000, 1.000000000000000000, 0.000000000000000000 ) ) ;
#211 = CARTESIAN_POINT ( 'NONE',  ( 1.876500000000000057, 0.000000000000000000, -0.4150000000000008127 ) ) ;
#212 = CARTESIAN_POINT ( 'NONE',  ( 0.000000000000000000, 0.000000000000000000, 0.000000000000000000 ) ) ;
#213 = LINE ( 'NONE', #211, #93 ) ;
#214 =( NAMED_UNIT ( * ) PLANE_ANGLE_UNIT ( ) SI_UNIT ( $, .RADIAN. ) );
#215 = CARTESIAN_POINT ( 'NONE',  ( 1.876500000000000057, 1.000000000000000000, 0.4149999999999993694 ) ) ;
#216 = DIRECTION ( 'NONE',  ( -0.000000000000000000, -1.000000000000000000, -0.000000000000000000 ) ) ;
#217 = FACE_BOUND ( 'NONE', #259, .T. ) ;
#218 = DIRECTION ( 'NONE',  ( 0.000000000000000000, 1.000000000000000000, 0.000000000000000000 ) ) ;
#219 = DIRECTION ( 'NONE',  ( 0.000000000000000000, 0.000000000000000000, 1.000000000000000000 ) ) ;
#220 = CIRCLE ( 'NONE', #49, 3.155000000000000249 ) ;
#221 = DIRECTION ( 'NONE',  ( 0.000000000000000000, 1.000000000000000000, 0.000000000000000000 ) ) ;
#222 = EDGE_CURVE ( 'NONE', #144, #84, #326, .T. ) ;
#223 = DIRECTION ( 'NONE',  ( 0.000000000000000000, 0.000000000000000000, -1.000000000000000000 ) ) ;
#224 = DIRECTION ( 'NONE',  ( -0.000000000000000000, 1.000000000000000000, -0.000000000000000000 ) ) ;
#225 = ORIENTED_EDGE ( 'NONE', *, *, #195, .T. ) ;
#226 = DIRECTION ( 'NONE',  ( -0.000000000000000000, -1.000000000000000000, -0.000000000000000000 ) ) ;
#227 =( NAMED_UNIT ( * ) SI_UNIT ( $, .STERADIAN. ) SOLID_ANGLE_UNIT ( ) );
#228 = CIRCLE ( 'NONE', #183, 0.4150000000000000910 ) ;
#229 = ORIENTED_EDGE ( 'NONE', *, *, #245, .T. ) ;
#230 = SURFACE_STYLE_FILL_AREA ( #308 ) ;
#231 = ORIENTED_EDGE ( 'NONE', *, *, #296, .F. ) ;
#232 = CIRCLE ( 'NONE', #186, 0.4150000000000000910 ) ;
#233 = AXIS2_PLACEMENT_3D ( 'NONE', #336, #88, #169 ) ;
#234 = ORIENTED_EDGE ( 'NONE', *, *, #322, .T. ) ;
#235 = ADVANCED_FACE ( 'NONE', ( #103 ), #23, .F. ) ;
#236 = APPLICATION_PROTOCOL_DEFINITION ( 'draft international standard', 'automotive_design', 1998, #156 ) ;
#237 = ORIENTED_EDGE ( 'NONE', *, *, #157, .F. ) ;
#238 = ORIENTED_EDGE ( 'NONE', *, *, #30, .F. ) ;
#239 = CARTESIAN_POINT ( 'NONE',  ( -1.876500000000000057, 0.000000000000000000, 0.000000000000000000 ) ) ;
#240 = DIRECTION ( 'NONE',  ( -0.000000000000000000, 1.000000000000000000, -0.000000000000000000 ) ) ;
#241 = ORIENTED_EDGE ( 'NONE', *, *, #78, .F. ) ;
#242 = DIRECTION ( 'NONE',  ( 0.000000000000000000, 1.000000000000000000, 0.000000000000000000 ) ) ;
#243 = DIRECTION ( 'NONE',  ( 0.000000000000000000, 0.000000000000000000, 1.000000000000000000 ) ) ;
#244 = AXIS2_PLACEMENT_3D ( 'NONE', #29, #137, #140 ) ;
#245 = EDGE_CURVE ( 'NONE', #113, #116, #52, .T. ) ;
#246 = DIRECTION ( 'NONE',  ( -0.000000000000000000, -1.000000000000000000, -0.000000000000000000 ) ) ;
#247 = DIRECTION ( 'NONE',  ( 0.000000000000000000, 1.000000000000000000, 0.000000000000000000 ) ) ;
#248 = CARTESIAN_POINT ( 'NONE',  ( 3.520859547548640440E-16, 6.000000000000000888, 2.875000000000000000 ) ) ;
#249 = CLOSED_SHELL ( 'NONE', ( #68, #8, #235, #196, #181, #304, #262, #287, #350, #286, #250 ) ) ;
#250 = ADVANCED_FACE ( 'NONE', ( #2 ), #175, .F. ) ;
#251 = AXIS2_PLACEMENT_3D ( 'NONE', #83, #302, #312 ) ;
#252 = FACE_OUTER_BOUND ( 'NONE', #203, .T. ) ;
#253 = CARTESIAN_POINT ( 'NONE',  ( -1.876500000000000057, 0.000000000000000000, 0.4150000000000000910 ) ) ;
#254 = ORIENTED_EDGE ( 'NONE', *, *, #54, .T. ) ;
#255 = CARTESIAN_POINT ( 'NONE',  ( 0.000000000000000000, 1.000000000000000222, -2.875000000000000000 ) ) ;
#256 = PLANE ( 'NONE',  #136 ) ;
#257 = EDGE_LOOP ( 'NONE', ( #339, #50, #265, #309 ) ) ;
#258 = CYLINDRICAL_SURFACE ( 'NONE', #244, 0.4150000000000000910 ) ;
#259 = EDGE_LOOP ( 'NONE', ( #89, #178 ) ) ;
#260 = VERTEX_POINT ( 'NONE', #91 ) ;
#261 = EDGE_CURVE ( 'NONE', #38, #319, #188, .T. ) ;
#262 = ADVANCED_FACE ( 'NONE', ( #112, #279, #115 ), #338, .F. ) ;
#263 = AXIS2_PLACEMENT_3D ( 'NONE', #324, #79, #297 ) ;
#264 = EDGE_LOOP ( 'NONE', ( #47, #69, #225, #254 ) ) ;
#265 = ORIENTED_EDGE ( 'NONE', *, *, #157, .T. ) ;
#266 = CIRCLE ( 'NONE', #62, 0.4150000000000000910 ) ;
#267 = CYLINDRICAL_SURFACE ( 'NONE', #154, 2.875000000000000000 ) ;
#268 = AXIS2_PLACEMENT_3D ( 'NONE', #273, #160, #189 ) ;
#269 = CARTESIAN_POINT ( 'NONE',  ( 0.000000000000000000, 1.000000000000000222, 0.000000000000000000 ) ) ;
#270 = ORIENTED_EDGE ( 'NONE', *, *, #185, .F. ) ;
#271 = FACE_OUTER_BOUND ( 'NONE', #39, .T. ) ;
#272 = DIRECTION ( 'NONE',  ( 0.000000000000000000, 0.000000000000000000, 1.000000000000000000 ) ) ;
#273 = CARTESIAN_POINT ( 'NONE',  ( -1.876500000000000057, 0.000000000000000000, 0.000000000000000000 ) ) ;
#274 = AXIS2_PLACEMENT_3D ( 'NONE', #300, #161, #132 ) ;
#275 = DIRECTION ( 'NONE',  ( 0.000000000000000000, 0.000000000000000000, 1.000000000000000000 ) ) ;
#276 = CARTESIAN_POINT ( 'NONE',  ( 0.000000000000000000, 6.000000000000000888, -2.875000000000000000 ) ) ;
#277 =( GEOMETRIC_REPRESENTATION_CONTEXT ( 3 ) GLOBAL_UNCERTAINTY_ASSIGNED_CONTEXT ( ( #117 ) ) GLOBAL_UNIT_ASSIGNED_CONTEXT ( ( #101, #214, #40 ) ) REPRESENTATION_CONTEXT ( 'NONE', 'WORKASPACE' ) );
#278 = ORIENTED_EDGE ( 'NONE', *, *, #209, .T. ) ;
#279 = FACE_BOUND ( 'NONE', #41, .T. ) ;
#280 = ORIENTED_EDGE ( 'NONE', *, *, #7, .T. ) ;
#281 = CARTESIAN_POINT ( 'NONE',  ( 0.000000000000000000, 6.000000000000000888, 0.000000000000000000 ) ) ;
#282 = AXIS2_PLACEMENT_3D ( 'NONE', #70, #74, #346 ) ;
#283 = VERTEX_POINT ( 'NONE', #138 ) ;
#284 = FILL_AREA_STYLE_COLOUR ( '', #149 ) ;
#285 = ORIENTED_EDGE ( 'NONE', *, *, #349, .F. ) ;
#286 = ADVANCED_FACE ( 'NONE', ( #332, #9 ), #256, .T. ) ;
#287 = ADVANCED_FACE ( 'NONE', ( #85 ), #258, .F. ) ;
#288 = EDGE_LOOP ( 'NONE', ( #241, #18, #123, #21 ) ) ;
#289 = ORIENTED_EDGE ( 'NONE', *, *, #322, .F. ) ;
#290 = ORIENTED_EDGE ( 'NONE', *, *, #94, .F. ) ;
#291 = FACE_OUTER_BOUND ( 'NONE', #61, .T. ) ;
#292 = CIRCLE ( 'NONE', #202, 3.154999999999999361 ) ;
#293 = CARTESIAN_POINT ( 'NONE',  ( -1.876500000000000057, 0.000000000000000000, 0.000000000000000000 ) ) ;
#294 = CIRCLE ( 'NONE', #58, 2.875000000000000000 ) ;
#295 = ORIENTED_EDGE ( 'NONE', *, *, #323, .T. ) ;
#296 = EDGE_CURVE ( 'NONE', #38, #98, #6, .T. ) ;
#297 = DIRECTION ( 'NONE',  ( 0.000000000000000000, 0.000000000000000000, 1.000000000000000000 ) ) ;
#298 = CARTESIAN_POINT ( 'NONE',  ( 0.000000000000000000, 6.000000000000000888, -3.155000000000000249 ) ) ;
#299 = CARTESIAN_POINT ( 'NONE',  ( 0.000000000000000000, 6.000000000000000888, 0.000000000000000000 ) ) ;
#300 = CARTESIAN_POINT ( 'NONE',  ( 0.000000000000000000, 1.000000000000000000, 0.000000000000000000 ) ) ;
#301 = CARTESIAN_POINT ( 'NONE',  ( 3.863760651309899072E-16, 1.000000000000000000, 3.154999999999999361 ) ) ;
#302 = DIRECTION ( 'NONE',  ( 0.000000000000000000, 1.000000000000000000, 0.000000000000000000 ) ) ;
#303 = CARTESIAN_POINT ( 'NONE',  ( 0.000000000000000000, 1.000000000000000222, 0.000000000000000000 ) ) ;
#304 = ADVANCED_FACE ( 'NONE', ( #252 ), #111, .T. ) ;
#305 = CIRCLE ( 'NONE', #106, 2.875000000000000000 ) ;
#306 = EDGE_LOOP ( 'NONE', ( #176, #337 ) ) ;
#307 = VECTOR ( 'NONE', #82, 100.0000000000000000 ) ;
#308 = FILL_AREA_STYLE ('',( #284 ) ) ;
#309 = ORIENTED_EDGE ( 'NONE', *, *, #323, .F. ) ;
#310 = PRODUCT_DEFINITION_CONTEXT ( 'detailed design', #330, 'design' ) ;
#311 = EDGE_CURVE ( 'NONE', #260, #116, #43, .T. ) ;
#312 = DIRECTION ( 'NONE',  ( 0.000000000000000000, 0.000000000000000000, 1.000000000000000000 ) ) ;
#313 = DIRECTION ( 'NONE',  ( 0.000000000000000000, 0.000000000000000000, 1.000000000000000000 ) ) ;
#314 = VERTEX_POINT ( 'NONE', #255 ) ;
#315 = VERTEX_POINT ( 'NONE', #11 ) ;
#316 = CYLINDRICAL_SURFACE ( 'NONE', #87, 0.4150000000000000910 ) ;
#317 = ORIENTED_EDGE ( 'NONE', *, *, #30, .T. ) ;
#318 = DIRECTION ( 'NONE',  ( 0.000000000000000000, 0.000000000000000000, 1.000000000000000000 ) ) ;
#319 = VERTEX_POINT ( 'NONE', #206 ) ;
#320 = AXIS2_PLACEMENT_3D ( 'NONE', #325, #242, #272 ) ;
#321 = DIRECTION ( 'NONE',  ( 0.000000000000000000, 0.000000000000000000, 1.000000000000000000 ) ) ;
#322 = EDGE_CURVE ( 'NONE', #150, #314, #294, .T. ) ;
#323 = EDGE_CURVE ( 'NONE', #319, #102, #334, .T. ) ;
#324 = CARTESIAN_POINT ( 'NONE',  ( 1.876500000000000057, 0.000000000000000000, -6.894149155800024837E-16 ) ) ;
#325 = CARTESIAN_POINT ( 'NONE',  ( 1.876500000000000057, 0.000000000000000000, -6.894149155800024837E-16 ) ) ;
#326 = CIRCLE ( 'NONE', #170, 0.4150000000000000910 ) ;
#327 = DIRECTION ( 'NONE',  ( 0.000000000000000000, 0.000000000000000000, 1.000000000000000000 ) ) ;
#328 = CIRCLE ( 'NONE', #174, 2.875000000000000000 ) ;
#329 = CARTESIAN_POINT ( 'NONE',  ( 1.876500000000000057, 0.000000000000000000, -0.4150000000000008127 ) ) ;
#330 = APPLICATION_CONTEXT ( 'automotive_design' ) ;
#331 = DIRECTION ( 'NONE',  ( -0.000000000000000000, -1.000000000000000000, -0.000000000000000000 ) ) ;
#332 = FACE_OUTER_BOUND ( 'NONE', #306, .T. ) ;
#333 = ORIENTED_EDGE ( 'NONE', *, *, #104, .T. ) ;
#334 = LINE ( 'NONE', #253, #165 ) ;
#335 = CIRCLE ( 'NONE', #46, 2.875000000000000000 ) ;
#336 = CARTESIAN_POINT ( 'NONE',  ( 0.000000000000000000, 6.000000000000000888, 0.000000000000000000 ) ) ;
#337 = ORIENTED_EDGE ( 'NONE', *, *, #78, .T. ) ;
#338 = PLANE ( 'NONE',  #352 ) ;
#339 = ORIENTED_EDGE ( 'NONE', *, *, #261, .F. ) ;
#340 = ORIENTED_EDGE ( 'NONE', *, *, #159, .T. ) ;
#341 = DIRECTION ( 'NONE',  ( 1.000000000000000000, 0.000000000000000000, 0.000000000000000000 ) ) ;
#342 = DIRECTION ( 'NONE',  ( -0.000000000000000000, 1.000000000000000000, -0.000000000000000000 ) ) ;
#343 = ORIENTED_EDGE ( 'NONE', *, *, #261, .T. ) ;
#344 = PRODUCT ( 'Uboltattatchmentpartnosecone.SLDPRT', 'Uboltattatchmentpartnosecone.SLDPRT', '', ( #96 ) ) ;
#345 = FACE_OUTER_BOUND ( 'NONE', #142, .T. ) ;
#346 = DIRECTION ( 'NONE',  ( 0.000000000000000000, 0.000000000000000000, 1.000000000000000000 ) ) ;
#347 = MANIFOLD_SOLID_BREP ( 'Boss-Extrude2', #249 ) ;
#348 = ORIENTED_EDGE ( 'NONE', *, *, #131, .F. ) ;
#349 = EDGE_CURVE ( 'NONE', #10, #315, #305, .T. ) ;
#350 = ADVANCED_FACE ( 'NONE', ( #345 ), #316, .F. ) ;
#351 = PLANE ( 'NONE',  #17 ) ;
#352 = AXIS2_PLACEMENT_3D ( 'NONE', #197, #172, #33 ) ;
#353 = CARTESIAN_POINT ( 'NONE',  ( 0.000000000000000000, 6.000000000000000888, 0.000000000000000000 ) ) ;
ENDSEC;
END-ISO-10303-21;
