ISO-10303-21;
HEADER;
FILE_DESCRIPTION (( 'STEP AP214' ),
    '1' );
FILE_NAME ('uboltattatchmentpartBT.STEP',
    '2026-02-17T00:53:52',
    ( '' ),
    ( '' ),
    'SwSTEP 2.0',
    'SolidWorks 2025',
    '' );
FILE_SCHEMA (( 'AUTOMOTIVE_DESIGN' ));
ENDSEC;

DATA;
#1 = ORIENTED_EDGE ( 'NONE', *, *, #47, .T. ) ;
#2 = CARTESIAN_POINT ( 'NONE',  ( 0.000000000000000000, 1.270000000000000018, 0.000000000000000000 ) ) ;
#3 = LINE ( 'NONE', #169, #95 ) ;
#4 = CIRCLE ( 'NONE', #115, 1.274999999999999911 ) ;
#5 = CARTESIAN_POINT ( 'NONE',  ( -2.214999999999999414, 1.270000000000000018, -0.4150000000000008127 ) ) ;
#6 = FACE_BOUND ( 'NONE', #42, .T. ) ;
#7 = PRESENTATION_STYLE_ASSIGNMENT (( #86 ) ) ;
#8 = AXIS2_PLACEMENT_3D ( 'NONE', #24, #347, #298 ) ;
#9 = CARTESIAN_POINT ( 'NONE',  ( -2.214999999999999414, 1.270000000000000018, -6.970077257347161307E-16 ) ) ;
#10 = VERTEX_POINT ( 'NONE', #149 ) ;
#11 = APPLICATION_CONTEXT ( 'automotive_design' ) ;
#12 = EDGE_CURVE ( 'NONE', #231, #275, #264, .T. ) ;
#13 = CARTESIAN_POINT ( 'NONE',  ( 0.9644602708803615698, 1.270000000000000018, 1.994001350524461591 ) ) ;
#14 = ORIENTED_EDGE ( 'NONE', *, *, #277, .F. ) ;
#15 = CIRCLE ( 'NONE', #294, 3.154999999999999361 ) ;
#16 = AXIS2_PLACEMENT_3D ( 'NONE', #9, #333, #230 ) ;
#17 = EDGE_CURVE ( 'NONE', #48, #242, #104, .T. ) ;
#18 = ORIENTED_EDGE ( 'NONE', *, *, #213, .F. ) ;
#19 = DIRECTION ( 'NONE',  ( -0.000000000000000000, -1.000000000000000000, -0.000000000000000000 ) ) ;
#20 = PLANE ( 'NONE',  #170 ) ;
#21 = CLOSED_SHELL ( 'NONE', ( #308, #25, #157, #53, #184, #38, #111, #173, #147, #120 ) ) ;
#22 = AXIS2_PLACEMENT_3D ( 'NONE', #26, #78, #190 ) ;
#23 = DIRECTION ( 'NONE',  ( 0.000000000000000000, 0.000000000000000000, -1.000000000000000000 ) ) ;
#24 = CARTESIAN_POINT ( 'NONE',  ( 0.9644602708803615698, 1.270000000000000018, 1.994001350524461591 ) ) ;
#25 = ADVANCED_FACE ( 'NONE', ( #210 ), #311, .F. ) ;
#26 = CARTESIAN_POINT ( 'NONE',  ( 0.9644602708803615698, 0.000000000000000000, 1.994001350524461591 ) ) ;
#27 = VERTEX_POINT ( 'NONE', #211 ) ;
#28 = CIRCLE ( 'NONE', #129, 3.154999999999999361 ) ;
#29 = CYLINDRICAL_SURFACE ( 'NONE', #8, 0.4150000000000000910 ) ;
#30 = VERTEX_POINT ( 'NONE', #339 ) ;
#31 = FILL_AREA_STYLE_COLOUR ( '', #198 ) ;
#32 = PRODUCT_DEFINITION ( 'UNKNOWN', '', #150, #64 ) ;
#33 =( NAMED_UNIT ( * ) PLANE_ANGLE_UNIT ( ) SI_UNIT ( $, .RADIAN. ) );
#34 = ORIENTED_EDGE ( 'NONE', *, *, #179, .T. ) ;
#35 = FACE_BOUND ( 'NONE', #246, .T. ) ;
#36 = CARTESIAN_POINT ( 'NONE',  ( 0.000000000000000000, 1.270000000000000018, 0.000000000000000000 ) ) ;
#37 = AXIS2_PLACEMENT_3D ( 'NONE', #141, #278, #110 ) ;
#38 = ADVANCED_FACE ( 'NONE', ( #313, #152, #187, #263 ), #20, .F. ) ;
#39 = DIRECTION ( 'NONE',  ( -0.000000000000000000, -1.000000000000000000, -0.000000000000000000 ) ) ;
#40 = UNCERTAINTY_MEASURE_WITH_UNIT (LENGTH_MEASURE( 1.000000000000000082E-05 ), #191, 'distance_accuracy_value', 'NONE');
#41 = DIRECTION ( 'NONE',  ( 0.000000000000000000, 0.000000000000000000, 1.000000000000000000 ) ) ;
#42 = EDGE_LOOP ( 'NONE', ( #336, #221 ) ) ;
#43 = LINE ( 'NONE', #143, #289 ) ;
#44 = VERTEX_POINT ( 'NONE', #219 ) ;
#45 = EDGE_CURVE ( 'NONE', #10, #44, #90, .T. ) ;
#46 = EDGE_LOOP ( 'NONE', ( #286, #288 ) ) ;
#47 = EDGE_CURVE ( 'NONE', #334, #180, #28, .T. ) ;
#48 = VERTEX_POINT ( 'NONE', #316 ) ;
#49 = AXIS2_PLACEMENT_3D ( 'NONE', #328, #304, #134 ) ;
#50 = EDGE_LOOP ( 'NONE', ( #323, #76, #34, #259 ) ) ;
#51 = ORIENTED_EDGE ( 'NONE', *, *, #202, .T. ) ;
#52 = DIRECTION ( 'NONE',  ( 0.000000000000000000, 0.000000000000000000, 1.000000000000000000 ) ) ;
#53 = ADVANCED_FACE ( 'NONE', ( #108 ), #83, .T. ) ;
#54 = CIRCLE ( 'NONE', #249, 0.4150000000000000910 ) ;
#55 = CARTESIAN_POINT ( 'NONE',  ( 0.000000000000000000, 1.270000000000000018, 0.000000000000000000 ) ) ;
#56 = DIRECTION ( 'NONE',  ( 0.000000000000000000, 0.000000000000000000, -1.000000000000000000 ) ) ;
#57 = APPLICATION_PROTOCOL_DEFINITION ( 'draft international standard', 'automotive_design', 1998, #252 ) ;
#58 = EDGE_CURVE ( 'NONE', #306, #27, #260, .T. ) ;
#59 = CARTESIAN_POINT ( 'NONE',  ( 0.000000000000000000, 1.270000000000000018, 0.000000000000000000 ) ) ;
#60 = AXIS2_PLACEMENT_3D ( 'NONE', #342, #297, #343 ) ;
#61 = FACE_OUTER_BOUND ( 'NONE', #160, .T. ) ;
#62 = DIRECTION ( 'NONE',  ( 0.000000000000000000, 0.000000000000000000, -1.000000000000000000 ) ) ;
#63 = DIRECTION ( 'NONE',  ( 0.000000000000000000, -1.000000000000000000, 0.000000000000000000 ) ) ;
#64 = PRODUCT_DEFINITION_CONTEXT ( 'detailed design', #11, 'design' ) ;
#65 = VECTOR ( 'NONE', #174, 100.0000000000000000 ) ;
#66 = LINE ( 'NONE', #281, #125 ) ;
#67 =( NAMED_UNIT ( * ) SI_UNIT ( $, .STERADIAN. ) SOLID_ANGLE_UNIT ( ) );
#68 = ORIENTED_EDGE ( 'NONE', *, *, #196, .T. ) ;
#69 = CARTESIAN_POINT ( 'NONE',  ( 0.9644602708803615698, 1.270000000000000018, 1.994001350524461591 ) ) ;
#70 = DIRECTION ( 'NONE',  ( 0.000000000000000000, -1.000000000000000000, 0.000000000000000000 ) ) ;
#71 = VERTEX_POINT ( 'NONE', #102 ) ;
#72 = AXIS2_PLACEMENT_3D ( 'NONE', #194, #126, #131 ) ;
#73 = ORIENTED_EDGE ( 'NONE', *, *, #145, .T. ) ;
#74 = ORIENTED_EDGE ( 'NONE', *, *, #182, .T. ) ;
#75 = CARTESIAN_POINT ( 'NONE',  ( 0.9644602708803615698, 1.270000000000000018, 1.994001350524461591 ) ) ;
#76 = ORIENTED_EDGE ( 'NONE', *, *, #287, .F. ) ;
#77 = CARTESIAN_POINT ( 'NONE',  ( 3.863760651309899072E-16, 1.270000000000000018, 3.154999999999999361 ) ) ;
#78 = DIRECTION ( 'NONE',  ( 0.000000000000000000, -1.000000000000000000, 0.000000000000000000 ) ) ;
#79 = AXIS2_PLACEMENT_3D ( 'NONE', #223, #70, #93 ) ;
#80 = DIRECTION ( 'NONE',  ( -0.000000000000000000, -1.000000000000000000, -0.000000000000000000 ) ) ;
#81 = DIRECTION ( 'NONE',  ( -0.000000000000000000, -1.000000000000000000, -0.000000000000000000 ) ) ;
#82 = EDGE_CURVE ( 'NONE', #310, #30, #312, .T. ) ;
#83 = CYLINDRICAL_SURFACE ( 'NONE', #60, 3.154999999999999361 ) ;
#84 = ORIENTED_EDGE ( 'NONE', *, *, #165, .T. ) ;
#85 = DIRECTION ( 'NONE',  ( 0.000000000000000000, 1.000000000000000000, 0.000000000000000000 ) ) ;
#86 = SURFACE_STYLE_USAGE ( .BOTH. , #250 ) ;
#87 = CARTESIAN_POINT ( 'NONE',  ( 0.9644602708803615698, 1.270000000000000018, 2.409001350524461849 ) ) ;
#88 =( NAMED_UNIT ( * ) PLANE_ANGLE_UNIT ( ) SI_UNIT ( $, .RADIAN. ) );
#89 = EDGE_CURVE ( 'NONE', #30, #310, #162, .T. ) ;
#90 = CIRCLE ( 'NONE', #299, 0.4150000000000000910 ) ;
#91 = LINE ( 'NONE', #5, #65 ) ;
#92 = CARTESIAN_POINT ( 'NONE',  ( 0.000000000000000000, 1.270000000000000018, -3.154999999999999361 ) ) ;
#93 = DIRECTION ( 'NONE',  ( 0.000000000000000000, 0.000000000000000000, -1.000000000000000000 ) ) ;
#94 = ORIENTED_EDGE ( 'NONE', *, *, #82, .F. ) ;
#95 = VECTOR ( 'NONE', #176, 100.0000000000000000 ) ;
#96 = EDGE_CURVE ( 'NONE', #71, #253, #148, .T. ) ;
#97 = ORIENTED_EDGE ( 'NONE', *, *, #292, .T. ) ;
#98 = ORIENTED_EDGE ( 'NONE', *, *, #165, .F. ) ;
#99 = DIRECTION ( 'NONE',  ( 0.000000000000000000, 0.000000000000000000, 1.000000000000000000 ) ) ;
#100 = DIRECTION ( 'NONE',  ( 0.000000000000000000, -1.000000000000000000, 0.000000000000000000 ) ) ;
#101 = DIRECTION ( 'NONE',  ( 1.000000000000000000, 0.000000000000000000, 0.000000000000000000 ) ) ;
#102 = CARTESIAN_POINT ( 'NONE',  ( 0.000000000000000000, 1.270000000000000018, -3.154999999999999361 ) ) ;
#103 = CARTESIAN_POINT ( 'NONE',  ( 0.000000000000000000, 0.000000000000000000, 0.000000000000000000 ) ) ;
#104 = CIRCLE ( 'NONE', #279, 1.274999999999999911 ) ;
#105 = ORIENTED_EDGE ( 'NONE', *, *, #96, .F. ) ;
#106 = CARTESIAN_POINT ( 'NONE',  ( 0.000000000000000000, 1.270000000000000018, 0.000000000000000000 ) ) ;
#107 = ORIENTED_EDGE ( 'NONE', *, *, #117, .T. ) ;
#108 = FACE_OUTER_BOUND ( 'NONE', #237, .T. ) ;
#109 = ORIENTED_EDGE ( 'NONE', *, *, #17, .F. ) ;
#110 = DIRECTION ( 'NONE',  ( 0.000000000000000000, 0.000000000000000000, -1.000000000000000000 ) ) ;
#111 = ADVANCED_FACE ( 'NONE', ( #268 ), #214, .T. ) ;
#112 = VECTOR ( 'NONE', #201, 100.0000000000000000 ) ;
#113 = FACE_BOUND ( 'NONE', #122, .T. ) ;
#114 = DIRECTION ( 'NONE',  ( 0.000000000000000000, 0.000000000000000000, -1.000000000000000000 ) ) ;
#115 = AXIS2_PLACEMENT_3D ( 'NONE', #274, #267, #241 ) ;
#116 = CARTESIAN_POINT ( 'NONE',  ( 0.9644602708803615698, 0.000000000000000000, 1.579001350524461555 ) ) ;
#117 = EDGE_CURVE ( 'NONE', #253, #71, #15, .T. ) ;
#118 = CARTESIAN_POINT ( 'NONE',  ( -2.214999999999999414, 1.270000000000000018, 0.4149999999999993694 ) ) ;
#119 = ORIENTED_EDGE ( 'NONE', *, *, #12, .F. ) ;
#120 = ADVANCED_FACE ( 'NONE', ( #315 ), #324, .F. ) ;
#121 = EDGE_LOOP ( 'NONE', ( #321, #207, #124, #97 ) ) ;
#122 = EDGE_LOOP ( 'NONE', ( #94, #344 ) ) ;
#123 = DIRECTION ( 'NONE',  ( 0.000000000000000000, 0.000000000000000000, -1.000000000000000000 ) ) ;
#124 = ORIENTED_EDGE ( 'NONE', *, *, #235, .T. ) ;
#125 = VECTOR ( 'NONE', #276, 100.0000000000000000 ) ;
#126 = DIRECTION ( 'NONE',  ( 0.000000000000000000, -1.000000000000000000, 0.000000000000000000 ) ) ;
#127 = DIRECTION ( 'NONE',  ( 0.000000000000000000, 0.000000000000000000, -1.000000000000000000 ) ) ;
#128 = DIRECTION ( 'NONE',  ( 0.000000000000000000, 1.000000000000000000, 0.000000000000000000 ) ) ;
#129 = AXIS2_PLACEMENT_3D ( 'NONE', #103, #153, #222 ) ;
#130 = VERTEX_POINT ( 'NONE', #161 ) ;
#131 = DIRECTION ( 'NONE',  ( 0.000000000000000000, 0.000000000000000000, -1.000000000000000000 ) ) ;
#132 = ORIENTED_EDGE ( 'NONE', *, *, #196, .F. ) ;
#133 = FILL_AREA_STYLE ('',( #31 ) ) ;
#134 = DIRECTION ( 'NONE',  ( 0.000000000000000000, -0.000000000000000000, 1.000000000000000000 ) ) ;
#135 = PRODUCT_RELATED_PRODUCT_CATEGORY ( 'part', '', ( #206 ) ) ;
#136 = CIRCLE ( 'NONE', #335, 3.154999999999999361 ) ;
#137 = EDGE_CURVE ( 'NONE', #130, #199, #318, .T. ) ;
#138 = LINE ( 'NONE', #92, #112 ) ;
#139 = FACE_OUTER_BOUND ( 'NONE', #270, .T. ) ;
#140 = ORIENTED_EDGE ( 'NONE', *, *, #287, .T. ) ;
#141 = CARTESIAN_POINT ( 'NONE',  ( -2.214999999999999414, 1.270000000000000018, -6.970077257347161307E-16 ) ) ;
#142 = ORIENTED_EDGE ( 'NONE', *, *, #45, .F. ) ;
#143 = CARTESIAN_POINT ( 'NONE',  ( -2.214999999999999414, 1.270000000000000018, 0.4149999999999993694 ) ) ;
#144 = DIRECTION ( 'NONE',  ( 0.000000000000000000, 0.000000000000000000, -1.000000000000000000 ) ) ;
#145 = EDGE_CURVE ( 'NONE', #253, #180, #245, .T. ) ;
#146 = ORIENTED_EDGE ( 'NONE', *, *, #17, .T. ) ;
#147 = ADVANCED_FACE ( 'NONE', ( #322 ), #29, .F. ) ;
#148 = CIRCLE ( 'NONE', #254, 3.154999999999999361 ) ;
#149 = CARTESIAN_POINT ( 'NONE',  ( -2.214999999999999414, 0.000000000000000000, -0.4150000000000008127 ) ) ;
#150 = PRODUCT_DEFINITION_FORMATION_WITH_SPECIFIED_SOURCE ( 'ANY', '', #206, .NOT_KNOWN. ) ;
#151 = ORIENTED_EDGE ( 'NONE', *, *, #338, .T. ) ;
#152 = FACE_BOUND ( 'NONE', #46, .T. ) ;
#153 = DIRECTION ( 'NONE',  ( 0.000000000000000000, 1.000000000000000000, 0.000000000000000000 ) ) ;
#154 = DIRECTION ( 'NONE',  ( 0.000000000000000000, 0.000000000000000000, 1.000000000000000000 ) ) ;
#155 = AXIS2_PLACEMENT_3D ( 'NONE', #13, #100, #144 ) ;
#156 = DIRECTION ( 'NONE',  ( -0.000000000000000000, -1.000000000000000000, -0.000000000000000000 ) ) ;
#157 = ADVANCED_FACE ( 'NONE', ( #61 ), #164, .F. ) ;
#158 = DIRECTION ( 'NONE',  ( 0.000000000000000000, 1.000000000000000000, 0.000000000000000000 ) ) ;
#159 = PRODUCT_CONTEXT ( 'NONE', #252, 'mechanical' ) ;
#160 = EDGE_LOOP ( 'NONE', ( #208, #273, #98, #181 ) ) ;
#161 = CARTESIAN_POINT ( 'NONE',  ( 0.9644602708803615698, 0.000000000000000000, 2.409001350524461849 ) ) ;
#162 = CIRCLE ( 'NONE', #228, 1.274999999999999911 ) ;
#163 = EDGE_LOOP ( 'NONE', ( #290, #330, #51, #109 ) ) ;
#164 = CYLINDRICAL_SURFACE ( 'NONE', #326, 1.274999999999999911 ) ;
#165 = EDGE_CURVE ( 'NONE', #242, #48, #4, .T. ) ;
#166 =( NAMED_UNIT ( * ) SI_UNIT ( $, .STERADIAN. ) SOLID_ANGLE_UNIT ( ) );
#167 = ORIENTED_EDGE ( 'NONE', *, *, #47, .F. ) ;
#168 = CARTESIAN_POINT ( 'NONE',  ( 3.863760651309899072E-16, 0.000000000000000000, 3.154999999999999361 ) ) ;
#169 = CARTESIAN_POINT ( 'NONE',  ( 0.9644602708803615698, 1.270000000000000018, 1.579001350524461555 ) ) ;
#170 = AXIS2_PLACEMENT_3D ( 'NONE', #239, #341, #240 ) ;
#171 = MANIFOLD_SOLID_BREP ( 'Cut-Extrude1', #21 ) ;
#172 = PLANE ( 'NONE',  #49 ) ;
#173 = ADVANCED_FACE ( 'NONE', ( #280 ), #193, .F. ) ;
#174 = DIRECTION ( 'NONE',  ( -0.000000000000000000, -1.000000000000000000, -0.000000000000000000 ) ) ;
#175 = EDGE_LOOP ( 'NONE', ( #262, #105, #204, #1 ) ) ;
#176 = DIRECTION ( 'NONE',  ( -0.000000000000000000, -1.000000000000000000, -0.000000000000000000 ) ) ;
#177 = AXIS2_PLACEMENT_3D ( 'NONE', #329, #63, #301 ) ;
#178 = CARTESIAN_POINT ( 'NONE',  ( 0.000000000000000000, 0.000000000000000000, -3.154999999999999361 ) ) ;
#179 = EDGE_CURVE ( 'NONE', #27, #10, #91, .T. ) ;
#180 = VERTEX_POINT ( 'NONE', #168 ) ;
#181 = ORIENTED_EDGE ( 'NONE', *, *, #202, .F. ) ;
#182 = EDGE_CURVE ( 'NONE', #231, #130, #66, .T. ) ;
#183 = ORIENTED_EDGE ( 'NONE', *, *, #58, .T. ) ;
#184 = ADVANCED_FACE ( 'NONE', ( #35, #6, #139, #113 ), #172, .T. ) ;
#185 = AXIS2_PLACEMENT_3D ( 'NONE', #36, #251, #62 ) ;
#186 = CARTESIAN_POINT ( 'NONE',  ( 0.000000000000000000, 0.000000000000000000, 0.000000000000000000 ) ) ;
#187 = FACE_OUTER_BOUND ( 'NONE', #232, .T. ) ;
#188 = DIRECTION ( 'NONE',  ( 0.000000000000000000, 0.000000000000000000, 1.000000000000000000 ) ) ;
#189 = CARTESIAN_POINT ( 'NONE',  ( 0.000000000000000000, 0.000000000000000000, 0.000000000000000000 ) ) ;
#190 = DIRECTION ( 'NONE',  ( 0.000000000000000000, 0.000000000000000000, -1.000000000000000000 ) ) ;
#191 =( LENGTH_UNIT ( ) NAMED_UNIT ( * ) SI_UNIT ( .CENTI., .METRE. ) );
#192 = CIRCLE ( 'NONE', #37, 0.4150000000000000910 ) ;
#193 = CYLINDRICAL_SURFACE ( 'NONE', #185, 1.274999999999999911 ) ;
#194 = CARTESIAN_POINT ( 'NONE',  ( -2.214999999999999414, 1.270000000000000018, -6.970077257347161307E-16 ) ) ;
#195 = ORIENTED_EDGE ( 'NONE', *, *, #235, .F. ) ;
#196 = EDGE_CURVE ( 'NONE', #44, #10, #272, .T. ) ;
#197 = DIRECTION ( 'NONE',  ( -0.000000000000000000, -1.000000000000000000, -0.000000000000000000 ) ) ;
#198 = COLOUR_RGB ( '',0.7921568627450980005, 0.8196078431372548767, 0.9333333333333333481 ) ;
#199 = VERTEX_POINT ( 'NONE', #116 ) ;
#200 = LINE ( 'NONE', #256, #265 ) ;
#201 = DIRECTION ( 'NONE',  ( -0.000000000000000000, -1.000000000000000000, -0.000000000000000000 ) ) ;
#202 = EDGE_CURVE ( 'NONE', #310, #242, #303, .T. ) ;
#203 = FACE_OUTER_BOUND ( 'NONE', #258, .T. ) ;
#204 = ORIENTED_EDGE ( 'NONE', *, *, #213, .T. ) ;
#205 = AXIS2_PLACEMENT_3D ( 'NONE', #75, #19, #123 ) ;
#206 = PRODUCT ( 'uboltattatchmentpartBT', 'uboltattatchmentpartBT', '', ( #159 ) ) ;
#207 = ORIENTED_EDGE ( 'NONE', *, *, #220, .F. ) ;
#208 = ORIENTED_EDGE ( 'NONE', *, *, #82, .T. ) ;
#209 = EDGE_CURVE ( 'NONE', #30, #48, #200, .T. ) ;
#210 = FACE_OUTER_BOUND ( 'NONE', #285, .T. ) ;
#211 = CARTESIAN_POINT ( 'NONE',  ( -2.214999999999999414, 1.270000000000000018, -0.4150000000000008127 ) ) ;
#212 = DIRECTION ( 'NONE',  ( 0.000000000000000000, 1.000000000000000000, 0.000000000000000000 ) ) ;
#213 = EDGE_CURVE ( 'NONE', #71, #334, #138, .T. ) ;
#214 = CYLINDRICAL_SURFACE ( 'NONE', #331, 3.154999999999999361 ) ;
#215 = SHAPE_DEFINITION_REPRESENTATION ( #320, #314 ) ;
#216 = DIRECTION ( 'NONE',  ( 0.000000000000000000, -1.000000000000000000, 0.000000000000000000 ) ) ;
#217 = MECHANICAL_DESIGN_GEOMETRIC_PRESENTATION_REPRESENTATION (  '', ( #317 ), #238 ) ;
#218 = AXIS2_PLACEMENT_3D ( 'NONE', #189, #154, #101 ) ;
#219 = CARTESIAN_POINT ( 'NONE',  ( -2.214999999999999414, 0.000000000000000000, 0.4149999999999993694 ) ) ;
#220 = EDGE_CURVE ( 'NONE', #275, #231, #54, .T. ) ;
#221 = ORIENTED_EDGE ( 'NONE', *, *, #12, .T. ) ;
#222 = DIRECTION ( 'NONE',  ( 0.000000000000000000, 0.000000000000000000, 1.000000000000000000 ) ) ;
#223 = CARTESIAN_POINT ( 'NONE',  ( 0.9644602708803615698, 0.000000000000000000, 1.994001350524461591 ) ) ;
#224 = VECTOR ( 'NONE', #332, 100.0000000000000000 ) ;
#225 = CARTESIAN_POINT ( 'NONE',  ( 0.000000000000000000, 0.000000000000000000, -1.274999999999999911 ) ) ;
#226 = UNCERTAINTY_MEASURE_WITH_UNIT (LENGTH_MEASURE( 1.000000000000000082E-05 ), #300, 'distance_accuracy_value', 'NONE');
#227 = DIRECTION ( 'NONE',  ( 0.000000000000000000, 1.000000000000000000, 0.000000000000000000 ) ) ;
#228 = AXIS2_PLACEMENT_3D ( 'NONE', #106, #158, #188 ) ;
#229 = CARTESIAN_POINT ( 'NONE',  ( 0.000000000000000000, 1.270000000000000018, -1.274999999999999911 ) ) ;
#230 = DIRECTION ( 'NONE',  ( 0.000000000000000000, 0.000000000000000000, -1.000000000000000000 ) ) ;
#231 = VERTEX_POINT ( 'NONE', #87 ) ;
#232 = EDGE_LOOP ( 'NONE', ( #167, #14 ) ) ;
#233 = CIRCLE ( 'NONE', #79, 0.4150000000000000910 ) ;
#234 = ORIENTED_EDGE ( 'NONE', *, *, #58, .F. ) ;
#235 = EDGE_CURVE ( 'NONE', #275, #199, #3, .T. ) ;
#236 = ORIENTED_EDGE ( 'NONE', *, *, #277, .T. ) ;
#237 = EDGE_LOOP ( 'NONE', ( #283, #73, #236, #18 ) ) ;
#238 =( GEOMETRIC_REPRESENTATION_CONTEXT ( 3 ) GLOBAL_UNCERTAINTY_ASSIGNED_CONTEXT ( ( #226 ) ) GLOBAL_UNIT_ASSIGNED_CONTEXT ( ( #300, #88, #67 ) ) REPRESENTATION_CONTEXT ( 'NONE', 'WORKASPACE' ) );
#239 = CARTESIAN_POINT ( 'NONE',  ( 0.000000000000000000, 0.000000000000000000, 0.000000000000000000 ) ) ;
#240 = DIRECTION ( 'NONE',  ( 0.000000000000000000, -0.000000000000000000, 1.000000000000000000 ) ) ;
#241 = DIRECTION ( 'NONE',  ( 0.000000000000000000, 0.000000000000000000, 1.000000000000000000 ) ) ;
#242 = VERTEX_POINT ( 'NONE', #225 ) ;
#243 = CARTESIAN_POINT ( 'NONE',  ( -2.214999999999999414, 1.270000000000000018, -6.970077257347161307E-16 ) ) ;
#244 = EDGE_LOOP ( 'NONE', ( #84, #146 ) ) ;
#245 = LINE ( 'NONE', #77, #340 ) ;
#246 = EDGE_LOOP ( 'NONE', ( #140, #183 ) ) ;
#247 = SURFACE_STYLE_FILL_AREA ( #133 ) ;
#248 = DIRECTION ( 'NONE',  ( 0.000000000000000000, -1.000000000000000000, 0.000000000000000000 ) ) ;
#249 = AXIS2_PLACEMENT_3D ( 'NONE', #69, #248, #114 ) ;
#250 = SURFACE_SIDE_STYLE ('',( #247 ) ) ;
#251 = DIRECTION ( 'NONE',  ( -0.000000000000000000, -1.000000000000000000, -0.000000000000000000 ) ) ;
#252 = APPLICATION_CONTEXT ( 'automotive_design' ) ;
#253 = VERTEX_POINT ( 'NONE', #327 ) ;
#254 = AXIS2_PLACEMENT_3D ( 'NONE', #2, #212, #319 ) ;
#255 =( GEOMETRIC_REPRESENTATION_CONTEXT ( 3 ) GLOBAL_UNCERTAINTY_ASSIGNED_CONTEXT ( ( #40 ) ) GLOBAL_UNIT_ASSIGNED_CONTEXT ( ( #191, #33, #166 ) ) REPRESENTATION_CONTEXT ( 'NONE', 'WORKASPACE' ) );
#256 = CARTESIAN_POINT ( 'NONE',  ( 1.561424668912875210E-16, 1.270000000000000018, 1.274999999999999911 ) ) ;
#257 = ORIENTED_EDGE ( 'NONE', *, *, #179, .F. ) ;
#258 = EDGE_LOOP ( 'NONE', ( #234, #151, #68, #257 ) ) ;
#259 = ORIENTED_EDGE ( 'NONE', *, *, #45, .T. ) ;
#260 = CIRCLE ( 'NONE', #72, 0.4150000000000000910 ) ;
#261 = ORIENTED_EDGE ( 'NONE', *, *, #137, .T. ) ;
#262 = ORIENTED_EDGE ( 'NONE', *, *, #145, .F. ) ;
#263 = FACE_BOUND ( 'NONE', #244, .T. ) ;
#264 = CIRCLE ( 'NONE', #155, 0.4150000000000000910 ) ;
#265 = VECTOR ( 'NONE', #39, 100.0000000000000000 ) ;
#266 = CARTESIAN_POINT ( 'NONE',  ( 0.000000000000000000, 1.270000000000000018, 0.000000000000000000 ) ) ;
#267 = DIRECTION ( 'NONE',  ( 0.000000000000000000, 1.000000000000000000, 0.000000000000000000 ) ) ;
#268 = FACE_OUTER_BOUND ( 'NONE', #175, .T. ) ;
#269 = APPLICATION_PROTOCOL_DEFINITION ( 'draft international standard', 'automotive_design', 1998, #11 ) ;
#270 = EDGE_LOOP ( 'NONE', ( #309, #107 ) ) ;
#271 = DIRECTION ( 'NONE',  ( -0.000000000000000000, -1.000000000000000000, -0.000000000000000000 ) ) ;
#272 = CIRCLE ( 'NONE', #177, 0.4150000000000000910 ) ;
#273 = ORIENTED_EDGE ( 'NONE', *, *, #209, .T. ) ;
#274 = CARTESIAN_POINT ( 'NONE',  ( 0.000000000000000000, 0.000000000000000000, 0.000000000000000000 ) ) ;
#275 = VERTEX_POINT ( 'NONE', #282 ) ;
#276 = DIRECTION ( 'NONE',  ( -0.000000000000000000, -1.000000000000000000, -0.000000000000000000 ) ) ;
#277 = EDGE_CURVE ( 'NONE', #180, #334, #136, .T. ) ;
#278 = DIRECTION ( 'NONE',  ( 0.000000000000000000, -1.000000000000000000, 0.000000000000000000 ) ) ;
#279 = AXIS2_PLACEMENT_3D ( 'NONE', #186, #337, #99 ) ;
#280 = FACE_OUTER_BOUND ( 'NONE', #163, .T. ) ;
#281 = CARTESIAN_POINT ( 'NONE',  ( 0.9644602708803615698, 1.270000000000000018, 2.409001350524461849 ) ) ;
#282 = CARTESIAN_POINT ( 'NONE',  ( 0.9644602708803615698, 1.270000000000000018, 1.579001350524461555 ) ) ;
#283 = ORIENTED_EDGE ( 'NONE', *, *, #117, .F. ) ;
#284 = CYLINDRICAL_SURFACE ( 'NONE', #16, 0.4150000000000000910 ) ;
#285 = EDGE_LOOP ( 'NONE', ( #119, #74, #261, #195 ) ) ;
#286 = ORIENTED_EDGE ( 'NONE', *, *, #292, .F. ) ;
#287 = EDGE_CURVE ( 'NONE', #27, #306, #192, .T. ) ;
#288 = ORIENTED_EDGE ( 'NONE', *, *, #137, .F. ) ;
#289 = VECTOR ( 'NONE', #81, 100.0000000000000000 ) ;
#290 = ORIENTED_EDGE ( 'NONE', *, *, #209, .F. ) ;
#291 = EDGE_LOOP ( 'NONE', ( #142, #132 ) ) ;
#292 = EDGE_CURVE ( 'NONE', #199, #130, #233, .T. ) ;
#293 = CARTESIAN_POINT ( 'NONE',  ( -2.214999999999999414, 0.000000000000000000, -6.970077257347161307E-16 ) ) ;
#294 = AXIS2_PLACEMENT_3D ( 'NONE', #295, #128, #52 ) ;
#295 = CARTESIAN_POINT ( 'NONE',  ( 0.000000000000000000, 1.270000000000000018, 0.000000000000000000 ) ) ;
#296 = DIRECTION ( 'NONE',  ( 0.000000000000000000, 0.000000000000000000, 1.000000000000000000 ) ) ;
#297 = DIRECTION ( 'NONE',  ( -0.000000000000000000, -1.000000000000000000, -0.000000000000000000 ) ) ;
#298 = DIRECTION ( 'NONE',  ( 0.000000000000000000, 0.000000000000000000, -1.000000000000000000 ) ) ;
#299 = AXIS2_PLACEMENT_3D ( 'NONE', #293, #216, #346 ) ;
#300 =( LENGTH_UNIT ( ) NAMED_UNIT ( * ) SI_UNIT ( .CENTI., .METRE. ) );
#301 = DIRECTION ( 'NONE',  ( 0.000000000000000000, 0.000000000000000000, -1.000000000000000000 ) ) ;
#302 = AXIS2_PLACEMENT_3D ( 'NONE', #59, #85, #296 ) ;
#303 = LINE ( 'NONE', #229, #224 ) ;
#304 = DIRECTION ( 'NONE',  ( 0.000000000000000000, 1.000000000000000000, 0.000000000000000000 ) ) ;
#305 = CARTESIAN_POINT ( 'NONE',  ( 0.000000000000000000, 1.270000000000000018, -1.274999999999999911 ) ) ;
#306 = VERTEX_POINT ( 'NONE', #118 ) ;
#307 = AXIS2_PLACEMENT_3D ( 'NONE', #243, #197, #127 ) ;
#308 = ADVANCED_FACE ( 'NONE', ( #203 ), #284, .F. ) ;
#309 = ORIENTED_EDGE ( 'NONE', *, *, #96, .T. ) ;
#310 = VERTEX_POINT ( 'NONE', #305 ) ;
#311 = CYLINDRICAL_SURFACE ( 'NONE', #205, 0.4150000000000000910 ) ;
#312 = CIRCLE ( 'NONE', #302, 1.274999999999999911 ) ;
#313 = FACE_BOUND ( 'NONE', #291, .T. ) ;
#314 = ADVANCED_BREP_SHAPE_REPRESENTATION ( 'uboltattatchmentpartBT', ( #171, #218 ), #255 ) ;
#315 = FACE_OUTER_BOUND ( 'NONE', #50, .T. ) ;
#316 = CARTESIAN_POINT ( 'NONE',  ( 1.561424668912875210E-16, 0.000000000000000000, 1.274999999999999911 ) ) ;
#317 = STYLED_ITEM ( 'NONE', ( #7 ), #171 ) ;
#318 = CIRCLE ( 'NONE', #22, 0.4150000000000000910 ) ;
#319 = DIRECTION ( 'NONE',  ( 0.000000000000000000, 0.000000000000000000, 1.000000000000000000 ) ) ;
#320 = PRODUCT_DEFINITION_SHAPE ( 'NONE', 'NONE',  #32 ) ;
#321 = ORIENTED_EDGE ( 'NONE', *, *, #182, .F. ) ;
#322 = FACE_OUTER_BOUND ( 'NONE', #121, .T. ) ;
#323 = ORIENTED_EDGE ( 'NONE', *, *, #338, .F. ) ;
#324 = CYLINDRICAL_SURFACE ( 'NONE', #307, 0.4150000000000000910 ) ;
#325 = CARTESIAN_POINT ( 'NONE',  ( 0.000000000000000000, 0.000000000000000000, 0.000000000000000000 ) ) ;
#326 = AXIS2_PLACEMENT_3D ( 'NONE', #55, #156, #56 ) ;
#327 = CARTESIAN_POINT ( 'NONE',  ( 3.863760651309899072E-16, 1.270000000000000018, 3.154999999999999361 ) ) ;
#328 = CARTESIAN_POINT ( 'NONE',  ( 0.000000000000000000, 1.270000000000000018, 0.000000000000000000 ) ) ;
#329 = CARTESIAN_POINT ( 'NONE',  ( -2.214999999999999414, 0.000000000000000000, -6.970077257347161307E-16 ) ) ;
#330 = ORIENTED_EDGE ( 'NONE', *, *, #89, .T. ) ;
#331 = AXIS2_PLACEMENT_3D ( 'NONE', #266, #80, #23 ) ;
#332 = DIRECTION ( 'NONE',  ( -0.000000000000000000, -1.000000000000000000, -0.000000000000000000 ) ) ;
#333 = DIRECTION ( 'NONE',  ( -0.000000000000000000, -1.000000000000000000, -0.000000000000000000 ) ) ;
#334 = VERTEX_POINT ( 'NONE', #178 ) ;
#335 = AXIS2_PLACEMENT_3D ( 'NONE', #325, #227, #41 ) ;
#336 = ORIENTED_EDGE ( 'NONE', *, *, #220, .T. ) ;
#337 = DIRECTION ( 'NONE',  ( 0.000000000000000000, 1.000000000000000000, 0.000000000000000000 ) ) ;
#338 = EDGE_CURVE ( 'NONE', #306, #44, #43, .T. ) ;
#339 = CARTESIAN_POINT ( 'NONE',  ( 1.561424668912875210E-16, 1.270000000000000018, 1.274999999999999911 ) ) ;
#340 = VECTOR ( 'NONE', #271, 100.0000000000000000 ) ;
#341 = DIRECTION ( 'NONE',  ( 0.000000000000000000, 1.000000000000000000, 0.000000000000000000 ) ) ;
#342 = CARTESIAN_POINT ( 'NONE',  ( 0.000000000000000000, 1.270000000000000018, 0.000000000000000000 ) ) ;
#343 = DIRECTION ( 'NONE',  ( 0.000000000000000000, 0.000000000000000000, -1.000000000000000000 ) ) ;
#344 = ORIENTED_EDGE ( 'NONE', *, *, #89, .F. ) ;
#345 = PRESENTATION_LAYER_ASSIGNMENT (  '', '', ( #317 ) ) ;
#346 = DIRECTION ( 'NONE',  ( 0.000000000000000000, 0.000000000000000000, -1.000000000000000000 ) ) ;
#347 = DIRECTION ( 'NONE',  ( -0.000000000000000000, -1.000000000000000000, -0.000000000000000000 ) ) ;
ENDSEC;
END-ISO-10303-21;
