ISO-10303-21;
HEADER;
FILE_DESCRIPTION (( 'STEP AP214' ),
    '1' );
FILE_NAME ('endcap.STEP',
    '2026-02-16T07:33:25',
    ( '' ),
    ( '' ),
    'SwSTEP 2.0',
    'SolidWorks 2025',
    '' );
FILE_SCHEMA (( 'AUTOMOTIVE_DESIGN' ));
ENDSEC;

DATA;
#1 = ORIENTED_EDGE ( 'NONE', *, *, #51, .T. ) ;
#2 = DIRECTION ( 'NONE',  ( 0.000000000000000000, -1.000000000000000000, 0.000000000000000000 ) ) ;
#3 = ORIENTED_EDGE ( 'NONE', *, *, #274, .T. ) ;
#4 = ORIENTED_EDGE ( 'NONE', *, *, #374, .T. ) ;
#5 = VECTOR ( 'NONE', #140, 100.0000000000000000 ) ;
#6 = CARTESIAN_POINT ( 'NONE',  ( 2.477500000000000036, 1.260000000000000009, 0.000000000000000000 ) ) ;
#7 = DIRECTION ( 'NONE',  ( 0.000000000000000000, 0.000000000000000000, 1.000000000000000000 ) ) ;
#8 = ADVANCED_FACE ( 'NONE', ( #360 ), #423, .F. ) ;
#9 = DIRECTION ( 'NONE',  ( 0.000000000000000000, -1.000000000000000000, 0.000000000000000000 ) ) ;
#10 = VECTOR ( 'NONE', #96, 100.0000000000000000 ) ;
#11 = CARTESIAN_POINT ( 'NONE',  ( 0.000000000000000000, 2.700000000000000178, -1.550000000000000044 ) ) ;
#12 = DIRECTION ( 'NONE',  ( 0.000000000000000000, 0.000000000000000000, 1.000000000000000000 ) ) ;
#13 = CARTESIAN_POINT ( 'NONE',  ( 2.477500000000000036, 2.399999999999999911, 0.000000000000000000 ) ) ;
#14 = AXIS2_PLACEMENT_3D ( 'NONE', #335, #407, #270 ) ;
#15 = CIRCLE ( 'NONE', #42, 0.2149999999999997746 ) ;
#16 =( NAMED_UNIT ( * ) PLANE_ANGLE_UNIT ( ) SI_UNIT ( $, .RADIAN. ) );
#17 = ORIENTED_EDGE ( 'NONE', *, *, #188, .F. ) ;
#18 = DIRECTION ( 'NONE',  ( 0.000000000000000000, 0.000000000000000000, -1.000000000000000000 ) ) ;
#19 = DIRECTION ( 'NONE',  ( -0.000000000000000000, -1.000000000000000000, -0.000000000000000000 ) ) ;
#20 = EDGE_LOOP ( 'NONE', ( #179, #17 ) ) ;
#21 = AXIS2_PLACEMENT_3D ( 'NONE', #196, #73, #234 ) ;
#22 = CIRCLE ( 'NONE', #294, 0.2149999999999997746 ) ;
#23 = ORIENTED_EDGE ( 'NONE', *, *, #160, .F. ) ;
#24 = ADVANCED_FACE ( 'NONE', ( #291, #33 ), #65, .T. ) ;
#25 = FACE_OUTER_BOUND ( 'NONE', #385, .T. ) ;
#26 = EDGE_LOOP ( 'NONE', ( #184, #238 ) ) ;
#27 = DIRECTION ( 'NONE',  ( 0.000000000000000000, 0.000000000000000000, -1.000000000000000000 ) ) ;
#28 = VERTEX_POINT ( 'NONE', #100 ) ;
#29 = AXIS2_PLACEMENT_3D ( 'NONE', #98, #90, #27 ) ;
#30 = CARTESIAN_POINT ( 'NONE',  ( -2.477500000000000036, 1.260000000000000009, 0.2149999999999997746 ) ) ;
#31 = EDGE_LOOP ( 'NONE', ( #401, #124 ) ) ;
#32 = DIRECTION ( 'NONE',  ( 0.000000000000000000, -0.000000000000000000, 1.000000000000000000 ) ) ;
#33 = FACE_OUTER_BOUND ( 'NONE', #83, .T. ) ;
#34 = ADVANCED_FACE ( 'NONE', ( #228 ), #68, .T. ) ;
#35 = ORIENTED_EDGE ( 'NONE', *, *, #361, .T. ) ;
#36 = CIRCLE ( 'NONE', #29, 1.550000000000000044 ) ;
#37 = DIRECTION ( 'NONE',  ( -0.000000000000000000, -1.000000000000000000, -0.000000000000000000 ) ) ;
#38 = CARTESIAN_POINT ( 'NONE',  ( 2.477500000000000036, 0.000000000000000000, 0.2149999999999997746 ) ) ;
#39 = LINE ( 'NONE', #171, #300 ) ;
#40 = CARTESIAN_POINT ( 'NONE',  ( 0.000000000000000000, 1.260000000000000009, 0.000000000000000000 ) ) ;
#41 = UNCERTAINTY_MEASURE_WITH_UNIT (LENGTH_MEASURE( 1.000000000000000082E-05 ), #388, 'distance_accuracy_value', 'NONE');
#42 = AXIS2_PLACEMENT_3D ( 'NONE', #342, #210, #183 ) ;
#43 = EDGE_CURVE ( 'NONE', #345, #159, #144, .T. ) ;
#44 = CARTESIAN_POINT ( 'NONE',  ( -2.477500000000000036, 0.000000000000000000, 0.000000000000000000 ) ) ;
#45 =( LENGTH_UNIT ( ) NAMED_UNIT ( * ) SI_UNIT ( .CENTI., .METRE. ) );
#46 = ORIENTED_EDGE ( 'NONE', *, *, #409, .F. ) ;
#47 = CYLINDRICAL_SURFACE ( 'NONE', #235, 1.550000000000000044 ) ;
#48 = ORIENTED_EDGE ( 'NONE', *, *, #78, .F. ) ;
#49 = CIRCLE ( 'NONE', #63, 0.2149999999999997746 ) ;
#50 = DIRECTION ( 'NONE',  ( 0.000000000000000000, -1.000000000000000000, 0.000000000000000000 ) ) ;
#51 = EDGE_CURVE ( 'NONE', #337, #338, #279, .T. ) ;
#52 = EDGE_LOOP ( 'NONE', ( #123, #217, #286, #246 ) ) ;
#53 = CARTESIAN_POINT ( 'NONE',  ( 1.898202538678397459E-16, 0.2999999999999999889, 1.550000000000000044 ) ) ;
#54 = ORIENTED_EDGE ( 'NONE', *, *, #160, .T. ) ;
#55 = VERTEX_POINT ( 'NONE', #72 ) ;
#56 = CIRCLE ( 'NONE', #400, 2.100000000000000089 ) ;
#57 = DIRECTION ( 'NONE',  ( 0.000000000000000000, -1.000000000000000000, 0.000000000000000000 ) ) ;
#58 = ORIENTED_EDGE ( 'NONE', *, *, #417, .T. ) ;
#59 = DIRECTION ( 'NONE',  ( 0.000000000000000000, 1.000000000000000000, 0.000000000000000000 ) ) ;
#60 = ORIENTED_EDGE ( 'NONE', *, *, #172, .F. ) ;
#61 = CARTESIAN_POINT ( 'NONE',  ( -2.477500000000000036, 1.260000000000000009, -0.2149999999999997746 ) ) ;
#62 = EDGE_LOOP ( 'NONE', ( #393, #247, #167, #46 ) ) ;
#63 = AXIS2_PLACEMENT_3D ( 'NONE', #224, #57, #249 ) ;
#64 = DIRECTION ( 'NONE',  ( 0.000000000000000000, 0.000000000000000000, -1.000000000000000000 ) ) ;
#65 = PLANE ( 'NONE',  #205 ) ;
#66 = EDGE_CURVE ( 'NONE', #341, #288, #402, .T. ) ;
#67 = DIRECTION ( 'NONE',  ( 0.000000000000000000, 0.000000000000000000, 1.000000000000000000 ) ) ;
#68 = CYLINDRICAL_SURFACE ( 'NONE', #152, 2.854999999999999982 ) ;
#69 = CARTESIAN_POINT ( 'NONE',  ( -2.477500000000000036, 2.399999999999999911, 0.2149999999999997746 ) ) ;
#70 = CARTESIAN_POINT ( 'NONE',  ( 0.000000000000000000, 1.260000000000000009, 0.000000000000000000 ) ) ;
#71 = CARTESIAN_POINT ( 'NONE',  ( 0.000000000000000000, 0.2999999999999999889, -1.550000000000000044 ) ) ;
#72 = CARTESIAN_POINT ( 'NONE',  ( 0.000000000000000000, 0.000000000000000000, -2.854999999999999982 ) ) ;
#73 = DIRECTION ( 'NONE',  ( -0.000000000000000000, -1.000000000000000000, -0.000000000000000000 ) ) ;
#74 = CIRCLE ( 'NONE', #135, 2.854999999999999982 ) ;
#75 = CARTESIAN_POINT ( 'NONE',  ( 2.477500000000000036, 0.000000000000000000, 0.000000000000000000 ) ) ;
#76 = CARTESIAN_POINT ( 'NONE',  ( 2.477500000000000036, 2.399999999999999911, 0.000000000000000000 ) ) ;
#77 = EDGE_LOOP ( 'NONE', ( #354, #54, #148, #165 ) ) ;
#78 = EDGE_CURVE ( 'NONE', #97, #117, #99, .T. ) ;
#79 = SURFACE_STYLE_USAGE ( .BOTH. , #344 ) ;
#80 = ORIENTED_EDGE ( 'NONE', *, *, #265, .T. ) ;
#81 = CIRCLE ( 'NONE', #127, 2.100000000000000089 ) ;
#82 = CARTESIAN_POINT ( 'NONE',  ( 2.477500000000000036, 2.399999999999999911, -0.2149999999999997746 ) ) ;
#83 = EDGE_LOOP ( 'NONE', ( #413, #419 ) ) ;
#84 = DIRECTION ( 'NONE',  ( -0.000000000000000000, -1.000000000000000000, -0.000000000000000000 ) ) ;
#85 = ORIENTED_EDGE ( 'NONE', *, *, #384, .F. ) ;
#86 = EDGE_CURVE ( 'NONE', #28, #387, #56, .T. ) ;
#87 = CARTESIAN_POINT ( 'NONE',  ( 2.477500000000000036, 1.260000000000000009, 0.2149999999999997746 ) ) ;
#88 = ORIENTED_EDGE ( 'NONE', *, *, #257, .T. ) ;
#89 = AXIS2_PLACEMENT_3D ( 'NONE', #258, #2, #227 ) ;
#90 = DIRECTION ( 'NONE',  ( 0.000000000000000000, -1.000000000000000000, 0.000000000000000000 ) ) ;
#91 = ORIENTED_EDGE ( 'NONE', *, *, #109, .T. ) ;
#92 = DIRECTION ( 'NONE',  ( 0.000000000000000000, 1.000000000000000000, 0.000000000000000000 ) ) ;
#93 = VERTEX_POINT ( 'NONE', #268 ) ;
#94 = PRODUCT_DEFINITION_SHAPE ( 'NONE', 'NONE',  #146 ) ;
#95 = EDGE_CURVE ( 'NONE', #223, #118, #208, .T. ) ;
#96 = DIRECTION ( 'NONE',  ( -0.000000000000000000, -1.000000000000000000, -0.000000000000000000 ) ) ;
#97 = VERTEX_POINT ( 'NONE', #204 ) ;
#98 = CARTESIAN_POINT ( 'NONE',  ( 0.000000000000000000, 0.2999999999999999889, 0.000000000000000000 ) ) ;
#99 = CIRCLE ( 'NONE', #260, 2.854999999999999982 ) ;
#100 = CARTESIAN_POINT ( 'NONE',  ( 0.000000000000000000, 0.000000000000000000, -2.100000000000000089 ) ) ;
#101 = CARTESIAN_POINT ( 'NONE',  ( -2.477500000000000036, 0.000000000000000000, -0.2149999999999997746 ) ) ;
#102 = EDGE_CURVE ( 'NONE', #345, #309, #356, .T. ) ;
#103 = DIRECTION ( 'NONE',  ( 0.000000000000000000, 0.000000000000000000, 1.000000000000000000 ) ) ;
#104 = DIRECTION ( 'NONE',  ( -0.000000000000000000, -1.000000000000000000, -0.000000000000000000 ) ) ;
#105 = APPLICATION_PROTOCOL_DEFINITION ( 'draft international standard', 'automotive_design', 1998, #122 ) ;
#106 = MECHANICAL_DESIGN_GEOMETRIC_PRESENTATION_REPRESENTATION (  '', ( #112 ), #416 ) ;
#107 = DIRECTION ( 'NONE',  ( -0.000000000000000000, -1.000000000000000000, -0.000000000000000000 ) ) ;
#108 = CARTESIAN_POINT ( 'NONE',  ( 0.000000000000000000, 0.2999999999999999889, -2.100000000000000089 ) ) ;
#109 = EDGE_CURVE ( 'NONE', #338, #118, #328, .T. ) ;
#110 = LINE ( 'NONE', #69, #119 ) ;
#111 = FACE_OUTER_BOUND ( 'NONE', #382, .T. ) ;
#112 = STYLED_ITEM ( 'NONE', ( #180 ), #303 ) ;
#113 = DIRECTION ( 'NONE',  ( 0.000000000000000000, -1.000000000000000000, 0.000000000000000000 ) ) ;
#114 = ORIENTED_EDGE ( 'NONE', *, *, #182, .T. ) ;
#115 = EDGE_CURVE ( 'NONE', #117, #177, #39, .T. ) ;
#116 = CARTESIAN_POINT ( 'NONE',  ( 0.000000000000000000, 1.260000000000000009, 0.000000000000000000 ) ) ;
#117 = VERTEX_POINT ( 'NONE', #301 ) ;
#118 = VERTEX_POINT ( 'NONE', #101 ) ;
#119 = VECTOR ( 'NONE', #37, 100.0000000000000000 ) ;
#120 = EDGE_CURVE ( 'NONE', #307, #187, #369, .T. ) ;
#121 = SURFACE_STYLE_FILL_AREA ( #375 ) ;
#122 = APPLICATION_CONTEXT ( 'automotive_design' ) ;
#123 = ORIENTED_EDGE ( 'NONE', *, *, #274, .F. ) ;
#124 = ORIENTED_EDGE ( 'NONE', *, *, #102, .F. ) ;
#125 = DIRECTION ( 'NONE',  ( -0.000000000000000000, -1.000000000000000000, -0.000000000000000000 ) ) ;
#126 = CARTESIAN_POINT ( 'NONE',  ( 0.000000000000000000, 2.700000000000000178, 0.000000000000000000 ) ) ;
#127 = AXIS2_PLACEMENT_3D ( 'NONE', #318, #189, #359 ) ;
#128 = FACE_BOUND ( 'NONE', #278, .T. ) ;
#129 = EDGE_LOOP ( 'NONE', ( #254, #48, #325, #4 ) ) ;
#130 = ADVANCED_FACE ( 'NONE', ( #143 ), #264, .F. ) ;
#131 = CYLINDRICAL_SURFACE ( 'NONE', #424, 2.100000000000000089 ) ;
#132 = ORIENTED_EDGE ( 'NONE', *, *, #141, .T. ) ;
#133 = CARTESIAN_POINT ( 'NONE',  ( 2.571758278209441957E-16, 0.2999999999999999889, 2.100000000000000089 ) ) ;
#134 = DIRECTION ( 'NONE',  ( 0.000000000000000000, -1.000000000000000000, 0.000000000000000000 ) ) ;
#135 = AXIS2_PLACEMENT_3D ( 'NONE', #336, #340, #216 ) ;
#136 = ORIENTED_EDGE ( 'NONE', *, *, #265, .F. ) ;
#137 = DIRECTION ( 'NONE',  ( 0.000000000000000000, 1.000000000000000000, 0.000000000000000000 ) ) ;
#138 = DIRECTION ( 'NONE',  ( 0.000000000000000000, 0.000000000000000000, -1.000000000000000000 ) ) ;
#139 = DIRECTION ( 'NONE',  ( 1.000000000000000000, 0.000000000000000000, 0.000000000000000000 ) ) ;
#140 = DIRECTION ( 'NONE',  ( -0.000000000000000000, -1.000000000000000000, -0.000000000000000000 ) ) ;
#141 = EDGE_CURVE ( 'NONE', #309, #345, #305, .T. ) ;
#142 = SHAPE_DEFINITION_REPRESENTATION ( #94, #263 ) ;
#143 = FACE_OUTER_BOUND ( 'NONE', #390, .T. ) ;
#144 = LINE ( 'NONE', #266, #372 ) ;
#145 = CYLINDRICAL_SURFACE ( 'NONE', #410, 0.2149999999999997746 ) ;
#146 = PRODUCT_DEFINITION ( 'UNKNOWN', '', #380, #199 ) ;
#147 = APPLICATION_CONTEXT ( 'automotive_design' ) ;
#148 = ORIENTED_EDGE ( 'NONE', *, *, #166, .F. ) ;
#149 = CYLINDRICAL_SURFACE ( 'NONE', #285, 0.2149999999999997746 ) ;
#150 = ORIENTED_EDGE ( 'NONE', *, *, #43, .F. ) ;
#151 = AXIS2_PLACEMENT_3D ( 'NONE', #299, #9, #406 ) ;
#152 = AXIS2_PLACEMENT_3D ( 'NONE', #195, #326, #302 ) ;
#153 = FACE_BOUND ( 'NONE', #190, .T. ) ;
#154 = UNCERTAINTY_MEASURE_WITH_UNIT (LENGTH_MEASURE( 1.000000000000000082E-05 ), #45, 'distance_accuracy_value', 'NONE');
#155 = ORIENTED_EDGE ( 'NONE', *, *, #182, .F. ) ;
#156 = PLANE ( 'NONE',  #347 ) ;
#157 = ORIENTED_EDGE ( 'NONE', *, *, #352, .T. ) ;
#158 = DIRECTION ( 'NONE',  ( 0.000000000000000000, -0.000000000000000000, 1.000000000000000000 ) ) ;
#159 = VERTEX_POINT ( 'NONE', #38 ) ;
#160 = EDGE_CURVE ( 'NONE', #337, #223, #110, .T. ) ;
#161 = CARTESIAN_POINT ( 'NONE',  ( 1.898202538678397459E-16, 1.260000000000000009, 1.550000000000000044 ) ) ;
#162 = PRODUCT ( 'endcap', 'endcap', '', ( #363 ) ) ;
#163 = EDGE_LOOP ( 'NONE', ( #351, #219 ) ) ;
#164 = CARTESIAN_POINT ( 'NONE',  ( -2.477500000000000036, 2.399999999999999911, 0.000000000000000000 ) ) ;
#165 = ORIENTED_EDGE ( 'NONE', *, *, #109, .F. ) ;
#166 = EDGE_CURVE ( 'NONE', #118, #223, #321, .T. ) ;
#167 = ORIENTED_EDGE ( 'NONE', *, *, #188, .T. ) ;
#168 = AXIS2_PLACEMENT_3D ( 'NONE', #316, #191, #290 ) ;
#169 = DIRECTION ( 'NONE',  ( 0.000000000000000000, 0.000000000000000000, -1.000000000000000000 ) ) ;
#170 = DIRECTION ( 'NONE',  ( 0.000000000000000000, 1.000000000000000000, 0.000000000000000000 ) ) ;
#171 = CARTESIAN_POINT ( 'NONE',  ( 3.496366611565692937E-16, 1.260000000000000009, 2.854999999999999982 ) ) ;
#172 = EDGE_CURVE ( 'NONE', #341, #307, #389, .T. ) ;
#173 = DIRECTION ( 'NONE',  ( -0.000000000000000000, -1.000000000000000000, -0.000000000000000000 ) ) ;
#174 = CARTESIAN_POINT ( 'NONE',  ( 0.000000000000000000, 0.000000000000000000, 0.000000000000000000 ) ) ;
#175 = DIRECTION ( 'NONE',  ( 0.000000000000000000, 0.000000000000000000, -1.000000000000000000 ) ) ;
#176 = CIRCLE ( 'NONE', #89, 1.550000000000000044 ) ;
#177 = VERTEX_POINT ( 'NONE', #198 ) ;
#178 = DIRECTION ( 'NONE',  ( 0.000000000000000000, 1.000000000000000000, 0.000000000000000000 ) ) ;
#179 = ORIENTED_EDGE ( 'NONE', *, *, #86, .F. ) ;
#180 = PRESENTATION_STYLE_ASSIGNMENT (( #79 ) ) ;
#181 = ORIENTED_EDGE ( 'NONE', *, *, #417, .F. ) ;
#182 = EDGE_CURVE ( 'NONE', #307, #341, #277, .T. ) ;
#183 = DIRECTION ( 'NONE',  ( 0.000000000000000000, 0.000000000000000000, 1.000000000000000000 ) ) ;
#184 = ORIENTED_EDGE ( 'NONE', *, *, #166, .T. ) ;
#185 = PRESENTATION_LAYER_ASSIGNMENT (  '', '', ( #112 ) ) ;
#186 = FACE_BOUND ( 'NONE', #20, .T. ) ;
#187 = VERTEX_POINT ( 'NONE', #71 ) ;
#188 = EDGE_CURVE ( 'NONE', #387, #28, #398, .T. ) ;
#189 = DIRECTION ( 'NONE',  ( 0.000000000000000000, -1.000000000000000000, 0.000000000000000000 ) ) ;
#190 = EDGE_LOOP ( 'NONE', ( #88, #1 ) ) ;
#191 = DIRECTION ( 'NONE',  ( -0.000000000000000000, -1.000000000000000000, -0.000000000000000000 ) ) ;
#192 = VERTEX_POINT ( 'NONE', #108 ) ;
#193 = CARTESIAN_POINT ( 'NONE',  ( 0.000000000000000000, 0.2999999999999999889, 0.000000000000000000 ) ) ;
#194 = CYLINDRICAL_SURFACE ( 'NONE', #231, 0.2149999999999997746 ) ;
#195 = CARTESIAN_POINT ( 'NONE',  ( 0.000000000000000000, 1.260000000000000009, 0.000000000000000000 ) ) ;
#196 = CARTESIAN_POINT ( 'NONE',  ( -2.477500000000000036, 1.260000000000000009, 0.000000000000000000 ) ) ;
#197 = AXIS2_PLACEMENT_3D ( 'NONE', #366, #330, #7 ) ;
#198 = CARTESIAN_POINT ( 'NONE',  ( 3.496366611565692937E-16, 0.000000000000000000, 2.854999999999999982 ) ) ;
#199 = PRODUCT_DEFINITION_CONTEXT ( 'detailed design', #147, 'design' ) ;
#200 =( NAMED_UNIT ( * ) SI_UNIT ( $, .STERADIAN. ) SOLID_ANGLE_UNIT ( ) );
#201 = PRODUCT_RELATED_PRODUCT_CATEGORY ( 'part', '', ( #162 ) ) ;
#202 = DIRECTION ( 'NONE',  ( 0.000000000000000000, 0.000000000000000000, 1.000000000000000000 ) ) ;
#203 = CARTESIAN_POINT ( 'NONE',  ( 0.000000000000000000, 0.000000000000000000, 0.000000000000000000 ) ) ;
#204 = CARTESIAN_POINT ( 'NONE',  ( 0.000000000000000000, 1.260000000000000009, -2.854999999999999982 ) ) ;
#205 = AXIS2_PLACEMENT_3D ( 'NONE', #193, #134, #259 ) ;
#206 = AXIS2_PLACEMENT_3D ( 'NONE', #116, #239, #373 ) ;
#207 = DIRECTION ( 'NONE',  ( 0.000000000000000000, 1.000000000000000000, 0.000000000000000000 ) ) ;
#208 = CIRCLE ( 'NONE', #295, 0.2149999999999997746 ) ;
#209 = ADVANCED_FACE ( 'NONE', ( #233 ), #308, .T. ) ;
#210 = DIRECTION ( 'NONE',  ( -0.000000000000000000, -1.000000000000000000, -0.000000000000000000 ) ) ;
#211 = DIRECTION ( 'NONE',  ( -0.000000000000000000, -1.000000000000000000, -0.000000000000000000 ) ) ;
#212 = VECTOR ( 'NONE', #282, 100.0000000000000000 ) ;
#213 = CARTESIAN_POINT ( 'NONE',  ( 0.000000000000000000, 2.700000000000000178, 0.000000000000000000 ) ) ;
#214 = ADVANCED_FACE ( 'NONE', ( #237 ), #149, .F. ) ;
#215 = EDGE_LOOP ( 'NONE', ( #85, #376, #292, #343 ) ) ;
#216 = DIRECTION ( 'NONE',  ( 0.000000000000000000, 0.000000000000000000, 1.000000000000000000 ) ) ;
#217 = ORIENTED_EDGE ( 'NONE', *, *, #115, .T. ) ;
#218 = CARTESIAN_POINT ( 'NONE',  ( 0.000000000000000000, 0.2999999999999999889, -2.100000000000000089 ) ) ;
#219 = ORIENTED_EDGE ( 'NONE', *, *, #361, .F. ) ;
#220 = CYLINDRICAL_SURFACE ( 'NONE', #168, 2.100000000000000089 ) ;
#221 = ORIENTED_EDGE ( 'NONE', *, *, #95, .F. ) ;
#222 = CARTESIAN_POINT ( 'NONE',  ( 0.000000000000000000, 1.260000000000000009, 0.000000000000000000 ) ) ;
#223 = VERTEX_POINT ( 'NONE', #236 ) ;
#224 = CARTESIAN_POINT ( 'NONE',  ( 2.477500000000000036, 0.000000000000000000, 0.000000000000000000 ) ) ;
#225 = ORIENTED_EDGE ( 'NONE', *, *, #257, .F. ) ;
#226 = AXIS2_PLACEMENT_3D ( 'NONE', #232, #297, #364 ) ;
#227 = DIRECTION ( 'NONE',  ( 0.000000000000000000, 0.000000000000000000, -1.000000000000000000 ) ) ;
#228 = FACE_OUTER_BOUND ( 'NONE', #52, .T. ) ;
#229 = DIRECTION ( 'NONE',  ( 0.000000000000000000, 0.000000000000000000, 1.000000000000000000 ) ) ;
#230 = CARTESIAN_POINT ( 'NONE',  ( 2.477500000000000036, 1.260000000000000009, 0.000000000000000000 ) ) ;
#231 = AXIS2_PLACEMENT_3D ( 'NONE', #164, #422, #64 ) ;
#232 = CARTESIAN_POINT ( 'NONE',  ( -2.477500000000000036, 0.000000000000000000, 0.000000000000000000 ) ) ;
#233 = FACE_OUTER_BOUND ( 'NONE', #129, .T. ) ;
#234 = DIRECTION ( 'NONE',  ( 0.000000000000000000, 0.000000000000000000, 1.000000000000000000 ) ) ;
#235 = AXIS2_PLACEMENT_3D ( 'NONE', #213, #19, #276 ) ;
#236 = CARTESIAN_POINT ( 'NONE',  ( -2.477500000000000036, 0.000000000000000000, 0.2149999999999997746 ) ) ;
#237 = FACE_OUTER_BOUND ( 'NONE', #421, .T. ) ;
#238 = ORIENTED_EDGE ( 'NONE', *, *, #95, .T. ) ;
#239 = DIRECTION ( 'NONE',  ( -0.000000000000000000, -1.000000000000000000, -0.000000000000000000 ) ) ;
#240 = VERTEX_POINT ( 'NONE', #310 ) ;
#241 = EDGE_CURVE ( 'NONE', #159, #93, #22, .T. ) ;
#242 = FACE_OUTER_BOUND ( 'NONE', #317, .T. ) ;
#243 = AXIS2_PLACEMENT_3D ( 'NONE', #284, #92, #67 ) ;
#244 = ORIENTED_EDGE ( 'NONE', *, *, #120, .T. ) ;
#245 = CARTESIAN_POINT ( 'NONE',  ( 0.000000000000000000, 0.000000000000000000, 0.000000000000000000 ) ) ;
#246 = ORIENTED_EDGE ( 'NONE', *, *, #333, .F. ) ;
#247 = ORIENTED_EDGE ( 'NONE', *, *, #384, .T. ) ;
#248 = EDGE_CURVE ( 'NONE', #177, #55, #261, .T. ) ;
#249 = DIRECTION ( 'NONE',  ( 0.000000000000000000, 0.000000000000000000, -1.000000000000000000 ) ) ;
#250 = VECTOR ( 'NONE', #346, 100.0000000000000000 ) ;
#251 = DIRECTION ( 'NONE',  ( 0.000000000000000000, 0.000000000000000000, -1.000000000000000000 ) ) ;
#252 = CIRCLE ( 'NONE', #243, 2.854999999999999982 ) ;
#253 = FACE_OUTER_BOUND ( 'NONE', #215, .T. ) ;
#254 = ORIENTED_EDGE ( 'NONE', *, *, #115, .F. ) ;
#255 = CARTESIAN_POINT ( 'NONE',  ( 0.000000000000000000, 0.2999999999999999889, 0.000000000000000000 ) ) ;
#256 = ORIENTED_EDGE ( 'NONE', *, *, #241, .T. ) ;
#257 = EDGE_CURVE ( 'NONE', #338, #337, #15, .T. ) ;
#258 = CARTESIAN_POINT ( 'NONE',  ( 0.000000000000000000, 0.2999999999999999889, 0.000000000000000000 ) ) ;
#259 = DIRECTION ( 'NONE',  ( 0.000000000000000000, -0.000000000000000000, -1.000000000000000000 ) ) ;
#260 = AXIS2_PLACEMENT_3D ( 'NONE', #40, #362, #12 ) ;
#261 = CIRCLE ( 'NONE', #271, 2.854999999999999982 ) ;
#262 = ORIENTED_EDGE ( 'NONE', *, *, #102, .T. ) ;
#263 = ADVANCED_BREP_SHAPE_REPRESENTATION ( 'endcap', ( #303, #348 ), #324 ) ;
#264 = CYLINDRICAL_SURFACE ( 'NONE', #14, 0.2149999999999997746 ) ;
#265 = EDGE_CURVE ( 'NONE', #309, #93, #377, .T. ) ;
#266 = CARTESIAN_POINT ( 'NONE',  ( 2.477500000000000036, 2.399999999999999911, 0.2149999999999997746 ) ) ;
#267 = VECTOR ( 'NONE', #107, 100.0000000000000000 ) ;
#268 = CARTESIAN_POINT ( 'NONE',  ( 2.477500000000000036, 0.000000000000000000, -0.2149999999999997746 ) ) ;
#269 = DIRECTION ( 'NONE',  ( -0.000000000000000000, 1.000000000000000000, -0.000000000000000000 ) ) ;
#270 = DIRECTION ( 'NONE',  ( 0.000000000000000000, 0.000000000000000000, -1.000000000000000000 ) ) ;
#271 = AXIS2_PLACEMENT_3D ( 'NONE', #245, #178, #273 ) ;
#272 = CARTESIAN_POINT ( 'NONE',  ( 0.000000000000000000, 0.2999999999999999889, 0.000000000000000000 ) ) ;
#273 = DIRECTION ( 'NONE',  ( 0.000000000000000000, 0.000000000000000000, 1.000000000000000000 ) ) ;
#274 = EDGE_CURVE ( 'NONE', #117, #97, #74, .T. ) ;
#275 = CARTESIAN_POINT ( 'NONE',  ( 0.000000000000000000, 1.260000000000000009, -1.550000000000000044 ) ) ;
#276 = DIRECTION ( 'NONE',  ( 0.000000000000000000, 0.000000000000000000, -1.000000000000000000 ) ) ;
#277 = CIRCLE ( 'NONE', #197, 1.550000000000000044 ) ;
#278 = EDGE_LOOP ( 'NONE', ( #181, #311 ) ) ;
#279 = CIRCLE ( 'NONE', #21, 0.2149999999999997746 ) ;
#280 =( NAMED_UNIT ( * ) PLANE_ANGLE_UNIT ( ) SI_UNIT ( $, .RADIAN. ) );
#281 = EDGE_LOOP ( 'NONE', ( #114, #315, #35, #319 ) ) ;
#282 = DIRECTION ( 'NONE',  ( -0.000000000000000000, -1.000000000000000000, -0.000000000000000000 ) ) ;
#283 = ORIENTED_EDGE ( 'NONE', *, *, #374, .F. ) ;
#284 = CARTESIAN_POINT ( 'NONE',  ( 0.000000000000000000, 0.000000000000000000, 0.000000000000000000 ) ) ;
#285 = AXIS2_PLACEMENT_3D ( 'NONE', #13, #84, #381 ) ;
#286 = ORIENTED_EDGE ( 'NONE', *, *, #248, .T. ) ;
#287 = LINE ( 'NONE', #133, #250 ) ;
#288 = VERTEX_POINT ( 'NONE', #53 ) ;
#289 = ADVANCED_FACE ( 'NONE', ( #242 ), #145, .F. ) ;
#290 = DIRECTION ( 'NONE',  ( 0.000000000000000000, 0.000000000000000000, -1.000000000000000000 ) ) ;
#291 = FACE_BOUND ( 'NONE', #163, .T. ) ;
#292 = ORIENTED_EDGE ( 'NONE', *, *, #409, .T. ) ;
#293 = CLOSED_SHELL ( 'NONE', ( #391, #214, #8, #327, #34, #209, #312, #367, #397, #24, #306, #289, #130 ) ) ;
#294 = AXIS2_PLACEMENT_3D ( 'NONE', #75, #113, #383 ) ;
#295 = AXIS2_PLACEMENT_3D ( 'NONE', #44, #269, #169 ) ;
#296 = EDGE_CURVE ( 'NONE', #192, #240, #339, .T. ) ;
#297 = DIRECTION ( 'NONE',  ( -0.000000000000000000, 1.000000000000000000, -0.000000000000000000 ) ) ;
#298 = DIRECTION ( 'NONE',  ( 0.000000000000000000, 0.000000000000000000, 1.000000000000000000 ) ) ;
#299 = CARTESIAN_POINT ( 'NONE',  ( 0.000000000000000000, 0.000000000000000000, 0.000000000000000000 ) ) ;
#300 = VECTOR ( 'NONE', #104, 100.0000000000000000 ) ;
#301 = CARTESIAN_POINT ( 'NONE',  ( 3.496366611565692937E-16, 1.260000000000000009, 2.854999999999999982 ) ) ;
#302 = DIRECTION ( 'NONE',  ( 0.000000000000000000, 0.000000000000000000, -1.000000000000000000 ) ) ;
#303 = MANIFOLD_SOLID_BREP ( 'Mirror1', #293 ) ;
#304 = FACE_OUTER_BOUND ( 'NONE', #399, .T. ) ;
#305 = CIRCLE ( 'NONE', #314, 0.2149999999999997746 ) ;
#306 = ADVANCED_FACE ( 'NONE', ( #304 ), #47, .F. ) ;
#307 = VERTEX_POINT ( 'NONE', #275 ) ;
#308 = CYLINDRICAL_SURFACE ( 'NONE', #206, 2.854999999999999982 ) ;
#309 = VERTEX_POINT ( 'NONE', #313 ) ;
#310 = CARTESIAN_POINT ( 'NONE',  ( 2.571758278209441957E-16, 0.2999999999999999889, 2.100000000000000089 ) ) ;
#311 = ORIENTED_EDGE ( 'NONE', *, *, #241, .F. ) ;
#312 = ADVANCED_FACE ( 'NONE', ( #153, #414, #408, #111 ), #156, .T. ) ;
#313 = CARTESIAN_POINT ( 'NONE',  ( 2.477500000000000036, 1.260000000000000009, -0.2149999999999997746 ) ) ;
#314 = AXIS2_PLACEMENT_3D ( 'NONE', #230, #137, #229 ) ;
#315 = ORIENTED_EDGE ( 'NONE', *, *, #66, .T. ) ;
#316 = CARTESIAN_POINT ( 'NONE',  ( 0.000000000000000000, 0.2999999999999999889, 0.000000000000000000 ) ) ;
#317 = EDGE_LOOP ( 'NONE', ( #150, #262, #80, #58 ) ) ;
#318 = CARTESIAN_POINT ( 'NONE',  ( 0.000000000000000000, 0.2999999999999999889, 0.000000000000000000 ) ) ;
#319 = ORIENTED_EDGE ( 'NONE', *, *, #120, .F. ) ;
#320 = DIRECTION ( 'NONE',  ( 0.000000000000000000, 1.000000000000000000, 0.000000000000000000 ) ) ;
#321 = CIRCLE ( 'NONE', #226, 0.2149999999999997746 ) ;
#322 = ORIENTED_EDGE ( 'NONE', *, *, #66, .F. ) ;
#323 = EDGE_CURVE ( 'NONE', #240, #192, #81, .T. ) ;
#324 =( GEOMETRIC_REPRESENTATION_CONTEXT ( 3 ) GLOBAL_UNCERTAINTY_ASSIGNED_CONTEXT ( ( #41 ) ) GLOBAL_UNIT_ASSIGNED_CONTEXT ( ( #388, #280, #200 ) ) REPRESENTATION_CONTEXT ( 'NONE', 'WORKASPACE' ) );
#325 = ORIENTED_EDGE ( 'NONE', *, *, #333, .T. ) ;
#326 = DIRECTION ( 'NONE',  ( -0.000000000000000000, -1.000000000000000000, -0.000000000000000000 ) ) ;
#327 = ADVANCED_FACE ( 'NONE', ( #425 ), #220, .F. ) ;
#328 = LINE ( 'NONE', #332, #404 ) ;
#329 = AXIS2_PLACEMENT_3D ( 'NONE', #355, #59, #158 ) ;
#330 = DIRECTION ( 'NONE',  ( 0.000000000000000000, 1.000000000000000000, 0.000000000000000000 ) ) ;
#331 = DIRECTION ( 'NONE',  ( -0.000000000000000000, -1.000000000000000000, -0.000000000000000000 ) ) ;
#332 = CARTESIAN_POINT ( 'NONE',  ( -2.477500000000000036, 2.399999999999999911, -0.2149999999999997746 ) ) ;
#333 = EDGE_CURVE ( 'NONE', #97, #55, #350, .T. ) ;
#334 = AXIS2_PLACEMENT_3D ( 'NONE', #126, #358, #251 ) ;
#335 = CARTESIAN_POINT ( 'NONE',  ( -2.477500000000000036, 2.399999999999999911, 0.000000000000000000 ) ) ;
#336 = CARTESIAN_POINT ( 'NONE',  ( 0.000000000000000000, 1.260000000000000009, 0.000000000000000000 ) ) ;
#337 = VERTEX_POINT ( 'NONE', #30 ) ;
#338 = VERTEX_POINT ( 'NONE', #61 ) ;
#339 = CIRCLE ( 'NONE', #379, 2.100000000000000089 ) ;
#340 = DIRECTION ( 'NONE',  ( 0.000000000000000000, 1.000000000000000000, 0.000000000000000000 ) ) ;
#341 = VERTEX_POINT ( 'NONE', #161 ) ;
#342 = CARTESIAN_POINT ( 'NONE',  ( -2.477500000000000036, 1.260000000000000009, 0.000000000000000000 ) ) ;
#343 = ORIENTED_EDGE ( 'NONE', *, *, #86, .T. ) ;
#344 = SURFACE_SIDE_STYLE ('',( #121 ) ) ;
#345 = VERTEX_POINT ( 'NONE', #87 ) ;
#346 = DIRECTION ( 'NONE',  ( -0.000000000000000000, -1.000000000000000000, -0.000000000000000000 ) ) ;
#347 = AXIS2_PLACEMENT_3D ( 'NONE', #222, #320, #32 ) ;
#348 = AXIS2_PLACEMENT_3D ( 'NONE', #203, #103, #139 ) ;
#349 = ORIENTED_EDGE ( 'NONE', *, *, #43, .T. ) ;
#350 = LINE ( 'NONE', #353, #212 ) ;
#351 = ORIENTED_EDGE ( 'NONE', *, *, #352, .F. ) ;
#352 = EDGE_CURVE ( 'NONE', #187, #288, #36, .T. ) ;
#353 = CARTESIAN_POINT ( 'NONE',  ( 0.000000000000000000, 1.260000000000000009, -2.854999999999999982 ) ) ;
#354 = ORIENTED_EDGE ( 'NONE', *, *, #51, .F. ) ;
#355 = CARTESIAN_POINT ( 'NONE',  ( 0.000000000000000000, 0.000000000000000000, 0.000000000000000000 ) ) ;
#356 = CIRCLE ( 'NONE', #370, 0.2149999999999997746 ) ;
#357 = AXIS2_PLACEMENT_3D ( 'NONE', #70, #170, #298 ) ;
#358 = DIRECTION ( 'NONE',  ( -0.000000000000000000, -1.000000000000000000, -0.000000000000000000 ) ) ;
#359 = DIRECTION ( 'NONE',  ( 0.000000000000000000, 0.000000000000000000, -1.000000000000000000 ) ) ;
#360 = FACE_OUTER_BOUND ( 'NONE', #281, .T. ) ;
#361 = EDGE_CURVE ( 'NONE', #288, #187, #176, .T. ) ;
#362 = DIRECTION ( 'NONE',  ( 0.000000000000000000, 1.000000000000000000, 0.000000000000000000 ) ) ;
#363 = PRODUCT_CONTEXT ( 'NONE', #122, 'mechanical' ) ;
#364 = DIRECTION ( 'NONE',  ( 0.000000000000000000, 0.000000000000000000, -1.000000000000000000 ) ) ;
#365 = COLOUR_RGB ( '',0.7921568627450980005, 0.8196078431372548767, 0.9333333333333333481 ) ;
#366 = CARTESIAN_POINT ( 'NONE',  ( 0.000000000000000000, 1.260000000000000009, 0.000000000000000000 ) ) ;
#367 = ADVANCED_FACE ( 'NONE', ( #386, #128, #186, #25 ), #396, .F. ) ;
#368 = CARTESIAN_POINT ( 'NONE',  ( 1.898202538678397459E-16, 2.700000000000000178, 1.550000000000000044 ) ) ;
#369 = LINE ( 'NONE', #11, #267 ) ;
#370 = AXIS2_PLACEMENT_3D ( 'NONE', #6, #207, #202 ) ;
#371 = VECTOR ( 'NONE', #418, 100.0000000000000000 ) ;
#372 = VECTOR ( 'NONE', #331, 100.0000000000000000 ) ;
#373 = DIRECTION ( 'NONE',  ( 0.000000000000000000, 0.000000000000000000, -1.000000000000000000 ) ) ;
#374 = EDGE_CURVE ( 'NONE', #55, #177, #252, .T. ) ;
#375 = FILL_AREA_STYLE ('',( #411 ) ) ;
#376 = ORIENTED_EDGE ( 'NONE', *, *, #296, .F. ) ;
#377 = LINE ( 'NONE', #82, #371 ) ;
#378 = ORIENTED_EDGE ( 'NONE', *, *, #172, .T. ) ;
#379 = AXIS2_PLACEMENT_3D ( 'NONE', #272, #50, #18 ) ;
#380 = PRODUCT_DEFINITION_FORMATION_WITH_SPECIFIED_SOURCE ( 'ANY', '', #162, .NOT_KNOWN. ) ;
#381 = DIRECTION ( 'NONE',  ( 0.000000000000000000, 0.000000000000000000, -1.000000000000000000 ) ) ;
#382 = EDGE_LOOP ( 'NONE', ( #426, #3 ) ) ;
#383 = DIRECTION ( 'NONE',  ( 0.000000000000000000, 0.000000000000000000, -1.000000000000000000 ) ) ;
#384 = EDGE_CURVE ( 'NONE', #240, #387, #287, .T. ) ;
#385 = EDGE_LOOP ( 'NONE', ( #283, #395 ) ) ;
#386 = FACE_BOUND ( 'NONE', #26, .T. ) ;
#387 = VERTEX_POINT ( 'NONE', #427 ) ;
#388 =( LENGTH_UNIT ( ) NAMED_UNIT ( * ) SI_UNIT ( .CENTI., .METRE. ) );
#389 = CIRCLE ( 'NONE', #357, 1.550000000000000044 ) ;
#390 = EDGE_LOOP ( 'NONE', ( #23, #225, #91, #221 ) ) ;
#391 = ADVANCED_FACE ( 'NONE', ( #392 ), #194, .F. ) ;
#392 = FACE_OUTER_BOUND ( 'NONE', #77, .T. ) ;
#393 = ORIENTED_EDGE ( 'NONE', *, *, #323, .F. ) ;
#394 = LINE ( 'NONE', #218, #10 ) ;
#395 = ORIENTED_EDGE ( 'NONE', *, *, #248, .F. ) ;
#396 = PLANE ( 'NONE',  #329 ) ;
#397 = ADVANCED_FACE ( 'NONE', ( #253 ), #131, .F. ) ;
#398 = CIRCLE ( 'NONE', #151, 2.100000000000000089 ) ;
#399 = EDGE_LOOP ( 'NONE', ( #322, #378, #244, #157 ) ) ;
#400 = AXIS2_PLACEMENT_3D ( 'NONE', #174, #403, #138 ) ;
#401 = ORIENTED_EDGE ( 'NONE', *, *, #141, .F. ) ;
#402 = LINE ( 'NONE', #368, #5 ) ;
#403 = DIRECTION ( 'NONE',  ( 0.000000000000000000, -1.000000000000000000, 0.000000000000000000 ) ) ;
#404 = VECTOR ( 'NONE', #173, 100.0000000000000000 ) ;
#405 = APPLICATION_PROTOCOL_DEFINITION ( 'draft international standard', 'automotive_design', 1998, #147 ) ;
#406 = DIRECTION ( 'NONE',  ( 0.000000000000000000, 0.000000000000000000, -1.000000000000000000 ) ) ;
#407 = DIRECTION ( 'NONE',  ( -0.000000000000000000, -1.000000000000000000, -0.000000000000000000 ) ) ;
#408 = FACE_BOUND ( 'NONE', #415, .T. ) ;
#409 = EDGE_CURVE ( 'NONE', #192, #28, #394, .T. ) ;
#410 = AXIS2_PLACEMENT_3D ( 'NONE', #76, #211, #175 ) ;
#411 = FILL_AREA_STYLE_COLOUR ( '', #365 ) ;
#412 =( NAMED_UNIT ( * ) SI_UNIT ( $, .STERADIAN. ) SOLID_ANGLE_UNIT ( ) );
#413 = ORIENTED_EDGE ( 'NONE', *, *, #296, .T. ) ;
#414 = FACE_BOUND ( 'NONE', #31, .T. ) ;
#415 = EDGE_LOOP ( 'NONE', ( #155, #60 ) ) ;
#416 =( GEOMETRIC_REPRESENTATION_CONTEXT ( 3 ) GLOBAL_UNCERTAINTY_ASSIGNED_CONTEXT ( ( #154 ) ) GLOBAL_UNIT_ASSIGNED_CONTEXT ( ( #45, #16, #412 ) ) REPRESENTATION_CONTEXT ( 'NONE', 'WORKASPACE' ) );
#417 = EDGE_CURVE ( 'NONE', #93, #159, #49, .T. ) ;
#418 = DIRECTION ( 'NONE',  ( -0.000000000000000000, -1.000000000000000000, -0.000000000000000000 ) ) ;
#419 = ORIENTED_EDGE ( 'NONE', *, *, #323, .T. ) ;
#420 = DIRECTION ( 'NONE',  ( 0.000000000000000000, 0.000000000000000000, -1.000000000000000000 ) ) ;
#421 = EDGE_LOOP ( 'NONE', ( #132, #349, #256, #136 ) ) ;
#422 = DIRECTION ( 'NONE',  ( -0.000000000000000000, -1.000000000000000000, -0.000000000000000000 ) ) ;
#423 = CYLINDRICAL_SURFACE ( 'NONE', #334, 1.550000000000000044 ) ;
#424 = AXIS2_PLACEMENT_3D ( 'NONE', #255, #125, #420 ) ;
#425 = FACE_OUTER_BOUND ( 'NONE', #62, .T. ) ;
#426 = ORIENTED_EDGE ( 'NONE', *, *, #78, .T. ) ;
#427 = CARTESIAN_POINT ( 'NONE',  ( 2.571758278209441957E-16, 0.000000000000000000, 2.100000000000000089 ) ) ;
ENDSEC;
END-ISO-10303-21;
