ISO-10303-21;
HEADER;
FILE_DESCRIPTION (( 'STEP AP214' ),
    '1' );
FILE_NAME ('microprints.STEP',
    '2026-02-16T09:23:28',
    ( '' ),
    ( '' ),
    'SwSTEP 2.0',
    'SolidWorks 2025',
    '' );
FILE_SCHEMA (( 'AUTOMOTIVE_DESIGN' ));
ENDSEC;

DATA;
#1 = ORIENTED_EDGE ( 'NONE', *, *, #423, .F. ) ;
#2 = ADVANCED_FACE ( 'NONE', ( #351 ), #146, .T. ) ;
#3 = FACE_BOUND ( 'NONE', #250, .T. ) ;
#4 = CIRCLE ( 'NONE', #121, 3.154999999999999361 ) ;
#5 = APPLICATION_PROTOCOL_DEFINITION ( 'draft international standard', 'automotive_design', 1998, #89 ) ;
#6 = CARTESIAN_POINT ( 'NONE',  ( 5.237677481422686299, 0.000000000000000000, 1.045333347611544283 ) ) ;
#7 = CARTESIAN_POINT ( 'NONE',  ( -4.399151958484772251, 0.2500000000000000000, -1.209868885014235174 ) ) ;
#8 = CIRCLE ( 'NONE', #466, 3.154999999999999361 ) ;
#9 = ORIENTED_EDGE ( 'NONE', *, *, #443, .F. ) ;
#10 = EDGE_LOOP ( 'NONE', ( #489, #373 ) ) ;
#11 = LINE ( 'NONE', #304, #56 ) ;
#12 = EDGE_LOOP ( 'NONE', ( #437, #340, #9, #231 ) ) ;
#13 = ADVANCED_FACE ( 'NONE', ( #511, #40 ), #153, .F. ) ;
#14 = CARTESIAN_POINT ( 'NONE',  ( 5.237677481422686299, 0.2500000000000000000, -0.9296666523884561384 ) ) ;
#15 = ORIENTED_EDGE ( 'NONE', *, *, #67, .T. ) ;
#16 = AXIS2_PLACEMENT_3D ( 'NONE', #127, #171, #222 ) ;
#17 = CIRCLE ( 'NONE', #468, 1.949999999999999956 ) ;
#18 = CARTESIAN_POINT ( 'NONE',  ( 3.475912721555390661, 0.000000000000000000, -2.993448228233022590 ) ) ;
#19 = ORIENTED_EDGE ( 'NONE', *, *, #102, .T. ) ;
#20 = DIRECTION ( 'NONE',  ( -0.7071067811865615615, 0.000000000000000000, -0.7071067811865334729 ) ) ;
#21 = CARTESIAN_POINT ( 'NONE',  ( 5.237677481422686299, 0.2500000000000000000, -0.9296666523884561384 ) ) ;
#22 = ADVANCED_FACE ( 'NONE', ( #156 ), #200, .F. ) ;
#23 = SURFACE_STYLE_USAGE ( .BOTH. , #140 ) ;
#24 = AXIS2_PLACEMENT_3D ( 'NONE', #276, #36, #470 ) ;
#25 = DIRECTION ( 'NONE',  ( 0.000000000000000000, 0.000000000000000000, 1.000000000000000000 ) ) ;
#26 = CARTESIAN_POINT ( 'NONE',  ( 3.652089197542101928, 0.000000000000000000, -2.993448228233022590 ) ) ;
#27 = DIRECTION ( 'NONE',  ( 0.8221921916437702205, 0.000000000000000000, -0.5692099788303203178 ) ) ;
#28 = EDGE_LOOP ( 'NONE', ( #165, #130, #493, #353 ) ) ;
#29 = DIRECTION ( 'NONE',  ( 0.000000000000000000, 1.000000000000000000, 0.000000000000000000 ) ) ;
#30 = EDGE_CURVE ( 'NONE', #91, #264, #202, .T. ) ;
#31 = ORIENTED_EDGE ( 'NONE', *, *, #408, .F. ) ;
#32 = DIRECTION ( 'NONE',  ( 0.000000000000000000, 1.000000000000000000, 0.000000000000000000 ) ) ;
#33 = AXIS2_PLACEMENT_3D ( 'NONE', #393, #32, #152 ) ;
#34 = ORIENTED_EDGE ( 'NONE', *, *, #240, .F. ) ;
#35 = AXIS2_PLACEMENT_3D ( 'NONE', #57, #20, #381 ) ;
#36 = DIRECTION ( 'NONE',  ( 0.000000000000000000, 1.000000000000000000, 0.000000000000000000 ) ) ;
#37 = VERTEX_POINT ( 'NONE', #212 ) ;
#38 = MANIFOLD_SOLID_BREP ( 'Boss-Extrude2', #328 ) ;
#39 = ADVANCED_FACE ( 'NONE', ( #122 ), #245, .T. ) ;
#40 = FACE_BOUND ( 'NONE', #133, .T. ) ;
#41 = CYLINDRICAL_SURFACE ( 'NONE', #246, 3.154999999999999361 ) ;
#42 = DIRECTION ( 'NONE',  ( 0.000000000000000000, 0.000000000000000000, 1.000000000000000000 ) ) ;
#43 = LINE ( 'NONE', #447, #434 ) ;
#44 = CARTESIAN_POINT ( 'NONE',  ( -4.399151958484772251, 0.2500000000000000000, -1.209868885014235174 ) ) ;
#45 = EDGE_CURVE ( 'NONE', #238, #259, #43, .T. ) ;
#46 = ORIENTED_EDGE ( 'NONE', *, *, #166, .F. ) ;
#47 = DIRECTION ( 'NONE',  ( -0.000000000000000000, -1.000000000000000000, -0.000000000000000000 ) ) ;
#48 = VERTEX_POINT ( 'NONE', #6 ) ;
#49 = CYLINDRICAL_SURFACE ( 'NONE', #103, 3.154999999999999361 ) ;
#50 = ORIENTED_EDGE ( 'NONE', *, *, #267, .T. ) ;
#51 = ADVANCED_FACE ( 'NONE', ( #286, #3 ), #438, .T. ) ;
#52 = LINE ( 'NONE', #218, #128 ) ;
#53 = ORIENTED_EDGE ( 'NONE', *, *, #77, .F. ) ;
#54 = FACE_OUTER_BOUND ( 'NONE', #336, .T. ) ;
#55 = ORIENTED_EDGE ( 'NONE', *, *, #248, .F. ) ;
#56 = VECTOR ( 'NONE', #413, 100.0000000000000000 ) ;
#57 = CARTESIAN_POINT ( 'NONE',  ( 2.821542953604677884, 0.2500000000000000000, -2.162901984295565239 ) ) ;
#58 = CARTESIAN_POINT ( 'NONE',  ( 5.237677481422687187, 0.2500000000000000000, 2.225333347611543111 ) ) ;
#59 = ADVANCED_FACE ( 'NONE', ( #401 ), #49, .T. ) ;
#60 = CARTESIAN_POINT ( 'NONE',  ( -4.399151958484772251, 0.2500000000000000000, -1.209868885014235174 ) ) ;
#61 = DIRECTION ( 'NONE',  ( 0.000000000000000000, 1.000000000000000000, 0.000000000000000000 ) ) ;
#62 = DIRECTION ( 'NONE',  ( 0.000000000000000000, 0.000000000000000000, -1.000000000000000000 ) ) ;
#63 = CLOSED_SHELL ( 'NONE', ( #492, #453, #51, #13, #59, #285 ) ) ;
#64 = CARTESIAN_POINT ( 'NONE',  ( -4.399151958484772251, 0.2500000000000000000, -1.209868885014235174 ) ) ;
#65 = CARTESIAN_POINT ( 'NONE',  ( -4.399151958484772251, 0.000000000000000000, -4.364868885014234756 ) ) ;
#66 = ORIENTED_EDGE ( 'NONE', *, *, #290, .F. ) ;
#67 = EDGE_CURVE ( 'NONE', #371, #264, #482, .T. ) ;
#68 = CARTESIAN_POINT ( 'NONE',  ( 5.237677481422686299, 0.2500000000000000000, -4.084666652388455610 ) ) ;
#69 = CARTESIAN_POINT ( 'NONE',  ( 2.821542953604677884, 0.000000000000000000, -2.540423004267129858 ) ) ;
#70 = ORIENTED_EDGE ( 'NONE', *, *, #109, .F. ) ;
#71 = PRODUCT_CONTEXT ( 'NONE', #89, 'mechanical' ) ;
#72 = CARTESIAN_POINT ( 'NONE',  ( 5.237677481422686299, 0.2500000000000000000, -0.9296666523884561384 ) ) ;
#73 = ORIENTED_EDGE ( 'NONE', *, *, #342, .F. ) ;
#74 = LINE ( 'NONE', #237, #483 ) ;
#75 = VECTOR ( 'NONE', #422, 100.0000000000000000 ) ;
#76 = VERTEX_POINT ( 'NONE', #363 ) ;
#77 = EDGE_CURVE ( 'NONE', #114, #292, #407, .T. ) ;
#78 = EDGE_LOOP ( 'NONE', ( #277, #364 ) ) ;
#79 = DIRECTION ( 'NONE',  ( 0.000000000000000000, 0.000000000000000000, -1.000000000000000000 ) ) ;
#80 = PRODUCT_RELATED_PRODUCT_CATEGORY ( 'part', '', ( #247 ) ) ;
#81 =( NAMED_UNIT ( * ) SI_UNIT ( $, .STERADIAN. ) SOLID_ANGLE_UNIT ( ) );
#82 = ORIENTED_EDGE ( 'NONE', *, *, #260, .T. ) ;
#83 = CARTESIAN_POINT ( 'NONE',  ( -4.399151958484772251, 0.2500000000000000000, -3.159868885014235129 ) ) ;
#84 = EDGE_LOOP ( 'NONE', ( #93, #228, #455, #294 ) ) ;
#85 = CARTESIAN_POINT ( 'NONE',  ( 5.237677481422686299, 0.2500000000000000000, 1.045333347611544283 ) ) ;
#86 = VECTOR ( 'NONE', #329, 100.0000000000000000 ) ;
#87 = EDGE_CURVE ( 'NONE', #48, #414, #464, .T. ) ;
#88 = ORIENTED_EDGE ( 'NONE', *, *, #248, .T. ) ;
#89 = APPLICATION_CONTEXT ( 'automotive_design' ) ;
#90 = DIRECTION ( 'NONE',  ( 0.000000000000000000, 1.000000000000000000, 0.000000000000000000 ) ) ;
#91 = VERTEX_POINT ( 'NONE', #444 ) ;
#92 = SURFACE_STYLE_FILL_AREA ( #449 ) ;
#93 = ORIENTED_EDGE ( 'NONE', *, *, #233, .F. ) ;
#94 = LINE ( 'NONE', #380, #456 ) ;
#95 = ORIENTED_EDGE ( 'NONE', *, *, #395, .T. ) ;
#96 = AXIS2_PLACEMENT_3D ( 'NONE', #469, #424, #389 ) ;
#97 = DIRECTION ( 'NONE',  ( -0.000000000000000000, -1.000000000000000000, -0.000000000000000000 ) ) ;
#98 = DIRECTION ( 'NONE',  ( 0.000000000000000000, 0.000000000000000000, 1.000000000000000000 ) ) ;
#99 = CYLINDRICAL_SURFACE ( 'NONE', #131, 3.154999999999999361 ) ;
#100 = CARTESIAN_POINT ( 'NONE',  ( 2.821542953604677884, 0.000000000000000000, -2.162901984295565239 ) ) ;
#101 = DIRECTION ( 'NONE',  ( 0.000000000000000000, -0.000000000000000000, 1.000000000000000000 ) ) ;
#102 = EDGE_CURVE ( 'NONE', #37, #91, #485, .T. ) ;
#103 = AXIS2_PLACEMENT_3D ( 'NONE', #7, #251, #487 ) ;
#104 = CYLINDRICAL_SURFACE ( 'NONE', #346, 1.949999999999999956 ) ;
#105 = ORIENTED_EDGE ( 'NONE', *, *, #30, .F. ) ;
#106 = LINE ( 'NONE', #221, #75 ) ;
#107 = LINE ( 'NONE', #505, #272 ) ;
#108 = EDGE_LOOP ( 'NONE', ( #406, #297, #426, #1 ) ) ;
#109 = EDGE_CURVE ( 'NONE', #123, #48, #125, .T. ) ;
#110 = PLANE ( 'NONE',  #396 ) ;
#111 = CARTESIAN_POINT ( 'NONE',  ( -4.399151958484772251, 0.000000000000000000, -1.209868885014235174 ) ) ;
#112 = DIRECTION ( 'NONE',  ( 1.000000000000000000, 0.000000000000000000, 0.000000000000000000 ) ) ;
#113 = AXIS2_PLACEMENT_3D ( 'NONE', #425, #429, #432 ) ;
#114 = VERTEX_POINT ( 'NONE', #411 ) ;
#115 = AXIS2_PLACEMENT_3D ( 'NONE', #242, #154, #201 ) ;
#116 = APPLICATION_CONTEXT ( 'automotive_design' ) ;
#117 = CARTESIAN_POINT ( 'NONE',  ( -4.399151958484772251, 0.000000000000000000, -1.209868885014235174 ) ) ;
#118 = EDGE_CURVE ( 'NONE', #76, #299, #52, .T. ) ;
#119 = ORIENTED_EDGE ( 'NONE', *, *, #187, .F. ) ;
#120 = DIRECTION ( 'NONE',  ( 0.000000000000000000, -0.000000000000000000, 1.000000000000000000 ) ) ;
#121 = AXIS2_PLACEMENT_3D ( 'NONE', #183, #298, #98 ) ;
#122 = FACE_OUTER_BOUND ( 'NONE', #289, .T. ) ;
#123 = VERTEX_POINT ( 'NONE', #341 ) ;
#124 = PRODUCT_DEFINITION ( 'UNKNOWN', '', #274, #258 ) ;
#125 = LINE ( 'NONE', #85, #243 ) ;
#126 = VERTEX_POINT ( 'NONE', #300 ) ;
#127 = CARTESIAN_POINT ( 'NONE',  ( 2.821542953604677884, 0.2500000000000000000, -2.540423004267129858 ) ) ;
#128 = VECTOR ( 'NONE', #379, 100.0000000000000000 ) ;
#129 = UNCERTAINTY_MEASURE_WITH_UNIT (LENGTH_MEASURE( 1.000000000000000082E-05 ), #509, 'distance_accuracy_value', 'NONE');
#130 = ORIENTED_EDGE ( 'NONE', *, *, #369, .F. ) ;
#131 = AXIS2_PLACEMENT_3D ( 'NONE', #64, #97, #62 ) ;
#132 = CARTESIAN_POINT ( 'NONE',  ( 2.821542953604677884, 0.2500000000000000000, -2.162901984295565239 ) ) ;
#133 = EDGE_LOOP ( 'NONE', ( #488, #234 ) ) ;
#134 = FILL_AREA_STYLE_COLOUR ( '', #339 ) ;
#135 = ORIENTED_EDGE ( 'NONE', *, *, #404, .F. ) ;
#136 = CARTESIAN_POINT ( 'NONE',  ( 5.237677481422687187, 0.2500000000000000000, 2.225333347611543111 ) ) ;
#137 = AXIS2_PLACEMENT_3D ( 'NONE', #311, #433, #318 ) ;
#138 = AXIS2_PLACEMENT_3D ( 'NONE', #229, #386, #378 ) ;
#139 = LINE ( 'NONE', #306, #435 ) ;
#140 = SURFACE_SIDE_STYLE ('',( #92 ) ) ;
#141 = CARTESIAN_POINT ( 'NONE',  ( 3.475912721555390661, 0.2500000000000000000, -2.993448228233022590 ) ) ;
#142 = DIRECTION ( 'NONE',  ( 0.5692099788303204289, -0.000000000000000000, 0.8221921916437703315 ) ) ;
#143 = ADVANCED_FACE ( 'NONE', ( #54 ), #169, .T. ) ;
#144 = DIRECTION ( 'NONE',  ( -0.8221921916437702205, 0.000000000000000000, 0.5692099788303203178 ) ) ;
#145 = CARTESIAN_POINT ( 'NONE',  ( 3.652089197542101928, 0.2500000000000000000, -2.993448228233022590 ) ) ;
#146 = CYLINDRICAL_SURFACE ( 'NONE', #137, 3.154999999999999361 ) ;
#147 = STYLED_ITEM ( 'NONE', ( #496 ), #214 ) ;
#148 = CYLINDRICAL_SURFACE ( 'NONE', #244, 1.949999999999999956 ) ;
#149 = DIRECTION ( 'NONE',  ( 0.000000000000000000, 0.000000000000000000, -1.000000000000000000 ) ) ;
#150 = ORIENTED_EDGE ( 'NONE', *, *, #479, .F. ) ;
#151 =( NAMED_UNIT ( * ) PLANE_ANGLE_UNIT ( ) SI_UNIT ( $, .RADIAN. ) );
#152 = DIRECTION ( 'NONE',  ( 0.000000000000000000, 0.000000000000000000, 1.000000000000000000 ) ) ;
#153 = PLANE ( 'NONE',  #161 ) ;
#154 = DIRECTION ( 'NONE',  ( 0.000000000000000000, 1.000000000000000000, 0.000000000000000000 ) ) ;
#155 = DIRECTION ( 'NONE',  ( 0.000000000000000000, 1.000000000000000000, 0.000000000000000000 ) ) ;
#156 = FACE_OUTER_BOUND ( 'NONE', #330, .T. ) ;
#157 =( GEOMETRIC_REPRESENTATION_CONTEXT ( 3 ) GLOBAL_UNCERTAINTY_ASSIGNED_CONTEXT ( ( #335 ) ) GLOBAL_UNIT_ASSIGNED_CONTEXT ( ( #499, #181, #334 ) ) REPRESENTATION_CONTEXT ( 'NONE', 'WORKASPACE' ) );
#158 = CARTESIAN_POINT ( 'NONE',  ( -4.399151958484772251, 0.2500000000000000000, -1.209868885014235174 ) ) ;
#159 = CARTESIAN_POINT ( 'NONE',  ( 0.000000000000000000, 0.000000000000000000, 0.000000000000000000 ) ) ;
#160 = DIRECTION ( 'NONE',  ( 1.000000000000000000, 0.000000000000000000, -0.000000000000000000 ) ) ;
#161 = AXIS2_PLACEMENT_3D ( 'NONE', #111, #360, #281 ) ;
#162 = CARTESIAN_POINT ( 'NONE',  ( 2.821542953604677884, 0.2500000000000000000, -2.540423004267129858 ) ) ;
#163 = AXIS2_PLACEMENT_3D ( 'NONE', #421, #494, #457 ) ;
#164 = AXIS2_PLACEMENT_3D ( 'NONE', #159, #403, #112 ) ;
#165 = ORIENTED_EDGE ( 'NONE', *, *, #118, .F. ) ;
#166 = EDGE_CURVE ( 'NONE', #486, #279, #94, .T. ) ;
#167 = SURFACE_STYLE_FILL_AREA ( #367 ) ;
#168 = EDGE_LOOP ( 'NONE', ( #193, #88, #19, #150 ) ) ;
#169 = PLANE ( 'NONE',  #16 ) ;
#170 = ORIENTED_EDGE ( 'NONE', *, *, #385, .F. ) ;
#171 = DIRECTION ( 'NONE',  ( 1.000000000000000000, 0.000000000000000000, 0.000000000000000000 ) ) ;
#172 = AXIS2_PLACEMENT_3D ( 'NONE', #158, #325, #323 ) ;
#173 = CIRCLE ( 'NONE', #33, 3.154999999999999361 ) ;
#174 = VECTOR ( 'NONE', #316, 100.0000000000000000 ) ;
#175 = ORIENTED_EDGE ( 'NONE', *, *, #350, .F. ) ;
#176 = CIRCLE ( 'NONE', #376, 1.975000000000000311 ) ;
#177 = DIRECTION ( 'NONE',  ( -0.8221921916437702205, 0.000000000000000000, 0.5692099788303203178 ) ) ;
#178 = EDGE_CURVE ( 'NONE', #123, #179, #440, .T. ) ;
#179 = VERTEX_POINT ( 'NONE', #375 ) ;
#180 = CARTESIAN_POINT ( 'NONE',  ( 5.237677481422686299, 0.000000000000000000, -2.904666652388456782 ) ) ;
#181 =( NAMED_UNIT ( * ) PLANE_ANGLE_UNIT ( ) SI_UNIT ( $, .RADIAN. ) );
#182 = CARTESIAN_POINT ( 'NONE',  ( 2.821542953604677884, 0.000000000000000000, -2.162901984295565239 ) ) ;
#183 = CARTESIAN_POINT ( 'NONE',  ( -4.399151958484772251, 0.2500000000000000000, -1.209868885014235174 ) ) ;
#184 = STYLED_ITEM ( 'NONE', ( #291 ), #38 ) ;
#185 = VECTOR ( 'NONE', #451, 100.0000000000000142 ) ;
#186 = VECTOR ( 'NONE', #226, 100.0000000000000000 ) ;
#187 = EDGE_CURVE ( 'NONE', #238, #256, #454, .T. ) ;
#188 = FACE_OUTER_BOUND ( 'NONE', #388, .T. ) ;
#189 = DIRECTION ( 'NONE',  ( -0.000000000000000000, -1.000000000000000000, -0.000000000000000000 ) ) ;
#190 = CARTESIAN_POINT ( 'NONE',  ( -4.399151958484772251, 0.2500000000000000000, -1.209868885014235174 ) ) ;
#191 = ORIENTED_EDGE ( 'NONE', *, *, #443, .T. ) ;
#192 = DIRECTION ( 'NONE',  ( 0.000000000000000000, 1.000000000000000000, 0.000000000000000000 ) ) ;
#193 = ORIENTED_EDGE ( 'NONE', *, *, #67, .F. ) ;
#194 = PRESENTATION_LAYER_ASSIGNMENT (  '', '', ( #147 ) ) ;
#195 = FACE_OUTER_BOUND ( 'NONE', #442, .T. ) ;
#196 = FACE_OUTER_BOUND ( 'NONE', #10, .T. ) ;
#197 = VERTEX_POINT ( 'NONE', #58 ) ;
#198 = ORIENTED_EDGE ( 'NONE', *, *, #460, .F. ) ;
#199 = CARTESIAN_POINT ( 'NONE',  ( 5.237677481422686299, 0.2500000000000000000, -0.9296666523884561384 ) ) ;
#200 = CYLINDRICAL_SURFACE ( 'NONE', #410, 1.975000000000000311 ) ;
#201 = DIRECTION ( 'NONE',  ( 0.000000000000000000, 0.000000000000000000, 1.000000000000000000 ) ) ;
#202 = CIRCLE ( 'NONE', #271, 1.949999999999999956 ) ;
#203 = EDGE_CURVE ( 'NONE', #179, #123, #210, .T. ) ;
#204 = DIRECTION ( 'NONE',  ( -0.000000000000000000, -1.000000000000000000, -0.000000000000000000 ) ) ;
#205 = DIRECTION ( 'NONE',  ( 0.000000000000000000, 1.000000000000000000, 0.000000000000000000 ) ) ;
#206 = CARTESIAN_POINT ( 'NONE',  ( -4.399151958484772251, 0.2500000000000000000, 0.7401311149857647820 ) ) ;
#207 = EDGE_CURVE ( 'NONE', #197, #284, #384, .T. ) ;
#208 = VERTEX_POINT ( 'NONE', #263 ) ;
#209 = DIRECTION ( 'NONE',  ( 0.000000000000000000, 1.000000000000000000, 0.000000000000000000 ) ) ;
#210 = CIRCLE ( 'NONE', #374, 1.975000000000000311 ) ;
#211 = EDGE_LOOP ( 'NONE', ( #198, #507 ) ) ;
#212 = CARTESIAN_POINT ( 'NONE',  ( -4.399151958484772251, 0.2500000000000000000, -3.159868885014235129 ) ) ;
#213 = ORIENTED_EDGE ( 'NONE', *, *, #404, .T. ) ;
#214 = MANIFOLD_SOLID_BREP ( 'Boss-Extrude1', #63 ) ;
#215 = DIRECTION ( 'NONE',  ( 0.000000000000000000, 1.000000000000000000, 0.000000000000000000 ) ) ;
#216 = ORIENTED_EDGE ( 'NONE', *, *, #223, .T. ) ;
#217 = EDGE_CURVE ( 'NONE', #197, #126, #370, .T. ) ;
#218 = CARTESIAN_POINT ( 'NONE',  ( -4.399151958484771363, 0.2500000000000000000, 1.945131114985764187 ) ) ;
#219 = VECTOR ( 'NONE', #491, 100.0000000000000000 ) ;
#220 = ORIENTED_EDGE ( 'NONE', *, *, #423, .T. ) ;
#221 = CARTESIAN_POINT ( 'NONE',  ( 3.652089197542101928, 0.2500000000000000000, -2.993448228233022590 ) ) ;
#222 = DIRECTION ( 'NONE',  ( 0.000000000000000000, 0.000000000000000000, -1.000000000000000000 ) ) ;
#223 = EDGE_CURVE ( 'NONE', #292, #259, #11, .T. ) ;
#224 = CARTESIAN_POINT ( 'NONE',  ( -4.399151958484772251, 0.000000000000000000, -1.209868885014235174 ) ) ;
#225 = PLANE ( 'NONE',  #305 ) ;
#226 = DIRECTION ( 'NONE',  ( -0.000000000000000000, -1.000000000000000000, -0.000000000000000000 ) ) ;
#227 = PLANE ( 'NONE',  #417 ) ;
#228 = ORIENTED_EDGE ( 'NONE', *, *, #313, .F. ) ;
#229 = CARTESIAN_POINT ( 'NONE',  ( -4.399151958484772251, 0.2500000000000000000, -1.209868885014235174 ) ) ;
#230 = FACE_OUTER_BOUND ( 'NONE', #416, .T. ) ;
#231 = ORIENTED_EDGE ( 'NONE', *, *, #260, .F. ) ;
#232 = CARTESIAN_POINT ( 'NONE',  ( 3.475912721555390661, 0.2500000000000000000, -2.993448228233022590 ) ) ;
#233 = EDGE_CURVE ( 'NONE', #279, #292, #257, .T. ) ;
#234 = ORIENTED_EDGE ( 'NONE', *, *, #479, .T. ) ;
#235 = PRESENTATION_LAYER_ASSIGNMENT (  '', '', ( #184 ) ) ;
#236 = ORIENTED_EDGE ( 'NONE', *, *, #313, .T. ) ;
#237 = CARTESIAN_POINT ( 'NONE',  ( -4.399151958484772251, 0.2500000000000000000, -4.364868885014234756 ) ) ;
#238 = VERTEX_POINT ( 'NONE', #132 ) ;
#239 = EDGE_LOOP ( 'NONE', ( #191, #359 ) ) ;
#240 = EDGE_CURVE ( 'NONE', #76, #208, #4, .T. ) ;
#241 =( NAMED_UNIT ( * ) PLANE_ANGLE_UNIT ( ) SI_UNIT ( $, .RADIAN. ) );
#242 = CARTESIAN_POINT ( 'NONE',  ( 5.237677481422686299, 0.2500000000000000000, -0.9296666523884561384 ) ) ;
#243 = VECTOR ( 'NONE', #254, 100.0000000000000000 ) ;
#244 = AXIS2_PLACEMENT_3D ( 'NONE', #60, #314, #512 ) ;
#245 = PLANE ( 'NONE',  #365 ) ;
#246 = AXIS2_PLACEMENT_3D ( 'NONE', #199, #355, #481 ) ;
#247 = PRODUCT ( 'microprints', 'microprints', '', ( #71 ) ) ;
#248 = EDGE_CURVE ( 'NONE', #371, #37, #282, .T. ) ;
#249 = FILL_AREA_STYLE_COLOUR ( '', #253 ) ;
#250 = EDGE_LOOP ( 'NONE', ( #135, #55 ) ) ;
#251 = DIRECTION ( 'NONE',  ( -0.000000000000000000, -1.000000000000000000, -0.000000000000000000 ) ) ;
#252 = ORIENTED_EDGE ( 'NONE', *, *, #87, .F. ) ;
#253 = COLOUR_RGB ( '',0.7921568627450980005, 0.8196078431372548767, 0.9333333333333333481 ) ;
#254 = DIRECTION ( 'NONE',  ( -0.000000000000000000, -1.000000000000000000, -0.000000000000000000 ) ) ;
#255 = MECHANICAL_DESIGN_GEOMETRIC_PRESENTATION_REPRESENTATION (  '', ( #147 ), #157 ) ;
#256 = VERTEX_POINT ( 'NONE', #266 ) ;
#257 = LINE ( 'NONE', #18, #354 ) ;
#258 = PRODUCT_DEFINITION_CONTEXT ( 'detailed design', #116, 'design' ) ;
#259 = VERTEX_POINT ( 'NONE', #100 ) ;
#260 = EDGE_CURVE ( 'NONE', #179, #414, #269, .T. ) ;
#261 = DIRECTION ( 'NONE',  ( -1.000000000000000000, 0.000000000000000000, 0.000000000000000000 ) ) ;
#262 = ORIENTED_EDGE ( 'NONE', *, *, #45, .F. ) ;
#263 = CARTESIAN_POINT ( 'NONE',  ( -4.399151958484772251, 0.2500000000000000000, -4.364868885014234756 ) ) ;
#264 = VERTEX_POINT ( 'NONE', #283 ) ;
#265 = CARTESIAN_POINT ( 'NONE',  ( 5.237677481422686299, 0.2500000000000000000, -0.9296666523884561384 ) ) ;
#266 = CARTESIAN_POINT ( 'NONE',  ( 3.652089197542101928, 0.2500000000000000000, -2.993448228233022590 ) ) ;
#267 = EDGE_CURVE ( 'NONE', #299, #315, #427, .T. ) ;
#268 = DIRECTION ( 'NONE',  ( 0.000000000000000000, 1.000000000000000000, 0.000000000000000000 ) ) ;
#269 = LINE ( 'NONE', #382, #506 ) ;
#270 = DIRECTION ( 'NONE',  ( -0.000000000000000000, -1.000000000000000000, -0.000000000000000000 ) ) ;
#271 = AXIS2_PLACEMENT_3D ( 'NONE', #117, #205, #361 ) ;
#272 = VECTOR ( 'NONE', #310, 100.0000000000000000 ) ;
#273 = CIRCLE ( 'NONE', #96, 3.154999999999999361 ) ;
#274 = PRODUCT_DEFINITION_FORMATION_WITH_SPECIFIED_SOURCE ( 'ANY', '', #247, .NOT_KNOWN. ) ;
#275 = CARTESIAN_POINT ( 'NONE',  ( -4.399151958484772251, 0.2500000000000000000, 0.7401311149857647820 ) ) ;
#276 = CARTESIAN_POINT ( 'NONE',  ( 5.237677481422686299, 0.000000000000000000, -0.9296666523884561384 ) ) ;
#277 = ORIENTED_EDGE ( 'NONE', *, *, #203, .F. ) ;
#278 = FACE_OUTER_BOUND ( 'NONE', #12, .T. ) ;
#279 = VERTEX_POINT ( 'NONE', #349 ) ;
#280 = DIRECTION ( 'NONE',  ( 0.000000000000000000, 0.000000000000000000, -1.000000000000000000 ) ) ;
#281 = DIRECTION ( 'NONE',  ( 0.000000000000000000, -0.000000000000000000, 1.000000000000000000 ) ) ;
#282 = CIRCLE ( 'NONE', #490, 1.949999999999999956 ) ;
#283 = CARTESIAN_POINT ( 'NONE',  ( -4.399151958484772251, 0.000000000000000000, 0.7401311149857647820 ) ) ;
#284 = VERTEX_POINT ( 'NONE', #465 ) ;
#285 = ADVANCED_FACE ( 'NONE', ( #462 ), #104, .F. ) ;
#286 = FACE_OUTER_BOUND ( 'NONE', #428, .T. ) ;
#287 = VECTOR ( 'NONE', #309, 100.0000000000000142 ) ;
#288 = DIRECTION ( 'NONE',  ( -0.000000000000000000, -1.000000000000000000, -0.000000000000000000 ) ) ;
#289 = EDGE_LOOP ( 'NONE', ( #46, #73, #95, #236 ) ) ;
#290 = EDGE_CURVE ( 'NONE', #126, #409, #295, .T. ) ;
#291 = PRESENTATION_STYLE_ASSIGNMENT (( #405 ) ) ;
#292 = VERTEX_POINT ( 'NONE', #69 ) ;
#293 = CARTESIAN_POINT ( 'NONE',  ( 3.652089197542101928, 0.2500000000000000000, -2.993448228233022590 ) ) ;
#294 = ORIENTED_EDGE ( 'NONE', *, *, #77, .T. ) ;
#295 = CIRCLE ( 'NONE', #24, 3.154999999999999361 ) ;
#296 = EDGE_CURVE ( 'NONE', #208, #315, #74, .T. ) ;
#297 = ORIENTED_EDGE ( 'NONE', *, *, #217, .T. ) ;
#298 = DIRECTION ( 'NONE',  ( 0.000000000000000000, 1.000000000000000000, 0.000000000000000000 ) ) ;
#299 = VERTEX_POINT ( 'NONE', #474 ) ;
#300 = CARTESIAN_POINT ( 'NONE',  ( 5.237677481422687187, 0.000000000000000000, 2.225333347611543111 ) ) ;
#301 = ORIENTED_EDGE ( 'NONE', *, *, #217, .F. ) ;
#302 = ADVANCED_FACE ( 'NONE', ( #356, #230, #390 ), #227, .F. ) ;
#303 = LINE ( 'NONE', #182, #287 ) ;
#304 = CARTESIAN_POINT ( 'NONE',  ( 2.821542953604677884, 0.000000000000000000, -2.540423004267129858 ) ) ;
#305 = AXIS2_PLACEMENT_3D ( 'NONE', #232, #142, #27 ) ;
#306 = CARTESIAN_POINT ( 'NONE',  ( 2.821542953604677884, 0.2500000000000000000, -2.540423004267129858 ) ) ;
#307 = CARTESIAN_POINT ( 'NONE',  ( 3.475912721555390661, 0.2500000000000000000, -2.993448228233022590 ) ) ;
#308 = LINE ( 'NONE', #145, #174 ) ;
#309 = DIRECTION ( 'NONE',  ( 0.7071067811865334729, 0.000000000000000000, -0.7071067811865615615 ) ) ;
#310 = DIRECTION ( 'NONE',  ( -0.000000000000000000, -1.000000000000000000, -0.000000000000000000 ) ) ;
#311 = CARTESIAN_POINT ( 'NONE',  ( 5.237677481422686299, 0.2500000000000000000, -0.9296666523884561384 ) ) ;
#312 = AXIS2_PLACEMENT_3D ( 'NONE', #480, #209, #42 ) ;
#313 = EDGE_CURVE ( 'NONE', #377, #279, #107, .T. ) ;
#314 = DIRECTION ( 'NONE',  ( -0.000000000000000000, -1.000000000000000000, -0.000000000000000000 ) ) ;
#315 = VERTEX_POINT ( 'NONE', #65 ) ;
#316 = DIRECTION ( 'NONE',  ( -0.000000000000000000, -1.000000000000000000, -0.000000000000000000 ) ) ;
#317 = ORIENTED_EDGE ( 'NONE', *, *, #45, .T. ) ;
#318 = DIRECTION ( 'NONE',  ( 0.000000000000000000, 0.000000000000000000, -1.000000000000000000 ) ) ;
#319 = VECTOR ( 'NONE', #331, 100.0000000000000000 ) ;
#320 = VECTOR ( 'NONE', #144, 100.0000000000000142 ) ;
#321 =( LENGTH_UNIT ( ) NAMED_UNIT ( * ) SI_UNIT ( .CENTI., .METRE. ) );
#322 = APPLICATION_PROTOCOL_DEFINITION ( 'draft international standard', 'automotive_design', 1998, #116 ) ;
#323 = DIRECTION ( 'NONE',  ( 0.000000000000000000, -0.000000000000000000, 1.000000000000000000 ) ) ;
#324 = PRODUCT_DEFINITION_SHAPE ( 'NONE', 'NONE',  #124 ) ;
#325 = DIRECTION ( 'NONE',  ( 0.000000000000000000, 1.000000000000000000, 0.000000000000000000 ) ) ;
#326 = ADVANCED_FACE ( 'NONE', ( #278 ), #500, .F. ) ;
#327 = ORIENTED_EDGE ( 'NONE', *, *, #385, .T. ) ;
#328 = CLOSED_SHELL ( 'NONE', ( #326, #2, #358, #302, #497, #22, #333, #143, #484, #39 ) ) ;
#329 = DIRECTION ( 'NONE',  ( -0.000000000000000000, -1.000000000000000000, -0.000000000000000000 ) ) ;
#330 = EDGE_LOOP ( 'NONE', ( #70, #357, #82, #252 ) ) ;
#331 = DIRECTION ( 'NONE',  ( -0.000000000000000000, -1.000000000000000000, -0.000000000000000000 ) ) ;
#332 = ORIENTED_EDGE ( 'NONE', *, *, #296, .F. ) ;
#333 = ADVANCED_FACE ( 'NONE', ( #387 ), #225, .T. ) ;
#334 =( NAMED_UNIT ( * ) SI_UNIT ( $, .STERADIAN. ) SOLID_ANGLE_UNIT ( ) );
#335 = UNCERTAINTY_MEASURE_WITH_UNIT (LENGTH_MEASURE( 1.000000000000000082E-05 ), #499, 'distance_accuracy_value', 'NONE');
#336 = EDGE_LOOP ( 'NONE', ( #473, #53, #399, #317 ) ) ;
#337 = MECHANICAL_DESIGN_GEOMETRIC_PRESENTATION_REPRESENTATION (  '', ( #184 ), #383 ) ;
#338 = DIRECTION ( 'NONE',  ( 0.000000000000000000, 0.000000000000000000, 1.000000000000000000 ) ) ;
#339 = COLOUR_RGB ( '',0.7921568627450980005, 0.8196078431372548767, 0.9333333333333333481 ) ;
#340 = ORIENTED_EDGE ( 'NONE', *, *, #109, .T. ) ;
#341 = CARTESIAN_POINT ( 'NONE',  ( 5.237677481422686299, 0.2500000000000000000, 1.045333347611544283 ) ) ;
#342 = EDGE_CURVE ( 'NONE', #256, #486, #308, .T. ) ;
#343 = ORIENTED_EDGE ( 'NONE', *, *, #233, .T. ) ;
#344 = DIRECTION ( 'NONE',  ( 0.000000000000000000, 0.000000000000000000, 1.000000000000000000 ) ) ;
#345 = CARTESIAN_POINT ( 'NONE',  ( 5.237677481422686299, 0.000000000000000000, -4.084666652388455610 ) ) ;
#346 = AXIS2_PLACEMENT_3D ( 'NONE', #190, #436, #149 ) ;
#347 = DIRECTION ( 'NONE',  ( 0.000000000000000000, -0.000000000000000000, 1.000000000000000000 ) ) ;
#348 = CARTESIAN_POINT ( 'NONE',  ( -4.399151958484772251, 0.2500000000000000000, -1.209868885014235174 ) ) ;
#349 = CARTESIAN_POINT ( 'NONE',  ( 3.475912721555390661, 0.000000000000000000, -2.993448228233022590 ) ) ;
#350 = EDGE_CURVE ( 'NONE', #409, #126, #173, .T. ) ;
#351 = FACE_OUTER_BOUND ( 'NONE', #108, .T. ) ;
#352 = DIRECTION ( 'NONE',  ( 0.000000000000000000, 0.000000000000000000, 1.000000000000000000 ) ) ;
#353 = ORIENTED_EDGE ( 'NONE', *, *, #460, .T. ) ;
#354 = VECTOR ( 'NONE', #177, 100.0000000000000142 ) ;
#355 = DIRECTION ( 'NONE',  ( -0.000000000000000000, -1.000000000000000000, -0.000000000000000000 ) ) ;
#356 = FACE_BOUND ( 'NONE', #239, .T. ) ;
#357 = ORIENTED_EDGE ( 'NONE', *, *, #178, .T. ) ;
#358 = ADVANCED_FACE ( 'NONE', ( #196, #510, #472 ), #110, .T. ) ;
#359 = ORIENTED_EDGE ( 'NONE', *, *, #87, .T. ) ;
#360 = DIRECTION ( 'NONE',  ( 0.000000000000000000, 1.000000000000000000, 0.000000000000000000 ) ) ;
#361 = DIRECTION ( 'NONE',  ( 0.000000000000000000, 0.000000000000000000, 1.000000000000000000 ) ) ;
#362 = SURFACE_SIDE_STYLE ('',( #167 ) ) ;
#363 = CARTESIAN_POINT ( 'NONE',  ( -4.399151958484771363, 0.2500000000000000000, 1.945131114985764187 ) ) ;
#364 = ORIENTED_EDGE ( 'NONE', *, *, #178, .F. ) ;
#365 = AXIS2_PLACEMENT_3D ( 'NONE', #293, #120, #160 ) ;
#366 = CIRCLE ( 'NONE', #138, 1.949999999999999956 ) ;
#367 = FILL_AREA_STYLE ('',( #249 ) ) ;
#368 = ORIENTED_EDGE ( 'NONE', *, *, #419, .F. ) ;
#369 = EDGE_CURVE ( 'NONE', #208, #76, #8, .T. ) ;
#370 = LINE ( 'NONE', #136, #219 ) ;
#371 = VERTEX_POINT ( 'NONE', #275 ) ;
#372 = DIRECTION ( 'NONE',  ( 0.000000000000000000, 0.000000000000000000, 1.000000000000000000 ) ) ;
#373 = ORIENTED_EDGE ( 'NONE', *, *, #207, .T. ) ;
#374 = AXIS2_PLACEMENT_3D ( 'NONE', #14, #215, #338 ) ;
#375 = CARTESIAN_POINT ( 'NONE',  ( 5.237677481422686299, 0.2500000000000000000, -2.904666652388456782 ) ) ;
#376 = AXIS2_PLACEMENT_3D ( 'NONE', #458, #192, #25 ) ;
#377 = VERTEX_POINT ( 'NONE', #307 ) ;
#378 = DIRECTION ( 'NONE',  ( 0.000000000000000000, 0.000000000000000000, 1.000000000000000000 ) ) ;
#379 = DIRECTION ( 'NONE',  ( -0.000000000000000000, -1.000000000000000000, -0.000000000000000000 ) ) ;
#380 = CARTESIAN_POINT ( 'NONE',  ( 3.652089197542101928, 0.000000000000000000, -2.993448228233022590 ) ) ;
#381 = DIRECTION ( 'NONE',  ( -0.7071067811865334729, 0.000000000000000000, 0.7071067811865615615 ) ) ;
#382 = CARTESIAN_POINT ( 'NONE',  ( 5.237677481422686299, 0.2500000000000000000, -2.904666652388456782 ) ) ;
#383 =( GEOMETRIC_REPRESENTATION_CONTEXT ( 3 ) GLOBAL_UNCERTAINTY_ASSIGNED_CONTEXT ( ( #445 ) ) GLOBAL_UNIT_ASSIGNED_CONTEXT ( ( #321, #241, #81 ) ) REPRESENTATION_CONTEXT ( 'NONE', 'WORKASPACE' ) );
#384 = CIRCLE ( 'NONE', #476, 3.154999999999999361 ) ;
#385 = EDGE_CURVE ( 'NONE', #259, #486, #303, .T. ) ;
#386 = DIRECTION ( 'NONE',  ( 0.000000000000000000, 1.000000000000000000, 0.000000000000000000 ) ) ;
#387 = FACE_OUTER_BOUND ( 'NONE', #84, .T. ) ;
#388 = EDGE_LOOP ( 'NONE', ( #213, #15, #105, #475 ) ) ;
#389 = DIRECTION ( 'NONE',  ( 0.000000000000000000, 0.000000000000000000, 1.000000000000000000 ) ) ;
#390 = FACE_BOUND ( 'NONE', #400, .T. ) ;
#391 = ADVANCED_BREP_SHAPE_REPRESENTATION ( 'microprints', ( #214, #38, #164 ), #397 ) ;
#392 = ORIENTED_EDGE ( 'NONE', *, *, #118, .T. ) ;
#393 = CARTESIAN_POINT ( 'NONE',  ( 5.237677481422686299, 0.000000000000000000, -0.9296666523884561384 ) ) ;
#394 = ORIENTED_EDGE ( 'NONE', *, *, #350, .T. ) ;
#395 = EDGE_CURVE ( 'NONE', #256, #377, #106, .T. ) ;
#396 = AXIS2_PLACEMENT_3D ( 'NONE', #265, #29, #101 ) ;
#397 =( GEOMETRIC_REPRESENTATION_CONTEXT ( 3 ) GLOBAL_UNCERTAINTY_ASSIGNED_CONTEXT ( ( #129 ) ) GLOBAL_UNIT_ASSIGNED_CONTEXT ( ( #509, #151, #477 ) ) REPRESENTATION_CONTEXT ( 'NONE', 'WORKASPACE' ) );
#398 = CARTESIAN_POINT ( 'NONE',  ( 5.237677481422686299, 0.000000000000000000, -0.9296666523884561384 ) ) ;
#399 = ORIENTED_EDGE ( 'NONE', *, *, #408, .T. ) ;
#400 = EDGE_LOOP ( 'NONE', ( #343, #216, #327, #446 ) ) ;
#401 = FACE_OUTER_BOUND ( 'NONE', #28, .T. ) ;
#402 = AXIS2_PLACEMENT_3D ( 'NONE', #72, #270, #280 ) ;
#403 = DIRECTION ( 'NONE',  ( 0.000000000000000000, 0.000000000000000000, 1.000000000000000000 ) ) ;
#404 = EDGE_CURVE ( 'NONE', #37, #371, #366, .T. ) ;
#405 = SURFACE_STYLE_USAGE ( .BOTH. , #362 ) ;
#406 = ORIENTED_EDGE ( 'NONE', *, *, #207, .F. ) ;
#407 = LINE ( 'NONE', #162, #86 ) ;
#408 = EDGE_CURVE ( 'NONE', #114, #238, #139, .T. ) ;
#409 = VERTEX_POINT ( 'NONE', #345 ) ;
#410 = AXIS2_PLACEMENT_3D ( 'NONE', #478, #288, #79 ) ;
#411 = CARTESIAN_POINT ( 'NONE',  ( 2.821542953604677884, 0.2500000000000000000, -2.540423004267129858 ) ) ;
#412 = ORIENTED_EDGE ( 'NONE', *, *, #342, .T. ) ;
#413 = DIRECTION ( 'NONE',  ( 0.000000000000000000, 0.000000000000000000, 1.000000000000000000 ) ) ;
#414 = VERTEX_POINT ( 'NONE', #180 ) ;
#415 = CARTESIAN_POINT ( 'NONE',  ( 2.821542953604677884, 0.2500000000000000000, -2.162901984295565239 ) ) ;
#416 = EDGE_LOOP ( 'NONE', ( #175, #66 ) ) ;
#417 = AXIS2_PLACEMENT_3D ( 'NONE', #398, #155, #347 ) ;
#418 = FACE_OUTER_BOUND ( 'NONE', #503, .T. ) ;
#419 = EDGE_CURVE ( 'NONE', #377, #114, #463, .T. ) ;
#420 = DIRECTION ( 'NONE',  ( 0.000000000000000000, 1.000000000000000000, 0.000000000000000000 ) ) ;
#421 = CARTESIAN_POINT ( 'NONE',  ( 5.237677481422686299, 0.2500000000000000000, -0.9296666523884561384 ) ) ;
#422 = DIRECTION ( 'NONE',  ( -1.000000000000000000, 0.000000000000000000, 0.000000000000000000 ) ) ;
#423 = EDGE_CURVE ( 'NONE', #284, #409, #461, .T. ) ;
#424 = DIRECTION ( 'NONE',  ( 0.000000000000000000, 1.000000000000000000, 0.000000000000000000 ) ) ;
#425 = CARTESIAN_POINT ( 'NONE',  ( -4.399151958484772251, 0.000000000000000000, -1.209868885014235174 ) ) ;
#426 = ORIENTED_EDGE ( 'NONE', *, *, #290, .T. ) ;
#427 = CIRCLE ( 'NONE', #113, 3.154999999999999361 ) ;
#428 = EDGE_LOOP ( 'NONE', ( #495, #467 ) ) ;
#429 = DIRECTION ( 'NONE',  ( 0.000000000000000000, 1.000000000000000000, 0.000000000000000000 ) ) ;
#430 = EDGE_LOOP ( 'NONE', ( #170, #262, #450, #412 ) ) ;
#431 = SHAPE_DEFINITION_REPRESENTATION ( #324, #391 ) ;
#432 = DIRECTION ( 'NONE',  ( 0.000000000000000000, 0.000000000000000000, 1.000000000000000000 ) ) ;
#433 = DIRECTION ( 'NONE',  ( -0.000000000000000000, -1.000000000000000000, -0.000000000000000000 ) ) ;
#434 = VECTOR ( 'NONE', #47, 100.0000000000000000 ) ;
#435 = VECTOR ( 'NONE', #344, 100.0000000000000000 ) ;
#436 = DIRECTION ( 'NONE',  ( -0.000000000000000000, -1.000000000000000000, -0.000000000000000000 ) ) ;
#437 = ORIENTED_EDGE ( 'NONE', *, *, #203, .T. ) ;
#438 = PLANE ( 'NONE',  #172 ) ;
#439 = VECTOR ( 'NONE', #204, 100.0000000000000000 ) ;
#440 = CIRCLE ( 'NONE', #163, 1.975000000000000311 ) ;
#441 = CIRCLE ( 'NONE', #115, 3.154999999999999361 ) ;
#442 = EDGE_LOOP ( 'NONE', ( #301, #452, #220, #394 ) ) ;
#443 = EDGE_CURVE ( 'NONE', #414, #48, #176, .T. ) ;
#444 = CARTESIAN_POINT ( 'NONE',  ( -4.399151958484772251, 0.000000000000000000, -3.159868885014235129 ) ) ;
#445 = UNCERTAINTY_MEASURE_WITH_UNIT (LENGTH_MEASURE( 1.000000000000000082E-05 ), #321, 'distance_accuracy_value', 'NONE');
#446 = ORIENTED_EDGE ( 'NONE', *, *, #166, .T. ) ;
#447 = CARTESIAN_POINT ( 'NONE',  ( 2.821542953604677884, 0.2500000000000000000, -2.162901984295565239 ) ) ;
#448 = ORIENTED_EDGE ( 'NONE', *, *, #395, .F. ) ;
#449 = FILL_AREA_STYLE ('',( #134 ) ) ;
#450 = ORIENTED_EDGE ( 'NONE', *, *, #187, .T. ) ;
#451 = DIRECTION ( 'NONE',  ( 0.7071067811865334729, 0.000000000000000000, -0.7071067811865615615 ) ) ;
#452 = ORIENTED_EDGE ( 'NONE', *, *, #508, .F. ) ;
#453 = ADVANCED_FACE ( 'NONE', ( #418 ), #99, .T. ) ;
#454 = LINE ( 'NONE', #415, #185 ) ;
#455 = ORIENTED_EDGE ( 'NONE', *, *, #419, .T. ) ;
#456 = VECTOR ( 'NONE', #261, 100.0000000000000000 ) ;
#457 = DIRECTION ( 'NONE',  ( 0.000000000000000000, 0.000000000000000000, 1.000000000000000000 ) ) ;
#458 = CARTESIAN_POINT ( 'NONE',  ( 5.237677481422686299, 0.000000000000000000, -0.9296666523884561384 ) ) ;
#459 = DIRECTION ( 'NONE',  ( 0.000000000000000000, 0.000000000000000000, 1.000000000000000000 ) ) ;
#460 = EDGE_CURVE ( 'NONE', #315, #299, #273, .T. ) ;
#461 = LINE ( 'NONE', #68, #186 ) ;
#462 = FACE_OUTER_BOUND ( 'NONE', #168, .T. ) ;
#463 = LINE ( 'NONE', #141, #320 ) ;
#464 = CIRCLE ( 'NONE', #312, 1.975000000000000311 ) ;
#465 = CARTESIAN_POINT ( 'NONE',  ( 5.237677481422686299, 0.2500000000000000000, -4.084666652388455610 ) ) ;
#466 = AXIS2_PLACEMENT_3D ( 'NONE', #348, #268, #498 ) ;
#467 = ORIENTED_EDGE ( 'NONE', *, *, #240, .T. ) ;
#468 = AXIS2_PLACEMENT_3D ( 'NONE', #224, #420, #352 ) ;
#469 = CARTESIAN_POINT ( 'NONE',  ( -4.399151958484772251, 0.000000000000000000, -1.209868885014235174 ) ) ;
#470 = DIRECTION ( 'NONE',  ( 0.000000000000000000, 0.000000000000000000, 1.000000000000000000 ) ) ;
#471 = EDGE_LOOP ( 'NONE', ( #31, #368, #448, #119 ) ) ;
#472 = FACE_BOUND ( 'NONE', #471, .T. ) ;
#473 = ORIENTED_EDGE ( 'NONE', *, *, #223, .F. ) ;
#474 = CARTESIAN_POINT ( 'NONE',  ( -4.399151958484771363, 0.000000000000000000, 1.945131114985764187 ) ) ;
#475 = ORIENTED_EDGE ( 'NONE', *, *, #102, .F. ) ;
#476 = AXIS2_PLACEMENT_3D ( 'NONE', #21, #90, #372 ) ;
#477 =( NAMED_UNIT ( * ) SI_UNIT ( $, .STERADIAN. ) SOLID_ANGLE_UNIT ( ) );
#478 = CARTESIAN_POINT ( 'NONE',  ( 5.237677481422686299, 0.2500000000000000000, -0.9296666523884561384 ) ) ;
#479 = EDGE_CURVE ( 'NONE', #264, #91, #17, .T. ) ;
#480 = CARTESIAN_POINT ( 'NONE',  ( 5.237677481422686299, 0.000000000000000000, -0.9296666523884561384 ) ) ;
#481 = DIRECTION ( 'NONE',  ( 0.000000000000000000, 0.000000000000000000, -1.000000000000000000 ) ) ;
#482 = LINE ( 'NONE', #206, #319 ) ;
#483 = VECTOR ( 'NONE', #189, 100.0000000000000000 ) ;
#484 = ADVANCED_FACE ( 'NONE', ( #501 ), #504, .T. ) ;
#485 = LINE ( 'NONE', #83, #439 ) ;
#486 = VERTEX_POINT ( 'NONE', #26 ) ;
#487 = DIRECTION ( 'NONE',  ( 0.000000000000000000, 0.000000000000000000, -1.000000000000000000 ) ) ;
#488 = ORIENTED_EDGE ( 'NONE', *, *, #30, .T. ) ;
#489 = ORIENTED_EDGE ( 'NONE', *, *, #508, .T. ) ;
#490 = AXIS2_PLACEMENT_3D ( 'NONE', #44, #61, #459 ) ;
#491 = DIRECTION ( 'NONE',  ( -0.000000000000000000, -1.000000000000000000, -0.000000000000000000 ) ) ;
#492 = ADVANCED_FACE ( 'NONE', ( #188 ), #148, .F. ) ;
#493 = ORIENTED_EDGE ( 'NONE', *, *, #296, .T. ) ;
#494 = DIRECTION ( 'NONE',  ( 0.000000000000000000, 1.000000000000000000, 0.000000000000000000 ) ) ;
#495 = ORIENTED_EDGE ( 'NONE', *, *, #369, .T. ) ;
#496 = PRESENTATION_STYLE_ASSIGNMENT (( #23 ) ) ;
#497 = ADVANCED_FACE ( 'NONE', ( #195 ), #41, .T. ) ;
#498 = DIRECTION ( 'NONE',  ( 0.000000000000000000, 0.000000000000000000, 1.000000000000000000 ) ) ;
#499 =( LENGTH_UNIT ( ) NAMED_UNIT ( * ) SI_UNIT ( .CENTI., .METRE. ) );
#500 = CYLINDRICAL_SURFACE ( 'NONE', #402, 1.975000000000000311 ) ;
#501 = FACE_OUTER_BOUND ( 'NONE', #430, .T. ) ;
#502 = DIRECTION ( 'NONE',  ( -0.000000000000000000, -1.000000000000000000, -0.000000000000000000 ) ) ;
#503 = EDGE_LOOP ( 'NONE', ( #34, #392, #50, #332 ) ) ;
#504 = PLANE ( 'NONE',  #35 ) ;
#505 = CARTESIAN_POINT ( 'NONE',  ( 3.475912721555390661, 0.2500000000000000000, -2.993448228233022590 ) ) ;
#506 = VECTOR ( 'NONE', #502, 100.0000000000000000 ) ;
#507 = ORIENTED_EDGE ( 'NONE', *, *, #267, .F. ) ;
#508 = EDGE_CURVE ( 'NONE', #284, #197, #441, .T. ) ;
#509 =( LENGTH_UNIT ( ) NAMED_UNIT ( * ) SI_UNIT ( .CENTI., .METRE. ) );
#510 = FACE_BOUND ( 'NONE', #78, .T. ) ;
#511 = FACE_OUTER_BOUND ( 'NONE', #211, .T. ) ;
#512 = DIRECTION ( 'NONE',  ( 0.000000000000000000, 0.000000000000000000, -1.000000000000000000 ) ) ;
ENDSEC;
END-ISO-10303-21;
