ISO-10303-21;
HEADER;
FILE_DESCRIPTION (( 'STEP AP214' ),
    '1' );
FILE_NAME ('nosecone 631mm.STEP',
    '2026-02-16T06:34:08',
    ( '' ),
    ( '' ),
    'SwSTEP 2.0',
    'SolidWorks 2025',
    '' );
FILE_SCHEMA (( 'AUTOMOTIVE_DESIGN' ));
ENDSEC;

DATA;
#1 = EDGE_CURVE ( 'NONE', #226, #152, #22, .T. ) ;
#2 = MANIFOLD_SOLID_BREP ( 'Cut-Extrude1', #142 ) ;
#3 = ORIENTED_EDGE ( 'NONE', *, *, #59, .T. ) ;
#4 = VERTEX_POINT ( 'NONE', #131 ) ;
#5 = SURFACE_STYLE_USAGE ( .BOTH. , #126 ) ;
#6 = VECTOR ( 'NONE', #84, 100.0000000000000000 ) ;
#7 = ORIENTED_EDGE ( 'NONE', *, *, #250, .F. ) ;
#8 = ORIENTED_EDGE ( 'NONE', *, *, #93, .F. ) ;
#9 = DIRECTION ( 'NONE',  ( 0.000000000000000000, -0.000000000000000000, -1.000000000000000000 ) ) ;
#10 = FACE_OUTER_BOUND ( 'NONE', #227, .T. ) ;
#11 = DIRECTION ( 'NONE',  ( 0.000000000000000000, -1.000000000000000000, 0.000000000000000000 ) ) ;
#12 = AXIS2_PLACEMENT_3D ( 'NONE', #178, #160, #78 ) ;
#13 = CARTESIAN_POINT ( 'NONE',  ( 0.000000000000000000, -5.000000000000000000, 0.000000000000000000 ) ) ;
#14 = CARTESIAN_POINT ( 'NONE',  ( 0.000000000000000000, -5.000000000000000000, 0.000000000000000000 ) ) ;
#15 = DIRECTION ( 'NONE',  ( 0.000000000000000000, -0.000000000000000000, -1.000000000000000000 ) ) ;
#16 = FACE_OUTER_BOUND ( 'NONE', #124, .T. ) ;
#17 = DIRECTION ( 'NONE',  ( 0.000000000000000000, -1.000000000000000000, 0.000000000000000000 ) ) ;
#18 = CARTESIAN_POINT ( 'NONE',  ( 0.000000000000000000, 1.300000000000001155, -2.904999999999999805 ) ) ;
#19 = CIRCLE ( 'NONE', #50, 2.904999999999999805 ) ;
#20 = DIRECTION ( 'NONE',  ( 0.000000000000000000, 0.000000000000000000, -1.000000000000000000 ) ) ;
#21 = ADVANCED_FACE ( 'NONE', ( #189, #133 ), #32, .T. ) ;
#22 = CIRCLE ( 'NONE', #145, 14.81077039455249178 ) ;
#23 = EDGE_CURVE ( 'NONE', #87, #4, #85, .T. ) ;
#24 = ORIENTED_EDGE ( 'NONE', *, *, #1, .F. ) ;
#25 = ORIENTED_EDGE ( 'NONE', *, *, #34, .T. ) ;
#26 = CARTESIAN_POINT ( 'NONE',  ( -1.402671437549100192E-15, 0.000000000000000000, -11.45368149025249238 ) ) ;
#27 = EDGE_LOOP ( 'NONE', ( #222, #109, #112, #150 ) ) ;
#28 = EDGE_CURVE ( 'NONE', #248, #65, #151, .T. ) ;
#29 = AXIS2_PLACEMENT_3D ( 'NONE', #31, #92, #173 ) ;
#30 = FILL_AREA_STYLE ('',( #249 ) ) ;
#31 = CARTESIAN_POINT ( 'NONE',  ( 0.000000000000000000, -5.000000000000000000, 0.000000000000000000 ) ) ;
#32 = PLANE ( 'NONE',  #72 ) ;
#33 = CARTESIAN_POINT ( 'NONE',  ( 3.863760651309899072E-16, -5.000000000000000000, -3.154999999999999361 ) ) ;
#34 = EDGE_CURVE ( 'NONE', #245, #90, #174, .T. ) ;
#35 = DIRECTION ( 'NONE',  ( -1.000000000000000000, 0.000000000000000000, 0.000000000000000000 ) ) ;
#36 = DIRECTION ( 'NONE',  ( 0.000000000000000000, 0.000000000000000000, 1.000000000000000000 ) ) ;
#37 = CARTESIAN_POINT ( 'NONE',  ( 0.000000000000000000, 1.300000000000001155, 0.000000000000000000 ) ) ;
#38 = CARTESIAN_POINT ( 'NONE',  ( 0.000000000000000000, -5.000000000000000000, 3.154999999999999361 ) ) ;
#39 = CIRCLE ( 'NONE', #73, 3.357088904299999843 ) ;
#40 = DIRECTION ( 'NONE',  ( 0.000000000000000000, 0.000000000000000000, -1.000000000000000000 ) ) ;
#41 = APPLICATION_CONTEXT ( 'automotive_design' ) ;
#42 = PRODUCT ( 'nosecone 631mm', 'nosecone 631mm', '', ( #238 ) ) ;
#43 = AXIS2_PLACEMENT_3D ( 'NONE', #235, #53, #181 ) ;
#44 = ORIENTED_EDGE ( 'NONE', *, *, #106, .F. ) ;
#45 = ORIENTED_EDGE ( 'NONE', *, *, #228, .T. ) ;
#46 = AXIS2_PLACEMENT_3D ( 'NONE', #37, #17, #101 ) ;
#47 = ORIENTED_EDGE ( 'NONE', *, *, #144, .T. ) ;
#48 = ORIENTED_EDGE ( 'NONE', *, *, #138, .T. ) ;
#49 = ORIENTED_EDGE ( 'NONE', *, *, #59, .F. ) ;
#50 = AXIS2_PLACEMENT_3D ( 'NONE', #14, #56, #137 ) ;
#51 = FACE_OUTER_BOUND ( 'NONE', #244, .T. ) ;
#52 = CARTESIAN_POINT ( 'NONE',  ( 3.863760651309899072E-16, 0.000000000000000000, -3.154999999999999361 ) ) ;
#53 = DIRECTION ( 'NONE',  ( -0.000000000000000000, -1.000000000000000000, -0.000000000000000000 ) ) ;
#54 =( LENGTH_UNIT ( ) NAMED_UNIT ( * ) SI_UNIT ( .CENTI., .METRE. ) );
#55 = DIRECTION ( 'NONE',  ( -0.000000000000000000, -1.000000000000000000, -0.000000000000000000 ) ) ;
#56 = DIRECTION ( 'NONE',  ( 0.000000000000000000, -1.000000000000000000, 0.000000000000000000 ) ) ;
#57 = CYLINDRICAL_SURFACE ( 'NONE', #146, 2.904999999999999805 ) ;
#58 = DIRECTION ( 'NONE',  ( 0.000000000000000000, 0.000000000000000000, -1.000000000000000000 ) ) ;
#59 = EDGE_CURVE ( 'NONE', #224, #166, #135, .T. ) ;
#60 = DIRECTION ( 'NONE',  ( 0.000000000000000000, 0.000000000000000000, -1.000000000000000000 ) ) ;
#61 = CARTESIAN_POINT ( 'NONE',  ( 0.000000000000000000, 1.300000000000001155, 0.000000000000000000 ) ) ;
#62 = APPLICATION_PROTOCOL_DEFINITION ( 'draft international standard', 'automotive_design', 1998, #41 ) ;
#63 = CIRCLE ( 'NONE', #209, 3.357088904299999843 ) ;
#64 =( GEOMETRIC_REPRESENTATION_CONTEXT ( 3 ) GLOBAL_UNCERTAINTY_ASSIGNED_CONTEXT ( ( #121 ) ) GLOBAL_UNIT_ASSIGNED_CONTEXT ( ( #54, #201, #83 ) ) REPRESENTATION_CONTEXT ( 'NONE', 'WORKASPACE' ) );
#65 = VERTEX_POINT ( 'NONE', #122 ) ;
#66 = VERTEX_POINT ( 'NONE', #255 ) ;
#67 = AXIS2_PLACEMENT_3D ( 'NONE', #13, #258, #58 ) ;
#68 = PRODUCT_DEFINITION ( 'UNKNOWN', '', #102, #105 ) ;
#69 = EDGE_LOOP ( 'NONE', ( #47, #45 ) ) ;
#70 = ORIENTED_EDGE ( 'NONE', *, *, #129, .F. ) ;
#71 =( LENGTH_UNIT ( ) NAMED_UNIT ( * ) SI_UNIT ( .CENTI., .METRE. ) );
#72 = AXIS2_PLACEMENT_3D ( 'NONE', #211, #115, #15 ) ;
#73 = AXIS2_PLACEMENT_3D ( 'NONE', #77, #177, #94 ) ;
#74 = CARTESIAN_POINT ( 'NONE',  ( 0.000000000000000000, 1.300000000000001155, 0.000000000000000000 ) ) ;
#75 = CARTESIAN_POINT ( 'NONE',  ( 0.000000000000000000, 1.300000000000001155, 0.000000000000000000 ) ) ;
#76 = FACE_OUTER_BOUND ( 'NONE', #229, .T. ) ;
#77 = CARTESIAN_POINT ( 'NONE',  ( 0.000000000000000000, 0.000000000000000000, 0.000000000000000000 ) ) ;
#78 = DIRECTION ( 'NONE',  ( 0.000000000000000000, 0.000000000000000000, -1.000000000000000000 ) ) ;
#79 = DIRECTION ( 'NONE',  ( 0.000000000000000000, 0.000000000000000000, 1.000000000000000000 ) ) ;
#80 = CARTESIAN_POINT ( 'NONE',  ( 0.000000000000000000, 1.300000000000001155, 0.000000000000000000 ) ) ;
#81 = ADVANCED_FACE ( 'NONE', ( #76 ), #191, .T. ) ;
#82 = LINE ( 'NONE', #161, #125 ) ;
#83 =( NAMED_UNIT ( * ) SI_UNIT ( $, .STERADIAN. ) SOLID_ANGLE_UNIT ( ) );
#84 = DIRECTION ( 'NONE',  ( -0.000000000000000000, 1.000000000000000000, -0.000000000000000000 ) ) ;
#85 = CIRCLE ( 'NONE', #225, 2.904999999999999805 ) ;
#86 = AXIS2_PLACEMENT_3D ( 'NONE', #199, #55, #236 ) ;
#87 = VERTEX_POINT ( 'NONE', #234 ) ;
#88 = ORIENTED_EDGE ( 'NONE', *, *, #93, .T. ) ;
#89 = EDGE_LOOP ( 'NONE', ( #188, #206 ) ) ;
#90 = VERTEX_POINT ( 'NONE', #52 ) ;
#91 = EDGE_LOOP ( 'NONE', ( #168, #183 ) ) ;
#92 = DIRECTION ( 'NONE',  ( -0.000000000000000000, 1.000000000000000000, -0.000000000000000000 ) ) ;
#93 = EDGE_CURVE ( 'NONE', #226, #66, #205, .T. ) ;
#94 = DIRECTION ( 'NONE',  ( 0.000000000000000000, 0.000000000000000000, -1.000000000000000000 ) ) ;
#95 = VECTOR ( 'NONE', #256, 100.0000000000000000 ) ;
#96 = DIRECTION ( 'NONE',  ( 0.000000000000000000, -1.000000000000000000, 0.000000000000000000 ) ) ;
#97 = APPLICATION_CONTEXT ( 'automotive_design' ) ;
#98 = FACE_OUTER_BOUND ( 'NONE', #69, .T. ) ;
#99 = CARTESIAN_POINT ( 'NONE',  ( 0.000000000000000000, 0.000000000000000000, 0.000000000000000000 ) ) ;
#100 = DIRECTION ( 'NONE',  ( -0.000000000000000000, -1.000000000000000000, -0.000000000000000000 ) ) ;
#101 = DIRECTION ( 'NONE',  ( 0.000000000000000000, 0.000000000000000000, -1.000000000000000000 ) ) ;
#102 = PRODUCT_DEFINITION_FORMATION_WITH_SPECIFIED_SOURCE ( 'ANY', '', #42, .NOT_KNOWN. ) ;
#103 = FACE_OUTER_BOUND ( 'NONE', #27, .T. ) ;
#104 = CARTESIAN_POINT ( 'NONE',  ( 0.000000000000000000, 0.000000000000000000, 0.000000000000000000 ) ) ;
#105 = PRODUCT_DEFINITION_CONTEXT ( 'detailed design', #97, 'design' ) ;
#106 = EDGE_CURVE ( 'NONE', #4, #87, #203, .T. ) ;
#107 = ORIENTED_EDGE ( 'NONE', *, *, #114, .F. ) ;
#108 = AXIS2_PLACEMENT_3D ( 'NONE', #216, #35, #220 ) ;
#109 = ORIENTED_EDGE ( 'NONE', *, *, #176, .T. ) ;
#110 = UNCERTAINTY_MEASURE_WITH_UNIT (LENGTH_MEASURE( 1.000000000000000082E-05 ), #71, 'distance_accuracy_value', 'NONE');
#111 = DIRECTION ( 'NONE',  ( 1.000000000000000000, 0.000000000000000000, -1.224646799147353207E-16 ) ) ;
#112 = ORIENTED_EDGE ( 'NONE', *, *, #250, .T. ) ;
#113 = AXIS2_PLACEMENT_3D ( 'NONE', #99, #96, #213 ) ;
#114 = EDGE_CURVE ( 'NONE', #4, #224, #193, .T. ) ;
#115 = DIRECTION ( 'NONE',  ( 0.000000000000000000, -1.000000000000000000, 0.000000000000000000 ) ) ;
#116 = CYLINDRICAL_SURFACE ( 'NONE', #242, 2.904999999999999805 ) ;
#117 = CARTESIAN_POINT ( 'NONE',  ( 0.000000000000000000, 9.390000000000000568, -1.387778780781445676E-15 ) ) ;
#118 = DIRECTION ( 'NONE',  ( -0.000000000000000000, 1.000000000000000000, -0.000000000000000000 ) ) ;
#119 = ADVANCED_FACE ( 'NONE', ( #217 ), #179, .T. ) ;
#120 = SHAPE_DEFINITION_REPRESENTATION ( #210, #202 ) ;
#121 = UNCERTAINTY_MEASURE_WITH_UNIT (LENGTH_MEASURE( 1.000000000000000082E-05 ), #54, 'distance_accuracy_value', 'NONE');
#122 = CARTESIAN_POINT ( 'NONE',  ( 0.000000000000000000, -5.000000000000000000, 3.154999999999999361 ) ) ;
#123 = DIRECTION ( 'NONE',  ( 0.000000000000000000, -1.000000000000000000, 0.000000000000000000 ) ) ;
#124 = EDGE_LOOP ( 'NONE', ( #128, #207, #48, #25 ) ) ;
#125 = VECTOR ( 'NONE', #260, 100.0000000000000000 ) ;
#126 = SURFACE_SIDE_STYLE ('',( #223 ) ) ;
#127 = ORIENTED_EDGE ( 'NONE', *, *, #184, .T. ) ;
#128 = ORIENTED_EDGE ( 'NONE', *, *, #176, .F. ) ;
#129 = EDGE_CURVE ( 'NONE', #87, #166, #82, .T. ) ;
#130 = EDGE_LOOP ( 'NONE', ( #49, #153 ) ) ;
#131 = CARTESIAN_POINT ( 'NONE',  ( 0.000000000000000000, 1.300000000000001155, -2.904999999999999805 ) ) ;
#132 = CARTESIAN_POINT ( 'NONE',  ( 0.000000000000000000, 0.000000000000000000, 3.154999999999999361 ) ) ;
#133 = FACE_OUTER_BOUND ( 'NONE', #89, .T. ) ;
#134 = DIRECTION ( 'NONE',  ( 0.000000000000000000, 0.000000000000000000, -1.000000000000000000 ) ) ;
#135 = CIRCLE ( 'NONE', #12, 2.904999999999999805 ) ;
#136 = DIRECTION ( 'NONE',  ( 0.000000000000000000, 0.000000000000000000, -1.000000000000000000 ) ) ;
#137 = DIRECTION ( 'NONE',  ( 0.000000000000000000, 0.000000000000000000, -1.000000000000000000 ) ) ;
#138 = EDGE_CURVE ( 'NONE', #65, #245, #163, .T. ) ;
#139 = DIRECTION ( 'NONE',  ( 0.000000000000000000, 0.000000000000000000, -1.000000000000000000 ) ) ;
#140 = CYLINDRICAL_SURFACE ( 'NONE', #29, 3.154999999999999361 ) ;
#141 = ADVANCED_FACE ( 'NONE', ( #156 ), #159, .T. ) ;
#142 = CLOSED_SHELL ( 'NONE', ( #164, #149, #81, #204, #141, #218, #21, #237, #119 ) ) ;
#143 = AXIS2_PLACEMENT_3D ( 'NONE', #219, #215, #79 ) ;
#144 = EDGE_CURVE ( 'NONE', #66, #152, #63, .T. ) ;
#145 = AXIS2_PLACEMENT_3D ( 'NONE', #26, #111, #208 ) ;
#146 = AXIS2_PLACEMENT_3D ( 'NONE', #75, #100, #139 ) ;
#147 = ORIENTED_EDGE ( 'NONE', *, *, #23, .F. ) ;
#148 = EDGE_LOOP ( 'NONE', ( #24, #88, #192 ) ) ;
#149 = ADVANCED_FACE ( 'NONE', ( #103 ), #140, .T. ) ;
#150 = ORIENTED_EDGE ( 'NONE', *, *, #138, .F. ) ;
#151 = CIRCLE ( 'NONE', #67, 3.154999999999999361 ) ;
#152 = VERTEX_POINT ( 'NONE', #196 ) ;
#153 = ORIENTED_EDGE ( 'NONE', *, *, #184, .F. ) ;
#154 = DIRECTION ( 'NONE',  ( -0.000000000000000000, -1.000000000000000000, -0.000000000000000000 ) ) ;
#155 = FACE_BOUND ( 'NONE', #186, .T. ) ;
#156 = FACE_OUTER_BOUND ( 'NONE', #148, .T. ) ;
#157 = CARTESIAN_POINT ( 'NONE',  ( 0.000000000000000000, 0.000000000000000000, 0.000000000000000000 ) ) ;
#158 = DIRECTION ( 'NONE',  ( 0.000000000000000000, -1.000000000000000000, 0.000000000000000000 ) ) ;
#159 = TOROIDAL_SURFACE ( 'NONE', #43, -11.45368149025249238, 14.81077039455249178 ) ;
#160 = DIRECTION ( 'NONE',  ( 0.000000000000000000, -1.000000000000000000, 0.000000000000000000 ) ) ;
#161 = CARTESIAN_POINT ( 'NONE',  ( 3.557598951523060708E-16, 1.300000000000001155, 2.904999999999999805 ) ) ;
#162 = CARTESIAN_POINT ( 'NONE',  ( 0.000000000000000000, 0.000000000000000000, 0.000000000000000000 ) ) ;
#163 = LINE ( 'NONE', #38, #6 ) ;
#164 = ADVANCED_FACE ( 'NONE', ( #51 ), #116, .F. ) ;
#165 = STYLED_ITEM ( 'NONE', ( #172 ), #2 ) ;
#166 = VERTEX_POINT ( 'NONE', #212 ) ;
#167 = ORIENTED_EDGE ( 'NONE', *, *, #1, .T. ) ;
#168 = ORIENTED_EDGE ( 'NONE', *, *, #106, .T. ) ;
#169 = PRODUCT_RELATED_PRODUCT_CATEGORY ( 'part', '', ( #42 ) ) ;
#170 = ORIENTED_EDGE ( 'NONE', *, *, #114, .T. ) ;
#171 = ORIENTED_EDGE ( 'NONE', *, *, #34, .F. ) ;
#172 = PRESENTATION_STYLE_ASSIGNMENT (( #5 ) ) ;
#173 = DIRECTION ( 'NONE',  ( 0.000000000000000000, 0.000000000000000000, 1.000000000000000000 ) ) ;
#174 = CIRCLE ( 'NONE', #113, 3.154999999999999361 ) ;
#175 = PLANE ( 'NONE',  #200 ) ;
#176 = EDGE_CURVE ( 'NONE', #248, #90, #214, .T. ) ;
#177 = DIRECTION ( 'NONE',  ( -0.000000000000000000, -1.000000000000000000, -0.000000000000000000 ) ) ;
#178 = CARTESIAN_POINT ( 'NONE',  ( 0.000000000000000000, -5.000000000000000000, 0.000000000000000000 ) ) ;
#179 = PLANE ( 'NONE',  #241 ) ;
#180 = CARTESIAN_POINT ( 'NONE',  ( 0.000000000000000000, -5.000000000000000000, -2.904999999999999805 ) ) ;
#181 = DIRECTION ( 'NONE',  ( 0.000000000000000000, 0.000000000000000000, -1.000000000000000000 ) ) ;
#182 = COLOUR_RGB ( '',0.7921568627450980005, 0.8196078431372548767, 0.9333333333333333481 ) ;
#183 = ORIENTED_EDGE ( 'NONE', *, *, #23, .T. ) ;
#184 = EDGE_CURVE ( 'NONE', #166, #224, #19, .T. ) ;
#185 = MECHANICAL_DESIGN_GEOMETRIC_PRESENTATION_REPRESENTATION (  '', ( #165 ), #230 ) ;
#186 = EDGE_LOOP ( 'NONE', ( #171, #7 ) ) ;
#187 = CIRCLE ( 'NONE', #221, 3.154999999999999361 ) ;
#188 = ORIENTED_EDGE ( 'NONE', *, *, #246, .T. ) ;
#189 = FACE_BOUND ( 'NONE', #130, .T. ) ;
#190 = ORIENTED_EDGE ( 'NONE', *, *, #129, .T. ) ;
#191 = TOROIDAL_SURFACE ( 'NONE', #86, -11.45368149025249238, 14.81077039455249178 ) ;
#192 = ORIENTED_EDGE ( 'NONE', *, *, #228, .F. ) ;
#193 = LINE ( 'NONE', #18, #95 ) ;
#194 = DIRECTION ( 'NONE',  ( 0.000000000000000000, -1.000000000000000000, 0.000000000000000000 ) ) ;
#195 =( NAMED_UNIT ( * ) PLANE_ANGLE_UNIT ( ) SI_UNIT ( $, .RADIAN. ) );
#196 = CARTESIAN_POINT ( 'NONE',  ( 4.111248181104090148E-16, 0.000000000000000000, 3.357088904299999843 ) ) ;
#197 = CYLINDRICAL_SURFACE ( 'NONE', #143, 3.154999999999999361 ) ;
#198 =( NAMED_UNIT ( * ) SI_UNIT ( $, .STERADIAN. ) SOLID_ANGLE_UNIT ( ) );
#199 = CARTESIAN_POINT ( 'NONE',  ( 0.000000000000000000, 0.000000000000000000, 0.000000000000000000 ) ) ;
#200 = AXIS2_PLACEMENT_3D ( 'NONE', #104, #254, #20 ) ;
#201 =( NAMED_UNIT ( * ) PLANE_ANGLE_UNIT ( ) SI_UNIT ( $, .RADIAN. ) );
#202 = ADVANCED_BREP_SHAPE_REPRESENTATION ( 'nosecone 631mm', ( #2, #243 ), #64 ) ;
#203 = CIRCLE ( 'NONE', #46, 2.904999999999999805 ) ;
#204 = ADVANCED_FACE ( 'NONE', ( #155, #98 ), #175, .T. ) ;
#205 = CIRCLE ( 'NONE', #108, 14.81077039455249178 ) ;
#206 = ORIENTED_EDGE ( 'NONE', *, *, #28, .T. ) ;
#207 = ORIENTED_EDGE ( 'NONE', *, *, #246, .F. ) ;
#208 = DIRECTION ( 'NONE',  ( -1.224646799147353207E-16, 0.000000000000000000, -1.000000000000000000 ) ) ;
#209 = AXIS2_PLACEMENT_3D ( 'NONE', #252, #239, #134 ) ;
#210 = PRODUCT_DEFINITION_SHAPE ( 'NONE', 'NONE',  #68 ) ;
#211 = CARTESIAN_POINT ( 'NONE',  ( 0.000000000000000000, -5.000000000000000000, 0.000000000000000000 ) ) ;
#212 = CARTESIAN_POINT ( 'NONE',  ( 3.557598951523060708E-16, -5.000000000000000000, 2.904999999999999805 ) ) ;
#213 = DIRECTION ( 'NONE',  ( 0.000000000000000000, 0.000000000000000000, -1.000000000000000000 ) ) ;
#214 = LINE ( 'NONE', #33, #259 ) ;
#215 = DIRECTION ( 'NONE',  ( -0.000000000000000000, 1.000000000000000000, -0.000000000000000000 ) ) ;
#216 = CARTESIAN_POINT ( 'NONE',  ( 0.000000000000000000, 0.000000000000000000, 11.45368149025249238 ) ) ;
#217 = FACE_OUTER_BOUND ( 'NONE', #91, .T. ) ;
#218 = ADVANCED_FACE ( 'NONE', ( #16 ), #197, .T. ) ;
#219 = CARTESIAN_POINT ( 'NONE',  ( 0.000000000000000000, -5.000000000000000000, 0.000000000000000000 ) ) ;
#220 = DIRECTION ( 'NONE',  ( 0.000000000000000000, 0.000000000000000000, 1.000000000000000000 ) ) ;
#221 = AXIS2_PLACEMENT_3D ( 'NONE', #257, #194, #60 ) ;
#222 = ORIENTED_EDGE ( 'NONE', *, *, #28, .F. ) ;
#223 = SURFACE_STYLE_FILL_AREA ( #30 ) ;
#224 = VERTEX_POINT ( 'NONE', #180 ) ;
#225 = AXIS2_PLACEMENT_3D ( 'NONE', #80, #11, #136 ) ;
#226 = VERTEX_POINT ( 'NONE', #117 ) ;
#227 = EDGE_LOOP ( 'NONE', ( #70, #44, #170, #3 ) ) ;
#228 = EDGE_CURVE ( 'NONE', #152, #66, #39, .T. ) ;
#229 = EDGE_LOOP ( 'NONE', ( #8, #167, #247 ) ) ;
#230 =( GEOMETRIC_REPRESENTATION_CONTEXT ( 3 ) GLOBAL_UNCERTAINTY_ASSIGNED_CONTEXT ( ( #110 ) ) GLOBAL_UNIT_ASSIGNED_CONTEXT ( ( #71, #195, #198 ) ) REPRESENTATION_CONTEXT ( 'NONE', 'WORKASPACE' ) );
#231 = CIRCLE ( 'NONE', #253, 3.154999999999999361 ) ;
#232 = DIRECTION ( 'NONE',  ( 0.000000000000000000, 0.000000000000000000, -1.000000000000000000 ) ) ;
#233 = CARTESIAN_POINT ( 'NONE',  ( 3.863760651309899072E-16, -5.000000000000000000, -3.154999999999999361 ) ) ;
#234 = CARTESIAN_POINT ( 'NONE',  ( 3.557598951523060708E-16, 1.300000000000001155, 2.904999999999999805 ) ) ;
#235 = CARTESIAN_POINT ( 'NONE',  ( 0.000000000000000000, 0.000000000000000000, 0.000000000000000000 ) ) ;
#236 = DIRECTION ( 'NONE',  ( 0.000000000000000000, 0.000000000000000000, -1.000000000000000000 ) ) ;
#237 = ADVANCED_FACE ( 'NONE', ( #10 ), #57, .F. ) ;
#238 = PRODUCT_CONTEXT ( 'NONE', #41, 'mechanical' ) ;
#239 = DIRECTION ( 'NONE',  ( -0.000000000000000000, -1.000000000000000000, -0.000000000000000000 ) ) ;
#240 = APPLICATION_PROTOCOL_DEFINITION ( 'draft international standard', 'automotive_design', 1998, #97 ) ;
#241 = AXIS2_PLACEMENT_3D ( 'NONE', #61, #158, #9 ) ;
#242 = AXIS2_PLACEMENT_3D ( 'NONE', #74, #154, #232 ) ;
#243 = AXIS2_PLACEMENT_3D ( 'NONE', #162, #36, #261 ) ;
#244 = EDGE_LOOP ( 'NONE', ( #147, #190, #127, #107 ) ) ;
#245 = VERTEX_POINT ( 'NONE', #132 ) ;
#246 = EDGE_CURVE ( 'NONE', #65, #248, #187, .T. ) ;
#247 = ORIENTED_EDGE ( 'NONE', *, *, #144, .F. ) ;
#248 = VERTEX_POINT ( 'NONE', #233 ) ;
#249 = FILL_AREA_STYLE_COLOUR ( '', #182 ) ;
#250 = EDGE_CURVE ( 'NONE', #90, #245, #231, .T. ) ;
#251 = PRESENTATION_LAYER_ASSIGNMENT (  '', '', ( #165 ) ) ;
#252 = CARTESIAN_POINT ( 'NONE',  ( 0.000000000000000000, 0.000000000000000000, 0.000000000000000000 ) ) ;
#253 = AXIS2_PLACEMENT_3D ( 'NONE', #157, #123, #40 ) ;
#254 = DIRECTION ( 'NONE',  ( 0.000000000000000000, -1.000000000000000000, -0.000000000000000000 ) ) ;
#255 = CARTESIAN_POINT ( 'NONE',  ( 0.000000000000000000, 0.000000000000000000, -3.357088904299999843 ) ) ;
#256 = DIRECTION ( 'NONE',  ( -0.000000000000000000, -1.000000000000000000, -0.000000000000000000 ) ) ;
#257 = CARTESIAN_POINT ( 'NONE',  ( 0.000000000000000000, -5.000000000000000000, 0.000000000000000000 ) ) ;
#258 = DIRECTION ( 'NONE',  ( 0.000000000000000000, -1.000000000000000000, 0.000000000000000000 ) ) ;
#259 = VECTOR ( 'NONE', #118, 100.0000000000000000 ) ;
#260 = DIRECTION ( 'NONE',  ( -0.000000000000000000, -1.000000000000000000, -0.000000000000000000 ) ) ;
#261 = DIRECTION ( 'NONE',  ( 1.000000000000000000, 0.000000000000000000, 0.000000000000000000 ) ) ;
ENDSEC;
END-ISO-10303-21;
