ISO-10303-21;
HEADER;
FILE_DESCRIPTION (( 'STEP AP214' ),
    '1' );
FILE_NAME ('Uboltattatchmentpartnosecone.STEP',
    '2026-02-16T06:49:56',
    ( '' ),
    ( '' ),
    'SwSTEP 2.0',
    'SolidWorks 2025',
    '' );
FILE_SCHEMA (( 'AUTOMOTIVE_DESIGN' ));
ENDSEC;

DATA;
#1 = FACE_OUTER_BOUND ( 'NONE', #40, .T. ) ;
#2 = CYLINDRICAL_SURFACE ( 'NONE', #318, 0.3999999999999993006 ) ;
#3 = LINE ( 'NONE', #74, #152 ) ;
#4 = CARTESIAN_POINT ( 'NONE',  ( 1.876500000000000057, 0.000000000000000000, -6.894149155800024837E-16 ) ) ;
#5 = PRODUCT_DEFINITION_FORMATION_WITH_SPECIFIED_SOURCE ( 'ANY', '', #346, .NOT_KNOWN. ) ;
#6 = VERTEX_POINT ( 'NONE', #60 ) ;
#7 = CARTESIAN_POINT ( 'NONE',  ( 0.000000000000000000, 1.000000000000000000, 0.000000000000000000 ) ) ;
#8 = ORIENTED_EDGE ( 'NONE', *, *, #32, .F. ) ;
#9 = DIRECTION ( 'NONE',  ( 0.000000000000000000, 0.000000000000000000, -1.000000000000000000 ) ) ;
#10 = ORIENTED_EDGE ( 'NONE', *, *, #215, .T. ) ;
#11 = CARTESIAN_POINT ( 'NONE',  ( 0.000000000000000000, 5.000000000000000000, 0.000000000000000000 ) ) ;
#12 = AXIS2_PLACEMENT_3D ( 'NONE', #56, #167, #424 ) ;
#13 = ORIENTED_EDGE ( 'NONE', *, *, #215, .F. ) ;
#14 = CIRCLE ( 'NONE', #53, 0.3999999999999999112 ) ;
#15 =( NAMED_UNIT ( * ) PLANE_ANGLE_UNIT ( ) SI_UNIT ( $, .RADIAN. ) );
#16 = CARTESIAN_POINT ( 'NONE',  ( 0.000000000000000000, 1.000000000000000000, 0.000000000000000000 ) ) ;
#17 = ORIENTED_EDGE ( 'NONE', *, *, #59, .T. ) ;
#18 = EDGE_CURVE ( 'NONE', #90, #371, #273, .T. ) ;
#19 =( LENGTH_UNIT ( ) NAMED_UNIT ( * ) SI_UNIT ( .CENTI., .METRE. ) );
#20 = VERTEX_POINT ( 'NONE', #321 ) ;
#21 = DIRECTION ( 'NONE',  ( 0.000000000000000000, 1.000000000000000000, 0.000000000000000000 ) ) ;
#22 = CIRCLE ( 'NONE', #261, 3.154999999999999361 ) ;
#23 = AXIS2_PLACEMENT_3D ( 'NONE', #235, #295, #194 ) ;
#24 = CARTESIAN_POINT ( 'NONE',  ( 3.863760651309899072E-16, 0.000000000000000000, 3.154999999999999361 ) ) ;
#25 = DIRECTION ( 'NONE',  ( 0.000000000000000000, 0.000000000000000000, 1.000000000000000000 ) ) ;
#26 = CARTESIAN_POINT ( 'NONE',  ( 1.876500000000000057, 0.000000000000000000, -6.894149155800024837E-16 ) ) ;
#27 = PRODUCT_DEFINITION ( 'UNKNOWN', '', #5, #130 ) ;
#28 = DIRECTION ( 'NONE',  ( 0.000000000000000000, 1.000000000000000000, 0.000000000000000000 ) ) ;
#29 = CARTESIAN_POINT ( 'NONE',  ( 1.876500000000000057, 0.000000000000000000, 0.3999999999999992450 ) ) ;
#30 = DIRECTION ( 'NONE',  ( 0.000000000000000000, 1.000000000000000000, 0.000000000000000000 ) ) ;
#31 = CARTESIAN_POINT ( 'NONE',  ( 0.000000000000000000, 5.000000000000000000, -2.634999999999999787 ) ) ;
#32 = EDGE_CURVE ( 'NONE', #122, #216, #117, .T. ) ;
#33 = DIRECTION ( 'NONE',  ( -0.000000000000000000, -1.000000000000000000, -0.000000000000000000 ) ) ;
#34 = CARTESIAN_POINT ( 'NONE',  ( 0.000000000000000000, 1.000000000000000000, -2.634999999999999787 ) ) ;
#35 = FACE_BOUND ( 'NONE', #48, .T. ) ;
#36 = FACE_OUTER_BOUND ( 'NONE', #413, .T. ) ;
#37 = AXIS2_PLACEMENT_3D ( 'NONE', #100, #228, #69 ) ;
#38 = CARTESIAN_POINT ( 'NONE',  ( 0.000000000000000000, 5.000000000000000000, 0.000000000000000000 ) ) ;
#39 = CARTESIAN_POINT ( 'NONE',  ( 0.000000000000000000, 0.000000000000000000, 0.000000000000000000 ) ) ;
#40 = EDGE_LOOP ( 'NONE', ( #354, #376, #10, #343 ) ) ;
#41 = DIRECTION ( 'NONE',  ( 0.000000000000000000, 1.000000000000000000, 0.000000000000000000 ) ) ;
#42 = CYLINDRICAL_SURFACE ( 'NONE', #93, 2.634999999999999787 ) ;
#43 = CARTESIAN_POINT ( 'NONE',  ( -1.876500000000000057, 0.000000000000000000, 0.000000000000000000 ) ) ;
#44 = CIRCLE ( 'NONE', #23, 2.884999999999999787 ) ;
#45 = ORIENTED_EDGE ( 'NONE', *, *, #196, .F. ) ;
#46 = EDGE_CURVE ( 'NONE', #285, #214, #257, .T. ) ;
#47 = CARTESIAN_POINT ( 'NONE',  ( 1.876500000000000057, 0.000000000000000000, -0.4000000000000006328 ) ) ;
#48 = EDGE_LOOP ( 'NONE', ( #335, #82 ) ) ;
#49 = ORIENTED_EDGE ( 'NONE', *, *, #76, .T. ) ;
#50 = STYLED_ITEM ( 'NONE', ( #96 ), #242 ) ;
#51 = EDGE_LOOP ( 'NONE', ( #410, #315, #422, #209 ) ) ;
#52 = AXIS2_PLACEMENT_3D ( 'NONE', #404, #41, #175 ) ;
#53 = AXIS2_PLACEMENT_3D ( 'NONE', #106, #236, #148 ) ;
#54 = VERTEX_POINT ( 'NONE', #252 ) ;
#55 = CARTESIAN_POINT ( 'NONE',  ( 0.000000000000000000, 5.000000000000000000, 0.000000000000000000 ) ) ;
#56 = CARTESIAN_POINT ( 'NONE',  ( 0.000000000000000000, 1.000000000000000000, 0.000000000000000000 ) ) ;
#57 = AXIS2_PLACEMENT_3D ( 'NONE', #365, #202, #195 ) ;
#58 = AXIS2_PLACEMENT_3D ( 'NONE', #241, #372, #208 ) ;
#59 = EDGE_CURVE ( 'NONE', #339, #6, #296, .T. ) ;
#60 = CARTESIAN_POINT ( 'NONE',  ( -1.876500000000000057, 1.000000000000000000, 0.3999999999999993006 ) ) ;
#61 = CARTESIAN_POINT ( 'NONE',  ( 0.000000000000000000, 5.000000000000000000, -2.884999999999999787 ) ) ;
#62 = DIRECTION ( 'NONE',  ( -0.000000000000000000, -1.000000000000000000, -0.000000000000000000 ) ) ;
#63 = EDGE_CURVE ( 'NONE', #113, #214, #102, .T. ) ;
#64 = LINE ( 'NONE', #134, #356 ) ;
#65 = DIRECTION ( 'NONE',  ( -0.000000000000000000, -1.000000000000000000, -0.000000000000000000 ) ) ;
#66 = UNCERTAINTY_MEASURE_WITH_UNIT (LENGTH_MEASURE( 1.000000000000000082E-05 ), #19, 'distance_accuracy_value', 'NONE');
#67 = DIRECTION ( 'NONE',  ( 0.000000000000000000, 0.000000000000000000, 1.000000000000000000 ) ) ;
#68 = DIRECTION ( 'NONE',  ( 0.000000000000000000, 0.000000000000000000, 1.000000000000000000 ) ) ;
#69 = DIRECTION ( 'NONE',  ( 0.000000000000000000, 0.000000000000000000, 1.000000000000000000 ) ) ;
#70 = ORIENTED_EDGE ( 'NONE', *, *, #294, .T. ) ;
#71 = CIRCLE ( 'NONE', #94, 3.154999999999999361 ) ;
#72 = CARTESIAN_POINT ( 'NONE',  ( 0.000000000000000000, 1.000000000000000000, -3.154999999999999361 ) ) ;
#73 = PLANE ( 'NONE',  #52 ) ;
#74 = CARTESIAN_POINT ( 'NONE',  ( 0.000000000000000000, 1.000000000000000000, -3.154999999999999361 ) ) ;
#75 = ORIENTED_EDGE ( 'NONE', *, *, #183, .T. ) ;
#76 = EDGE_CURVE ( 'NONE', #303, #291, #81, .T. ) ;
#77 = AXIS2_PLACEMENT_3D ( 'NONE', #132, #172, #361 ) ;
#78 = VERTEX_POINT ( 'NONE', #24 ) ;
#79 = EDGE_LOOP ( 'NONE', ( #180, #49 ) ) ;
#80 = ORIENTED_EDGE ( 'NONE', *, *, #207, .T. ) ;
#81 = CIRCLE ( 'NONE', #355, 3.154999999999999361 ) ;
#82 = ORIENTED_EDGE ( 'NONE', *, *, #368, .F. ) ;
#83 = ORIENTED_EDGE ( 'NONE', *, *, #46, .F. ) ;
#84 = CARTESIAN_POINT ( 'NONE',  ( 3.226944315753275828E-16, 1.000000000000000000, 2.634999999999999787 ) ) ;
#85 =( NAMED_UNIT ( * ) SI_UNIT ( $, .STERADIAN. ) SOLID_ANGLE_UNIT ( ) );
#86 = DIRECTION ( 'NONE',  ( -0.000000000000000000, -1.000000000000000000, -0.000000000000000000 ) ) ;
#87 = CIRCLE ( 'NONE', #185, 0.3999999999999993006 ) ;
#88 = DIRECTION ( 'NONE',  ( -0.000000000000000000, 1.000000000000000000, -0.000000000000000000 ) ) ;
#89 = EDGE_CURVE ( 'NONE', #303, #78, #391, .T. ) ;
#90 = VERTEX_POINT ( 'NONE', #29 ) ;
#91 = DIRECTION ( 'NONE',  ( 0.000000000000000000, 1.000000000000000000, 0.000000000000000000 ) ) ;
#92 = LINE ( 'NONE', #384, #317 ) ;
#93 = AXIS2_PLACEMENT_3D ( 'NONE', #332, #65, #230 ) ;
#94 = AXIS2_PLACEMENT_3D ( 'NONE', #382, #28, #25 ) ;
#95 = FACE_OUTER_BOUND ( 'NONE', #51, .T. ) ;
#96 = PRESENTATION_STYLE_ASSIGNMENT (( #395 ) ) ;
#97 = DIRECTION ( 'NONE',  ( -0.000000000000000000, 1.000000000000000000, -0.000000000000000000 ) ) ;
#98 = EDGE_CURVE ( 'NONE', #369, #113, #92, .T. ) ;
#99 = CYLINDRICAL_SURFACE ( 'NONE', #392, 3.154999999999999361 ) ;
#100 = CARTESIAN_POINT ( 'NONE',  ( -1.876500000000000057, 1.000000000000000000, 0.000000000000000000 ) ) ;
#101 = ORIENTED_EDGE ( 'NONE', *, *, #176, .T. ) ;
#102 = CIRCLE ( 'NONE', #12, 2.634999999999999787 ) ;
#103 = DIRECTION ( 'NONE',  ( -0.000000000000000000, 1.000000000000000000, -0.000000000000000000 ) ) ;
#104 = DIRECTION ( 'NONE',  ( 0.000000000000000000, 1.000000000000000000, 0.000000000000000000 ) ) ;
#105 = EDGE_LOOP ( 'NONE', ( #316, #8, #186, #246 ) ) ;
#106 = CARTESIAN_POINT ( 'NONE',  ( 1.876500000000000057, 0.000000000000000000, -6.894149155800024837E-16 ) ) ;
#107 = CARTESIAN_POINT ( 'NONE',  ( 3.533106015540114191E-16, 1.000000000000000000, 2.884999999999999787 ) ) ;
#108 = ADVANCED_FACE ( 'NONE', ( #224 ), #255, .F. ) ;
#109 = ORIENTED_EDGE ( 'NONE', *, *, #342, .F. ) ;
#110 = AXIS2_PLACEMENT_3D ( 'NONE', #160, #349, #128 ) ;
#111 = PLANE ( 'NONE',  #58 ) ;
#112 = AXIS2_PLACEMENT_3D ( 'NONE', #7, #304, #144 ) ;
#113 = VERTEX_POINT ( 'NONE', #84 ) ;
#114 = LINE ( 'NONE', #281, #256 ) ;
#115 = ADVANCED_FACE ( 'NONE', ( #322, #386 ), #217, .T. ) ;
#116 = ORIENTED_EDGE ( 'NONE', *, *, #427, .F. ) ;
#117 = CIRCLE ( 'NONE', #110, 2.884999999999999787 ) ;
#118 = ORIENTED_EDGE ( 'NONE', *, *, #18, .F. ) ;
#119 = AXIS2_PLACEMENT_3D ( 'NONE', #16, #156, #9 ) ;
#120 = DIRECTION ( 'NONE',  ( 0.000000000000000000, -0.000000000000000000, 1.000000000000000000 ) ) ;
#121 = ADVANCED_FACE ( 'NONE', ( #221 ), #352, .T. ) ;
#122 = VERTEX_POINT ( 'NONE', #61 ) ;
#123 = CARTESIAN_POINT ( 'NONE',  ( 1.876500000000000057, 0.000000000000000000, -6.894149155800024837E-16 ) ) ;
#124 = PRODUCT_CONTEXT ( 'NONE', #161, 'mechanical' ) ;
#125 = ADVANCED_FACE ( 'NONE', ( #191, #164, #325 ), #293, .F. ) ;
#126 = DIRECTION ( 'NONE',  ( 0.000000000000000000, 0.000000000000000000, 1.000000000000000000 ) ) ;
#127 = CARTESIAN_POINT ( 'NONE',  ( 0.000000000000000000, 1.000000000000000000, 0.000000000000000000 ) ) ;
#128 = DIRECTION ( 'NONE',  ( 0.000000000000000000, 0.000000000000000000, 1.000000000000000000 ) ) ;
#129 = DIRECTION ( 'NONE',  ( 1.000000000000000000, 0.000000000000000000, 0.000000000000000000 ) ) ;
#130 = PRODUCT_DEFINITION_CONTEXT ( 'detailed design', #146, 'design' ) ;
#131 = CARTESIAN_POINT ( 'NONE',  ( -1.876500000000000057, 0.000000000000000000, 0.000000000000000000 ) ) ;
#132 = CARTESIAN_POINT ( 'NONE',  ( 0.000000000000000000, 5.000000000000000000, 0.000000000000000000 ) ) ;
#133 = VECTOR ( 'NONE', #271, 100.0000000000000000 ) ;
#134 = CARTESIAN_POINT ( 'NONE',  ( 1.876500000000000057, 0.000000000000000000, 0.3999999999999992450 ) ) ;
#135 = CYLINDRICAL_SURFACE ( 'NONE', #420, 0.3999999999999999112 ) ;
#136 = EDGE_LOOP ( 'NONE', ( #418, #118, #373, #149 ) ) ;
#137 = ADVANCED_FACE ( 'NONE', ( #36 ), #42, .F. ) ;
#138 = DIRECTION ( 'NONE',  ( 0.000000000000000000, 0.000000000000000000, -1.000000000000000000 ) ) ;
#139 = DIRECTION ( 'NONE',  ( 0.000000000000000000, 0.000000000000000000, 1.000000000000000000 ) ) ;
#140 = DIRECTION ( 'NONE',  ( -0.000000000000000000, -1.000000000000000000, -0.000000000000000000 ) ) ;
#141 = DIRECTION ( 'NONE',  ( -0.000000000000000000, -1.000000000000000000, -0.000000000000000000 ) ) ;
#142 = EDGE_CURVE ( 'NONE', #291, #375, #3, .T. ) ;
#143 =( GEOMETRIC_REPRESENTATION_CONTEXT ( 3 ) GLOBAL_UNCERTAINTY_ASSIGNED_CONTEXT ( ( #66 ) ) GLOBAL_UNIT_ASSIGNED_CONTEXT ( ( #19, #251, #85 ) ) REPRESENTATION_CONTEXT ( 'NONE', 'WORKASPACE' ) );
#144 = DIRECTION ( 'NONE',  ( 0.000000000000000000, 0.000000000000000000, 1.000000000000000000 ) ) ;
#145 = DIRECTION ( 'NONE',  ( -0.000000000000000000, 1.000000000000000000, -0.000000000000000000 ) ) ;
#146 = APPLICATION_CONTEXT ( 'automotive_design' ) ;
#147 = ORIENTED_EDGE ( 'NONE', *, *, #59, .F. ) ;
#148 = DIRECTION ( 'NONE',  ( 0.000000000000000000, 0.000000000000000000, 1.000000000000000000 ) ) ;
#149 = ORIENTED_EDGE ( 'NONE', *, *, #196, .T. ) ;
#150 = FACE_BOUND ( 'NONE', #314, .T. ) ;
#151 = EDGE_LOOP ( 'NONE', ( #155, #101, #210, #282 ) ) ;
#152 = VECTOR ( 'NONE', #141, 100.0000000000000000 ) ;
#153 = CIRCLE ( 'NONE', #254, 0.3999999999999993006 ) ;
#154 = FACE_OUTER_BOUND ( 'NONE', #408, .T. ) ;
#155 = ORIENTED_EDGE ( 'NONE', *, *, #98, .F. ) ;
#156 = DIRECTION ( 'NONE',  ( -0.000000000000000000, -1.000000000000000000, -0.000000000000000000 ) ) ;
#157 = ORIENTED_EDGE ( 'NONE', *, *, #374, .T. ) ;
#158 = EDGE_LOOP ( 'NONE', ( #200, #243 ) ) ;
#159 = AXIS2_PLACEMENT_3D ( 'NONE', #334, #259, #400 ) ;
#160 = CARTESIAN_POINT ( 'NONE',  ( 0.000000000000000000, 5.000000000000000000, 0.000000000000000000 ) ) ;
#161 = APPLICATION_CONTEXT ( 'automotive_design' ) ;
#162 = DIRECTION ( 'NONE',  ( 0.000000000000000000, 1.000000000000000000, 0.000000000000000000 ) ) ;
#163 = DIRECTION ( 'NONE',  ( -0.000000000000000000, 1.000000000000000000, -0.000000000000000000 ) ) ;
#164 = FACE_BOUND ( 'NONE', #289, .T. ) ;
#165 = EDGE_CURVE ( 'NONE', #54, #6, #313, .T. ) ;
#166 = CARTESIAN_POINT ( 'NONE',  ( -1.876500000000000057, 1.000000000000000000, 0.000000000000000000 ) ) ;
#167 = DIRECTION ( 'NONE',  ( 0.000000000000000000, 1.000000000000000000, 0.000000000000000000 ) ) ;
#168 = DIRECTION ( 'NONE',  ( 0.000000000000000000, 1.000000000000000000, 0.000000000000000000 ) ) ;
#169 = DIRECTION ( 'NONE',  ( 0.000000000000000000, 0.000000000000000000, 1.000000000000000000 ) ) ;
#170 = LINE ( 'NONE', #390, #280 ) ;
#171 = EDGE_CURVE ( 'NONE', #375, #78, #363, .T. ) ;
#172 = DIRECTION ( 'NONE',  ( 0.000000000000000000, 1.000000000000000000, 0.000000000000000000 ) ) ;
#173 = DIRECTION ( 'NONE',  ( 0.000000000000000000, 0.000000000000000000, 1.000000000000000000 ) ) ;
#174 = DIRECTION ( 'NONE',  ( 0.000000000000000000, 1.000000000000000000, 0.000000000000000000 ) ) ;
#175 = DIRECTION ( 'NONE',  ( 0.000000000000000000, -0.000000000000000000, 1.000000000000000000 ) ) ;
#176 = EDGE_CURVE ( 'NONE', #369, #285, #279, .T. ) ;
#177 = CARTESIAN_POINT ( 'NONE',  ( 0.000000000000000000, 0.000000000000000000, -3.154999999999999361 ) ) ;
#178 = CARTESIAN_POINT ( 'NONE',  ( -1.876500000000000057, 0.000000000000000000, -0.3999999999999993006 ) ) ;
#179 = AXIS2_PLACEMENT_3D ( 'NONE', #300, #327, #358 ) ;
#180 = ORIENTED_EDGE ( 'NONE', *, *, #269, .T. ) ;
#181 = DIRECTION ( 'NONE',  ( 0.000000000000000000, 1.000000000000000000, 0.000000000000000000 ) ) ;
#182 = VERTEX_POINT ( 'NONE', #107 ) ;
#183 = EDGE_CURVE ( 'NONE', #285, #369, #204, .T. ) ;
#184 = EDGE_LOOP ( 'NONE', ( #237, #274 ) ) ;
#185 = AXIS2_PLACEMENT_3D ( 'NONE', #43, #305, #139 ) ;
#186 = ORIENTED_EDGE ( 'NONE', *, *, #421, .T. ) ;
#187 = ORIENTED_EDGE ( 'NONE', *, *, #32, .T. ) ;
#188 = CARTESIAN_POINT ( 'NONE',  ( 0.000000000000000000, 0.000000000000000000, 0.000000000000000000 ) ) ;
#189 = DIRECTION ( 'NONE',  ( 0.000000000000000000, 0.000000000000000000, 1.000000000000000000 ) ) ;
#190 = CARTESIAN_POINT ( 'NONE',  ( -1.876500000000000057, 0.000000000000000000, 0.3999999999999993006 ) ) ;
#191 = FACE_BOUND ( 'NONE', #158, .T. ) ;
#192 = CARTESIAN_POINT ( 'NONE',  ( 0.000000000000000000, 5.000000000000000000, 0.000000000000000000 ) ) ;
#193 = AXIS2_PLACEMENT_3D ( 'NONE', #405, #104, #433 ) ;
#194 = DIRECTION ( 'NONE',  ( 0.000000000000000000, 0.000000000000000000, 1.000000000000000000 ) ) ;
#195 = DIRECTION ( 'NONE',  ( 0.000000000000000000, 0.000000000000000000, 1.000000000000000000 ) ) ;
#196 = EDGE_CURVE ( 'NONE', #203, #20, #377, .T. ) ;
#197 = DIRECTION ( 'NONE',  ( -0.000000000000000000, 1.000000000000000000, -0.000000000000000000 ) ) ;
#198 = CARTESIAN_POINT ( 'NONE',  ( -1.876500000000000057, 0.000000000000000000, 0.000000000000000000 ) ) ;
#199 = DIRECTION ( 'NONE',  ( 0.000000000000000000, -0.000000000000000000, 1.000000000000000000 ) ) ;
#200 = ORIENTED_EDGE ( 'NONE', *, *, #308, .T. ) ;
#201 = FACE_OUTER_BOUND ( 'NONE', #272, .T. ) ;
#202 = DIRECTION ( 'NONE',  ( 0.000000000000000000, 1.000000000000000000, 0.000000000000000000 ) ) ;
#203 = VERTEX_POINT ( 'NONE', #232 ) ;
#204 = CIRCLE ( 'NONE', #179, 2.634999999999999787 ) ;
#205 = AXIS2_PLACEMENT_3D ( 'NONE', #11, #181, #341 ) ;
#206 = ORIENTED_EDGE ( 'NONE', *, *, #308, .F. ) ;
#207 = EDGE_CURVE ( 'NONE', #278, #54, #265, .T. ) ;
#208 = DIRECTION ( 'NONE',  ( 0.000000000000000000, -0.000000000000000000, 1.000000000000000000 ) ) ;
#209 = ORIENTED_EDGE ( 'NONE', *, *, #142, .F. ) ;
#210 = ORIENTED_EDGE ( 'NONE', *, *, #46, .T. ) ;
#211 = APPLICATION_PROTOCOL_DEFINITION ( 'draft international standard', 'automotive_design', 1998, #161 ) ;
#212 = AXIS2_PLACEMENT_3D ( 'NONE', #55, #62, #320 ) ;
#213 = AXIS2_PLACEMENT_3D ( 'NONE', #166, #397, #173 ) ;
#214 = VERTEX_POINT ( 'NONE', #34 ) ;
#215 = EDGE_CURVE ( 'NONE', #20, #203, #370, .T. ) ;
#216 = VERTEX_POINT ( 'NONE', #336 ) ;
#217 = PLANE ( 'NONE',  #403 ) ;
#218 = UNCERTAINTY_MEASURE_WITH_UNIT (LENGTH_MEASURE( 1.000000000000000082E-05 ), #401, 'distance_accuracy_value', 'NONE');
#219 = AXIS2_PLACEMENT_3D ( 'NONE', #123, #88, #189 ) ;
#220 = DIRECTION ( 'NONE',  ( 0.000000000000000000, 0.000000000000000000, 1.000000000000000000 ) ) ;
#221 = FACE_OUTER_BOUND ( 'NONE', #249, .T. ) ;
#222 = DIRECTION ( 'NONE',  ( 0.000000000000000000, 1.000000000000000000, 0.000000000000000000 ) ) ;
#223 = CARTESIAN_POINT ( 'NONE',  ( 3.863760651309899072E-16, 1.000000000000000000, 3.154999999999999361 ) ) ;
#224 = FACE_OUTER_BOUND ( 'NONE', #136, .T. ) ;
#225 = VECTOR ( 'NONE', #86, 100.0000000000000000 ) ;
#226 = EDGE_CURVE ( 'NONE', #278, #339, #87, .T. ) ;
#227 = CARTESIAN_POINT ( 'NONE',  ( 0.000000000000000000, 1.000000000000000000, -2.884999999999999787 ) ) ;
#228 = DIRECTION ( 'NONE',  ( 0.000000000000000000, 1.000000000000000000, 0.000000000000000000 ) ) ;
#229 = CARTESIAN_POINT ( 'NONE',  ( -1.876500000000000057, 0.000000000000000000, -0.3999999999999993006 ) ) ;
#230 = DIRECTION ( 'NONE',  ( 0.000000000000000000, 0.000000000000000000, -1.000000000000000000 ) ) ;
#231 = FACE_OUTER_BOUND ( 'NONE', #79, .T. ) ;
#232 = CARTESIAN_POINT ( 'NONE',  ( 1.876500000000000057, 1.000000000000000000, 0.3999999999999992450 ) ) ;
#233 = COLOUR_RGB ( '',0.7921568627450980005, 0.8196078431372548767, 0.9333333333333333481 ) ;
#234 = CIRCLE ( 'NONE', #393, 2.634999999999999787 ) ;
#235 = CARTESIAN_POINT ( 'NONE',  ( 0.000000000000000000, 1.000000000000000000, 0.000000000000000000 ) ) ;
#236 = DIRECTION ( 'NONE',  ( 0.000000000000000000, 1.000000000000000000, 0.000000000000000000 ) ) ;
#237 = ORIENTED_EDGE ( 'NONE', *, *, #183, .F. ) ;
#238 = ORIENTED_EDGE ( 'NONE', *, *, #165, .F. ) ;
#239 = CLOSED_SHELL ( 'NONE', ( #137, #121, #331, #240, #245, #415, #411, #275, #125, #108, #319, #115, #337, #253 ) ) ;
#240 = ADVANCED_FACE ( 'NONE', ( #1 ), #135, .F. ) ;
#241 = CARTESIAN_POINT ( 'NONE',  ( 0.000000000000000000, 1.000000000000000000, 0.000000000000000000 ) ) ;
#242 = MANIFOLD_SOLID_BREP ( 'Boss-Extrude2', #239 ) ;
#243 = ORIENTED_EDGE ( 'NONE', *, *, #226, .T. ) ;
#244 = ORIENTED_EDGE ( 'NONE', *, *, #387, .T. ) ;
#245 = ADVANCED_FACE ( 'NONE', ( #95 ), #99, .T. ) ;
#246 = ORIENTED_EDGE ( 'NONE', *, *, #379, .T. ) ;
#247 = AXIS2_PLACEMENT_3D ( 'NONE', #26, #162, #220 ) ;
#248 = VECTOR ( 'NONE', #97, 100.0000000000000000 ) ;
#249 = EDGE_LOOP ( 'NONE', ( #338, #276, #284, #416 ) ) ;
#250 = DIRECTION ( 'NONE',  ( -0.000000000000000000, -1.000000000000000000, -0.000000000000000000 ) ) ;
#251 =( NAMED_UNIT ( * ) PLANE_ANGLE_UNIT ( ) SI_UNIT ( $, .RADIAN. ) );
#252 = CARTESIAN_POINT ( 'NONE',  ( -1.876500000000000057, 1.000000000000000000, -0.3999999999999993006 ) ) ;
#253 = ADVANCED_FACE ( 'NONE', ( #364 ), #423, .F. ) ;
#254 = AXIS2_PLACEMENT_3D ( 'NONE', #299, #168, #367 ) ;
#255 = CYLINDRICAL_SURFACE ( 'NONE', #219, 0.3999999999999999112 ) ;
#256 = VECTOR ( 'NONE', #412, 100.0000000000000000 ) ;
#257 = LINE ( 'NONE', #31, #286 ) ;
#258 = ADVANCED_BREP_SHAPE_REPRESENTATION ( 'Uboltattatchmentpartnosecone', ( #242, #287 ), #143 ) ;
#259 = DIRECTION ( 'NONE',  ( -0.000000000000000000, -1.000000000000000000, -0.000000000000000000 ) ) ;
#260 = CARTESIAN_POINT ( 'NONE',  ( 0.000000000000000000, 1.000000000000000000, 0.000000000000000000 ) ) ;
#261 = AXIS2_PLACEMENT_3D ( 'NONE', #326, #91, #67 ) ;
#262 = CYLINDRICAL_SURFACE ( 'NONE', #292, 2.884999999999999787 ) ;
#263 = SURFACE_STYLE_FILL_AREA ( #398 ) ;
#264 = DIRECTION ( 'NONE',  ( -0.000000000000000000, -1.000000000000000000, -0.000000000000000000 ) ) ;
#265 = LINE ( 'NONE', #178, #133 ) ;
#266 = EDGE_LOOP ( 'NONE', ( #399, #340 ) ) ;
#267 = FACE_OUTER_BOUND ( 'NONE', #105, .T. ) ;
#268 = SURFACE_SIDE_STYLE ('',( #263 ) ) ;
#269 = EDGE_CURVE ( 'NONE', #291, #303, #22, .T. ) ;
#270 = CARTESIAN_POINT ( 'NONE',  ( -1.876500000000000057, 0.000000000000000000, 0.3999999999999993006 ) ) ;
#271 = DIRECTION ( 'NONE',  ( -0.000000000000000000, 1.000000000000000000, -0.000000000000000000 ) ) ;
#272 = EDGE_LOOP ( 'NONE', ( #402, #206, #17, #70 ) ) ;
#273 = CIRCLE ( 'NONE', #247, 0.3999999999999999112 ) ;
#274 = ORIENTED_EDGE ( 'NONE', *, *, #176, .F. ) ;
#275 = ADVANCED_FACE ( 'NONE', ( #35, #231 ), #73, .T. ) ;
#276 = ORIENTED_EDGE ( 'NONE', *, *, #290, .T. ) ;
#277 = FACE_BOUND ( 'NONE', #362, .T. ) ;
#278 = VERTEX_POINT ( 'NONE', #229 ) ;
#279 = CIRCLE ( 'NONE', #77, 2.634999999999999787 ) ;
#280 = VECTOR ( 'NONE', #33, 100.0000000000000000 ) ;
#281 = CARTESIAN_POINT ( 'NONE',  ( 0.000000000000000000, 5.000000000000000000, -2.884999999999999787 ) ) ;
#282 = ORIENTED_EDGE ( 'NONE', *, *, #63, .F. ) ;
#283 =( NAMED_UNIT ( * ) SI_UNIT ( $, .STERADIAN. ) SOLID_ANGLE_UNIT ( ) );
#284 = ORIENTED_EDGE ( 'NONE', *, *, #368, .T. ) ;
#285 = VERTEX_POINT ( 'NONE', #330 ) ;
#286 = VECTOR ( 'NONE', #250, 100.0000000000000000 ) ;
#287 = AXIS2_PLACEMENT_3D ( 'NONE', #389, #425, #129 ) ;
#288 = DIRECTION ( 'NONE',  ( -0.000000000000000000, -1.000000000000000000, -0.000000000000000000 ) ) ;
#289 = EDGE_LOOP ( 'NONE', ( #378, #244 ) ) ;
#290 = EDGE_CURVE ( 'NONE', #216, #182, #170, .T. ) ;
#291 = VERTEX_POINT ( 'NONE', #72 ) ;
#292 = AXIS2_PLACEMENT_3D ( 'NONE', #38, #140, #394 ) ;
#293 = PLANE ( 'NONE',  #429 ) ;
#294 = EDGE_CURVE ( 'NONE', #6, #54, #430, .T. ) ;
#295 = DIRECTION ( 'NONE',  ( 0.000000000000000000, 1.000000000000000000, 0.000000000000000000 ) ) ;
#296 = LINE ( 'NONE', #190, #350 ) ;
#297 = LINE ( 'NONE', #301, #248 ) ;
#298 = ORIENTED_EDGE ( 'NONE', *, *, #171, .F. ) ;
#299 = CARTESIAN_POINT ( 'NONE',  ( -1.876500000000000057, 0.000000000000000000, 0.000000000000000000 ) ) ;
#300 = CARTESIAN_POINT ( 'NONE',  ( 0.000000000000000000, 5.000000000000000000, 0.000000000000000000 ) ) ;
#301 = CARTESIAN_POINT ( 'NONE',  ( 1.876500000000000057, 0.000000000000000000, -0.4000000000000006328 ) ) ;
#302 = DIRECTION ( 'NONE',  ( 0.000000000000000000, 0.000000000000000000, 1.000000000000000000 ) ) ;
#303 = VERTEX_POINT ( 'NONE', #223 ) ;
#304 = DIRECTION ( 'NONE',  ( 0.000000000000000000, 1.000000000000000000, 0.000000000000000000 ) ) ;
#305 = DIRECTION ( 'NONE',  ( 0.000000000000000000, 1.000000000000000000, 0.000000000000000000 ) ) ;
#306 = ORIENTED_EDGE ( 'NONE', *, *, #142, .T. ) ;
#307 =( GEOMETRIC_REPRESENTATION_CONTEXT ( 3 ) GLOBAL_UNCERTAINTY_ASSIGNED_CONTEXT ( ( #218 ) ) GLOBAL_UNIT_ASSIGNED_CONTEXT ( ( #401, #15, #283 ) ) REPRESENTATION_CONTEXT ( 'NONE', 'WORKASPACE' ) );
#308 = EDGE_CURVE ( 'NONE', #339, #278, #153, .T. ) ;
#309 = EDGE_LOOP ( 'NONE', ( #298, #116 ) ) ;
#310 = CYLINDRICAL_SURFACE ( 'NONE', #119, 3.154999999999999361 ) ;
#311 = ORIENTED_EDGE ( 'NONE', *, *, #89, .F. ) ;
#312 = ORIENTED_EDGE ( 'NONE', *, *, #226, .F. ) ;
#313 = CIRCLE ( 'NONE', #37, 0.3999999999999993006 ) ;
#314 = EDGE_LOOP ( 'NONE', ( #45, #13 ) ) ;
#315 = ORIENTED_EDGE ( 'NONE', *, *, #89, .T. ) ;
#316 = ORIENTED_EDGE ( 'NONE', *, *, #290, .F. ) ;
#317 = VECTOR ( 'NONE', #288, 100.0000000000000000 ) ;
#318 = AXIS2_PLACEMENT_3D ( 'NONE', #198, #328, #426 ) ;
#319 = ADVANCED_FACE ( 'NONE', ( #201 ), #357, .F. ) ;
#320 = DIRECTION ( 'NONE',  ( 0.000000000000000000, 0.000000000000000000, -1.000000000000000000 ) ) ;
#321 = CARTESIAN_POINT ( 'NONE',  ( 1.876500000000000057, 1.000000000000000000, -0.4000000000000006328 ) ) ;
#322 = FACE_OUTER_BOUND ( 'NONE', #383, .T. ) ;
#323 = EDGE_CURVE ( 'NONE', #371, #20, #297, .T. ) ;
#324 = DIRECTION ( 'NONE',  ( 0.000000000000000000, 0.000000000000000000, 1.000000000000000000 ) ) ;
#325 = FACE_OUTER_BOUND ( 'NONE', #309, .T. ) ;
#326 = CARTESIAN_POINT ( 'NONE',  ( 0.000000000000000000, 1.000000000000000000, 0.000000000000000000 ) ) ;
#327 = DIRECTION ( 'NONE',  ( 0.000000000000000000, 1.000000000000000000, 0.000000000000000000 ) ) ;
#328 = DIRECTION ( 'NONE',  ( -0.000000000000000000, 1.000000000000000000, -0.000000000000000000 ) ) ;
#329 = AXIS2_PLACEMENT_3D ( 'NONE', #39, #174, #302 ) ;
#330 = CARTESIAN_POINT ( 'NONE',  ( 0.000000000000000000, 5.000000000000000000, -2.634999999999999787 ) ) ;
#331 = ADVANCED_FACE ( 'NONE', ( #360 ), #2, .F. ) ;
#332 = CARTESIAN_POINT ( 'NONE',  ( 0.000000000000000000, 5.000000000000000000, 0.000000000000000000 ) ) ;
#333 = ORIENTED_EDGE ( 'NONE', *, *, #98, .T. ) ;
#334 = CARTESIAN_POINT ( 'NONE',  ( 0.000000000000000000, 5.000000000000000000, 0.000000000000000000 ) ) ;
#335 = ORIENTED_EDGE ( 'NONE', *, *, #379, .F. ) ;
#336 = CARTESIAN_POINT ( 'NONE',  ( 3.533106015540114191E-16, 5.000000000000000000, 2.884999999999999787 ) ) ;
#337 = ADVANCED_FACE ( 'NONE', ( #267 ), #262, .T. ) ;
#338 = ORIENTED_EDGE ( 'NONE', *, *, #374, .F. ) ;
#339 = VERTEX_POINT ( 'NONE', #270 ) ;
#340 = ORIENTED_EDGE ( 'NONE', *, *, #63, .T. ) ;
#341 = DIRECTION ( 'NONE',  ( 0.000000000000000000, 0.000000000000000000, 1.000000000000000000 ) ) ;
#342 = EDGE_CURVE ( 'NONE', #214, #113, #234, .T. ) ;
#343 = ORIENTED_EDGE ( 'NONE', *, *, #348, .F. ) ;
#344 = PRESENTATION_LAYER_ASSIGNMENT (  '', '', ( #50 ) ) ;
#345 = EDGE_LOOP ( 'NONE', ( #312, #80, #417, #147 ) ) ;
#346 = PRODUCT ( 'Uboltattatchmentpartnosecone', 'Uboltattatchmentpartnosecone', '', ( #124 ) ) ;
#347 = VERTEX_POINT ( 'NONE', #227 ) ;
#348 = EDGE_CURVE ( 'NONE', #90, #203, #64, .T. ) ;
#349 = DIRECTION ( 'NONE',  ( 0.000000000000000000, 1.000000000000000000, 0.000000000000000000 ) ) ;
#350 = VECTOR ( 'NONE', #163, 100.0000000000000000 ) ;
#351 = ORIENTED_EDGE ( 'NONE', *, *, #294, .F. ) ;
#352 = CYLINDRICAL_SURFACE ( 'NONE', #212, 2.884999999999999787 ) ;
#353 = APPLICATION_PROTOCOL_DEFINITION ( 'draft international standard', 'automotive_design', 1998, #146 ) ;
#354 = ORIENTED_EDGE ( 'NONE', *, *, #387, .F. ) ;
#355 = AXIS2_PLACEMENT_3D ( 'NONE', #260, #419, #126 ) ;
#356 = VECTOR ( 'NONE', #103, 100.0000000000000000 ) ;
#357 = CYLINDRICAL_SURFACE ( 'NONE', #366, 0.3999999999999993006 ) ;
#358 = DIRECTION ( 'NONE',  ( 0.000000000000000000, 0.000000000000000000, 1.000000000000000000 ) ) ;
#359 = CARTESIAN_POINT ( 'NONE',  ( 3.226944315753275828E-16, 5.000000000000000000, 2.634999999999999787 ) ) ;
#360 = FACE_OUTER_BOUND ( 'NONE', #345, .T. ) ;
#361 = DIRECTION ( 'NONE',  ( 0.000000000000000000, 0.000000000000000000, 1.000000000000000000 ) ) ;
#362 = EDGE_LOOP ( 'NONE', ( #351, #238 ) ) ;
#363 = CIRCLE ( 'NONE', #329, 3.154999999999999361 ) ;
#364 = FACE_OUTER_BOUND ( 'NONE', #151, .T. ) ;
#365 = CARTESIAN_POINT ( 'NONE',  ( 1.876500000000000057, 1.000000000000000000, -6.894149155800024837E-16 ) ) ;
#366 = AXIS2_PLACEMENT_3D ( 'NONE', #131, #197, #324 ) ;
#367 = DIRECTION ( 'NONE',  ( 0.000000000000000000, 0.000000000000000000, 1.000000000000000000 ) ) ;
#368 = EDGE_CURVE ( 'NONE', #182, #347, #44, .T. ) ;
#369 = VERTEX_POINT ( 'NONE', #359 ) ;
#370 = CIRCLE ( 'NONE', #193, 0.3999999999999999112 ) ;
#371 = VERTEX_POINT ( 'NONE', #47 ) ;
#372 = DIRECTION ( 'NONE',  ( 0.000000000000000000, 1.000000000000000000, 0.000000000000000000 ) ) ;
#373 = ORIENTED_EDGE ( 'NONE', *, *, #348, .T. ) ;
#374 = EDGE_CURVE ( 'NONE', #216, #122, #406, .T. ) ;
#375 = VERTEX_POINT ( 'NONE', #177 ) ;
#376 = ORIENTED_EDGE ( 'NONE', *, *, #323, .T. ) ;
#377 = CIRCLE ( 'NONE', #57, 0.3999999999999999112 ) ;
#378 = ORIENTED_EDGE ( 'NONE', *, *, #18, .T. ) ;
#379 = EDGE_CURVE ( 'NONE', #347, #182, #431, .T. ) ;
#380 = SHAPE_DEFINITION_REPRESENTATION ( #381, #258 ) ;
#381 = PRODUCT_DEFINITION_SHAPE ( 'NONE', 'NONE',  #27 ) ;
#382 = CARTESIAN_POINT ( 'NONE',  ( 0.000000000000000000, 0.000000000000000000, 0.000000000000000000 ) ) ;
#383 = EDGE_LOOP ( 'NONE', ( #187, #157 ) ) ;
#384 = CARTESIAN_POINT ( 'NONE',  ( 3.226944315753275828E-16, 5.000000000000000000, 2.634999999999999787 ) ) ;
#385 = MECHANICAL_DESIGN_GEOMETRIC_PRESENTATION_REPRESENTATION (  '', ( #50 ), #307 ) ;
#386 = FACE_BOUND ( 'NONE', #184, .T. ) ;
#387 = EDGE_CURVE ( 'NONE', #371, #90, #14, .T. ) ;
#388 = CARTESIAN_POINT ( 'NONE',  ( 3.863760651309899072E-16, 1.000000000000000000, 3.154999999999999361 ) ) ;
#389 = CARTESIAN_POINT ( 'NONE',  ( 0.000000000000000000, 0.000000000000000000, 0.000000000000000000 ) ) ;
#390 = CARTESIAN_POINT ( 'NONE',  ( 3.533106015540114191E-16, 5.000000000000000000, 2.884999999999999787 ) ) ;
#391 = LINE ( 'NONE', #388, #225 ) ;
#392 = AXIS2_PLACEMENT_3D ( 'NONE', #127, #264, #138 ) ;
#393 = AXIS2_PLACEMENT_3D ( 'NONE', #432, #30, #68 ) ;
#394 = DIRECTION ( 'NONE',  ( 0.000000000000000000, 0.000000000000000000, -1.000000000000000000 ) ) ;
#395 = SURFACE_STYLE_USAGE ( .BOTH. , #268 ) ;
#396 = PRODUCT_RELATED_PRODUCT_CATEGORY ( 'part', '', ( #346 ) ) ;
#397 = DIRECTION ( 'NONE',  ( 0.000000000000000000, 1.000000000000000000, 0.000000000000000000 ) ) ;
#398 = FILL_AREA_STYLE ('',( #428 ) ) ;
#399 = ORIENTED_EDGE ( 'NONE', *, *, #342, .T. ) ;
#400 = DIRECTION ( 'NONE',  ( 0.000000000000000000, 0.000000000000000000, -1.000000000000000000 ) ) ;
#401 =( LENGTH_UNIT ( ) NAMED_UNIT ( * ) SI_UNIT ( .CENTI., .METRE. ) );
#402 = ORIENTED_EDGE ( 'NONE', *, *, #207, .F. ) ;
#403 = AXIS2_PLACEMENT_3D ( 'NONE', #192, #222, #120 ) ;
#404 = CARTESIAN_POINT ( 'NONE',  ( 0.000000000000000000, 1.000000000000000000, 0.000000000000000000 ) ) ;
#405 = CARTESIAN_POINT ( 'NONE',  ( 1.876500000000000057, 1.000000000000000000, -6.894149155800024837E-16 ) ) ;
#406 = CIRCLE ( 'NONE', #205, 2.884999999999999787 ) ;
#407 = ORIENTED_EDGE ( 'NONE', *, *, #269, .F. ) ;
#408 = EDGE_LOOP ( 'NONE', ( #311, #407, #306, #414 ) ) ;
#409 = FACE_OUTER_BOUND ( 'NONE', #266, .T. ) ;
#410 = ORIENTED_EDGE ( 'NONE', *, *, #76, .F. ) ;
#411 = ADVANCED_FACE ( 'NONE', ( #154 ), #310, .T. ) ;
#412 = DIRECTION ( 'NONE',  ( -0.000000000000000000, -1.000000000000000000, -0.000000000000000000 ) ) ;
#413 = EDGE_LOOP ( 'NONE', ( #75, #333, #109, #83 ) ) ;
#414 = ORIENTED_EDGE ( 'NONE', *, *, #171, .T. ) ;
#415 = ADVANCED_FACE ( 'NONE', ( #150, #277, #409 ), #111, .T. ) ;
#416 = ORIENTED_EDGE ( 'NONE', *, *, #421, .F. ) ;
#417 = ORIENTED_EDGE ( 'NONE', *, *, #165, .T. ) ;
#418 = ORIENTED_EDGE ( 'NONE', *, *, #323, .F. ) ;
#419 = DIRECTION ( 'NONE',  ( 0.000000000000000000, 1.000000000000000000, 0.000000000000000000 ) ) ;
#420 = AXIS2_PLACEMENT_3D ( 'NONE', #4, #145, #169 ) ;
#421 = EDGE_CURVE ( 'NONE', #122, #347, #114, .T. ) ;
#422 = ORIENTED_EDGE ( 'NONE', *, *, #427, .T. ) ;
#423 = CYLINDRICAL_SURFACE ( 'NONE', #159, 2.634999999999999787 ) ;
#424 = DIRECTION ( 'NONE',  ( 0.000000000000000000, 0.000000000000000000, 1.000000000000000000 ) ) ;
#425 = DIRECTION ( 'NONE',  ( 0.000000000000000000, 0.000000000000000000, 1.000000000000000000 ) ) ;
#426 = DIRECTION ( 'NONE',  ( 0.000000000000000000, 0.000000000000000000, 1.000000000000000000 ) ) ;
#427 = EDGE_CURVE ( 'NONE', #78, #375, #71, .T. ) ;
#428 = FILL_AREA_STYLE_COLOUR ( '', #233 ) ;
#429 = AXIS2_PLACEMENT_3D ( 'NONE', #188, #21, #199 ) ;
#430 = CIRCLE ( 'NONE', #213, 0.3999999999999993006 ) ;
#431 = CIRCLE ( 'NONE', #112, 2.884999999999999787 ) ;
#432 = CARTESIAN_POINT ( 'NONE',  ( 0.000000000000000000, 1.000000000000000000, 0.000000000000000000 ) ) ;
#433 = DIRECTION ( 'NONE',  ( 0.000000000000000000, 0.000000000000000000, 1.000000000000000000 ) ) ;
ENDSEC;
END-ISO-10303-21;
