ISO-10303-21;
HEADER;
FILE_DESCRIPTION (( 'STEP AP214' ),
    '1' );
FILE_NAME ('uboltnoseconepart.STEP',
    '2026-02-16T06:43:48',
    ( '' ),
    ( '' ),
    'SwSTEP 2.0',
    'SolidWorks 2025',
    '' );
FILE_SCHEMA (( 'AUTOMOTIVE_DESIGN' ));
ENDSEC;

DATA;
#1 = AXIS2_PLACEMENT_3D ( 'NONE', #265, #17, #129 ) ;
#2 = VERTEX_POINT ( 'NONE', #39 ) ;
#3 = EDGE_LOOP ( 'NONE', ( #323, #214, #166, #333 ) ) ;
#4 = EDGE_CURVE ( 'NONE', #198, #275, #207, .T. ) ;
#5 = DIRECTION ( 'NONE',  ( 0.000000000000000000, 0.000000000000000000, 1.000000000000000000 ) ) ;
#6 = AXIS2_PLACEMENT_3D ( 'NONE', #226, #208, #95 ) ;
#7 = LINE ( 'NONE', #128, #297 ) ;
#8 = ORIENTED_EDGE ( 'NONE', *, *, #43, .T. ) ;
#9 = SURFACE_STYLE_USAGE ( .BOTH. , #19 ) ;
#10 = CIRCLE ( 'NONE', #162, 0.3999999999999999112 ) ;
#11 = EDGE_CURVE ( 'NONE', #141, #325, #116, .T. ) ;
#12 = VERTEX_POINT ( 'NONE', #274 ) ;
#13 = CARTESIAN_POINT ( 'NONE',  ( -2.527499999999999858, 1.270000000000000018, -0.4000000000000000222 ) ) ;
#14 = VECTOR ( 'NONE', #335, 100.0000000000000000 ) ;
#15 = CARTESIAN_POINT ( 'NONE',  ( 0.000000000000000000, 0.000000000000000000, 0.000000000000000000 ) ) ;
#16 = CARTESIAN_POINT ( 'NONE',  ( 0.000000000000000000, 0.000000000000000000, 0.000000000000000000 ) ) ;
#17 = DIRECTION ( 'NONE',  ( 0.000000000000000000, 1.000000000000000000, 0.000000000000000000 ) ) ;
#18 = PRODUCT_RELATED_PRODUCT_CATEGORY ( 'part', '', ( #130 ) ) ;
#19 = SURFACE_SIDE_STYLE ('',( #36 ) ) ;
#20 = FACE_OUTER_BOUND ( 'NONE', #223, .T. ) ;
#21 = ORIENTED_EDGE ( 'NONE', *, *, #341, .F. ) ;
#22 = DIRECTION ( 'NONE',  ( 0.000000000000000000, 0.000000000000000000, -1.000000000000000000 ) ) ;
#23 = EDGE_LOOP ( 'NONE', ( #147, #194 ) ) ;
#24 = CARTESIAN_POINT ( 'NONE',  ( 0.000000000000000000, 1.270000000000000018, 0.000000000000000000 ) ) ;
#25 = EDGE_LOOP ( 'NONE', ( #29, #216 ) ) ;
#26 = EDGE_CURVE ( 'NONE', #302, #325, #89, .T. ) ;
#27 = ORIENTED_EDGE ( 'NONE', *, *, #153, .T. ) ;
#28 =( LENGTH_UNIT ( ) NAMED_UNIT ( * ) SI_UNIT ( .CENTI., .METRE. ) );
#29 = ORIENTED_EDGE ( 'NONE', *, *, #185, .F. ) ;
#30 = CARTESIAN_POINT ( 'NONE',  ( 0.000000000000000000, 0.000000000000000000, 0.000000000000000000 ) ) ;
#31 = ORIENTED_EDGE ( 'NONE', *, *, #222, .T. ) ;
#32 = AXIS2_PLACEMENT_3D ( 'NONE', #261, #270, #79 ) ;
#33 = AXIS2_PLACEMENT_3D ( 'NONE', #16, #110, #81 ) ;
#34 = CARTESIAN_POINT ( 'NONE',  ( -2.527499999999999858, 1.270000000000000018, -0.4000000000000000222 ) ) ;
#35 = VERTEX_POINT ( 'NONE', #195 ) ;
#36 = SURFACE_STYLE_FILL_AREA ( #338 ) ;
#37 = CIRCLE ( 'NONE', #33, 3.154999999999999361 ) ;
#38 = ADVANCED_FACE ( 'NONE', ( #119, #300, #171, #339 ), #131, .T. ) ;
#39 = CARTESIAN_POINT ( 'NONE',  ( 0.2833308201211387489, 1.270000000000000018, 2.886813040953647658 ) ) ;
#40 =( LENGTH_UNIT ( ) NAMED_UNIT ( * ) SI_UNIT ( .CENTI., .METRE. ) );
#41 = DIRECTION ( 'NONE',  ( -0.000000000000000000, -1.000000000000000000, -0.000000000000000000 ) ) ;
#42 = CARTESIAN_POINT ( 'NONE',  ( 3.863760651309899072E-16, 0.000000000000000000, 3.154999999999999361 ) ) ;
#43 = EDGE_CURVE ( 'NONE', #2, #85, #288, .T. ) ;
#44 = AXIS2_PLACEMENT_3D ( 'NONE', #137, #127, #163 ) ;
#45 = VECTOR ( 'NONE', #267, 100.0000000000000000 ) ;
#46 = DIRECTION ( 'NONE',  ( 0.000000000000000000, 0.000000000000000000, 1.000000000000000000 ) ) ;
#47 = DIRECTION ( 'NONE',  ( -0.000000000000000000, -1.000000000000000000, -0.000000000000000000 ) ) ;
#48 = CYLINDRICAL_SURFACE ( 'NONE', #161, 1.899999999999999911 ) ;
#49 = DIRECTION ( 'NONE',  ( 0.000000000000000000, 1.000000000000000000, 0.000000000000000000 ) ) ;
#50 = ORIENTED_EDGE ( 'NONE', *, *, #222, .F. ) ;
#51 = DIRECTION ( 'NONE',  ( -0.000000000000000000, -1.000000000000000000, -0.000000000000000000 ) ) ;
#52 = AXIS2_PLACEMENT_3D ( 'NONE', #30, #251, #5 ) ;
#53 = VECTOR ( 'NONE', #100, 100.0000000000000000 ) ;
#54 = ADVANCED_FACE ( 'NONE', ( #78 ), #77, .T. ) ;
#55 = ORIENTED_EDGE ( 'NONE', *, *, #203, .T. ) ;
#56 = ADVANCED_FACE ( 'NONE', ( #154 ), #337, .T. ) ;
#57 = AXIS2_PLACEMENT_3D ( 'NONE', #211, #311, #96 ) ;
#58 = CIRCLE ( 'NONE', #57, 0.4000000000000000222 ) ;
#59 = EDGE_LOOP ( 'NONE', ( #118, #31 ) ) ;
#60 = EDGE_LOOP ( 'NONE', ( #50, #27, #140, #248 ) ) ;
#61 = ORIENTED_EDGE ( 'NONE', *, *, #26, .T. ) ;
#62 = FACE_OUTER_BOUND ( 'NONE', #25, .T. ) ;
#63 = SHAPE_DEFINITION_REPRESENTATION ( #202, #258 ) ;
#64 = ORIENTED_EDGE ( 'NONE', *, *, #331, .F. ) ;
#65 = CIRCLE ( 'NONE', #123, 0.4000000000000000222 ) ;
#66 = CARTESIAN_POINT ( 'NONE',  ( 0.000000000000000000, 1.270000000000000018, -3.154999999999999361 ) ) ;
#67 = CARTESIAN_POINT ( 'NONE',  ( 0.000000000000000000, 0.000000000000000000, 0.000000000000000000 ) ) ;
#68 = EDGE_CURVE ( 'NONE', #306, #320, #287, .T. ) ;
#69 = AXIS2_PLACEMENT_3D ( 'NONE', #213, #158, #112 ) ;
#70 = CIRCLE ( 'NONE', #233, 0.3999999999999999112 ) ;
#71 = ORIENTED_EDGE ( 'NONE', *, *, #289, .T. ) ;
#72 = DIRECTION ( 'NONE',  ( 0.000000000000000000, 0.000000000000000000, -1.000000000000000000 ) ) ;
#73 = FACE_BOUND ( 'NONE', #23, .T. ) ;
#74 = FACE_OUTER_BOUND ( 'NONE', #329, .T. ) ;
#75 = CARTESIAN_POINT ( 'NONE',  ( 0.2833308201211386934, 1.270000000000000018, 2.086813040953647835 ) ) ;
#76 =( GEOMETRIC_REPRESENTATION_CONTEXT ( 3 ) GLOBAL_UNCERTAINTY_ASSIGNED_CONTEXT ( ( #108 ) ) GLOBAL_UNIT_ASSIGNED_CONTEXT ( ( #40, #228, #283 ) ) REPRESENTATION_CONTEXT ( 'NONE', 'WORKASPACE' ) );
#77 = CYLINDRICAL_SURFACE ( 'NONE', #69, 3.154999999999999361 ) ;
#78 = FACE_OUTER_BOUND ( 'NONE', #121, .T. ) ;
#79 = DIRECTION ( 'NONE',  ( 0.000000000000000000, 0.000000000000000000, 1.000000000000000000 ) ) ;
#80 = EDGE_CURVE ( 'NONE', #94, #85, #139, .T. ) ;
#81 = DIRECTION ( 'NONE',  ( 0.000000000000000000, 0.000000000000000000, 1.000000000000000000 ) ) ;
#82 = ORIENTED_EDGE ( 'NONE', *, *, #132, .T. ) ;
#83 = PRODUCT_DEFINITION_CONTEXT ( 'detailed design', #249, 'design' ) ;
#84 = CIRCLE ( 'NONE', #173, 3.154999999999999361 ) ;
#85 = VERTEX_POINT ( 'NONE', #186 ) ;
#86 = APPLICATION_PROTOCOL_DEFINITION ( 'draft international standard', 'automotive_design', 1998, #249 ) ;
#87 = ORIENTED_EDGE ( 'NONE', *, *, #107, .F. ) ;
#88 = ORIENTED_EDGE ( 'NONE', *, *, #68, .T. ) ;
#89 = CIRCLE ( 'NONE', #52, 1.899999999999999911 ) ;
#90 = ORIENTED_EDGE ( 'NONE', *, *, #334, .F. ) ;
#91 = ORIENTED_EDGE ( 'NONE', *, *, #93, .T. ) ;
#92 = LINE ( 'NONE', #75, #45 ) ;
#93 = EDGE_CURVE ( 'NONE', #221, #141, #312, .T. ) ;
#94 = VERTEX_POINT ( 'NONE', #342 ) ;
#95 = DIRECTION ( 'NONE',  ( 0.000000000000000000, 0.000000000000000000, -1.000000000000000000 ) ) ;
#96 = DIRECTION ( 'NONE',  ( 0.000000000000000000, 0.000000000000000000, -1.000000000000000000 ) ) ;
#97 = ORIENTED_EDGE ( 'NONE', *, *, #257, .F. ) ;
#98 = AXIS2_PLACEMENT_3D ( 'NONE', #336, #175, #256 ) ;
#99 = ORIENTED_EDGE ( 'NONE', *, *, #185, .T. ) ;
#100 = DIRECTION ( 'NONE',  ( -0.000000000000000000, -1.000000000000000000, -0.000000000000000000 ) ) ;
#101 = CARTESIAN_POINT ( 'NONE',  ( 0.2833308201211386934, 0.000000000000000000, 2.486813040953647747 ) ) ;
#102 = PRESENTATION_STYLE_ASSIGNMENT (( #9 ) ) ;
#103 = CARTESIAN_POINT ( 'NONE',  ( 0.000000000000000000, 1.270000000000000018, 0.000000000000000000 ) ) ;
#104 = CARTESIAN_POINT ( 'NONE',  ( 0.000000000000000000, 1.270000000000000018, 0.000000000000000000 ) ) ;
#105 = STYLED_ITEM ( 'NONE', ( #102 ), #317 ) ;
#106 = CARTESIAN_POINT ( 'NONE',  ( -2.527499999999999858, 1.270000000000000018, 0.3999999999999998557 ) ) ;
#107 = EDGE_CURVE ( 'NONE', #141, #221, #176, .T. ) ;
#108 = UNCERTAINTY_MEASURE_WITH_UNIT (LENGTH_MEASURE( 1.000000000000000082E-05 ), #40, 'distance_accuracy_value', 'NONE');
#109 = DIRECTION ( 'NONE',  ( -0.000000000000000000, -1.000000000000000000, -0.000000000000000000 ) ) ;
#110 = DIRECTION ( 'NONE',  ( 0.000000000000000000, 1.000000000000000000, 0.000000000000000000 ) ) ;
#111 = ORIENTED_EDGE ( 'NONE', *, *, #143, .F. ) ;
#112 = DIRECTION ( 'NONE',  ( 0.000000000000000000, 0.000000000000000000, -1.000000000000000000 ) ) ;
#113 = AXIS2_PLACEMENT_3D ( 'NONE', #15, #285, #46 ) ;
#114 = AXIS2_PLACEMENT_3D ( 'NONE', #260, #172, #181 ) ;
#115 = EDGE_LOOP ( 'NONE', ( #138, #87 ) ) ;
#116 = LINE ( 'NONE', #170, #219 ) ;
#117 = AXIS2_PLACEMENT_3D ( 'NONE', #101, #209, #22 ) ;
#118 = ORIENTED_EDGE ( 'NONE', *, *, #334, .T. ) ;
#119 = FACE_BOUND ( 'NONE', #59, .T. ) ;
#120 = CARTESIAN_POINT ( 'NONE',  ( 0.2833308201211386934, 1.270000000000000018, 2.486813040953647747 ) ) ;
#121 = EDGE_LOOP ( 'NONE', ( #111, #168, #151, #255 ) ) ;
#122 = ADVANCED_FACE ( 'NONE', ( #74 ), #48, .F. ) ;
#123 = AXIS2_PLACEMENT_3D ( 'NONE', #135, #241, #182 ) ;
#124 = ORIENTED_EDGE ( 'NONE', *, *, #11, .F. ) ;
#125 = CARTESIAN_POINT ( 'NONE',  ( 0.000000000000000000, 1.270000000000000018, -1.899999999999999911 ) ) ;
#126 = AXIS2_PLACEMENT_3D ( 'NONE', #324, #224, #328 ) ;
#127 = DIRECTION ( 'NONE',  ( -0.000000000000000000, -1.000000000000000000, -0.000000000000000000 ) ) ;
#128 = CARTESIAN_POINT ( 'NONE',  ( 0.000000000000000000, 1.270000000000000018, -1.899999999999999911 ) ) ;
#129 = DIRECTION ( 'NONE',  ( 0.000000000000000000, 0.000000000000000000, 1.000000000000000000 ) ) ;
#130 = PRODUCT ( 'uboltnoseconepart', 'uboltnoseconepart', '', ( #197 ) ) ;
#131 = PLANE ( 'NONE',  #184 ) ;
#132 = EDGE_CURVE ( 'NONE', #85, #94, #65, .T. ) ;
#133 = EDGE_LOOP ( 'NONE', ( #232, #231 ) ) ;
#134 = COLOUR_RGB ( '',0.7921568627450980005, 0.8196078431372548767, 0.9333333333333333481 ) ;
#135 = CARTESIAN_POINT ( 'NONE',  ( 0.2833308201211386934, 0.000000000000000000, 2.486813040953647747 ) ) ;
#136 = ORIENTED_EDGE ( 'NONE', *, *, #257, .T. ) ;
#137 = CARTESIAN_POINT ( 'NONE',  ( 0.000000000000000000, 1.270000000000000018, 0.000000000000000000 ) ) ;
#138 = ORIENTED_EDGE ( 'NONE', *, *, #93, .F. ) ;
#139 = CIRCLE ( 'NONE', #117, 0.4000000000000000222 ) ;
#140 = ORIENTED_EDGE ( 'NONE', *, *, #331, .T. ) ;
#141 = VERTEX_POINT ( 'NONE', #315 ) ;
#142 = ORIENTED_EDGE ( 'NONE', *, *, #4, .F. ) ;
#143 = EDGE_CURVE ( 'NONE', #198, #306, #292, .T. ) ;
#144 = MECHANICAL_DESIGN_GEOMETRIC_PRESENTATION_REPRESENTATION (  '', ( #105 ), #76 ) ;
#145 = DIRECTION ( 'NONE',  ( -0.000000000000000000, -1.000000000000000000, -0.000000000000000000 ) ) ;
#146 = LINE ( 'NONE', #13, #53 ) ;
#147 = ORIENTED_EDGE ( 'NONE', *, *, #80, .F. ) ;
#148 = DIRECTION ( 'NONE',  ( 0.000000000000000000, 1.000000000000000000, 0.000000000000000000 ) ) ;
#149 = PRODUCT_DEFINITION ( 'UNKNOWN', '', #319, #83 ) ;
#150 = VECTOR ( 'NONE', #109, 100.0000000000000000 ) ;
#151 = ORIENTED_EDGE ( 'NONE', *, *, #326, .T. ) ;
#152 = DIRECTION ( 'NONE',  ( 0.000000000000000000, 0.000000000000000000, -1.000000000000000000 ) ) ;
#153 = EDGE_CURVE ( 'NONE', #12, #35, #268, .T. ) ;
#154 = FACE_OUTER_BOUND ( 'NONE', #242, .T. ) ;
#155 = DIRECTION ( 'NONE',  ( 0.000000000000000000, 0.000000000000000000, -1.000000000000000000 ) ) ;
#156 = CARTESIAN_POINT ( 'NONE',  ( 3.863760651309899072E-16, 1.270000000000000018, 3.154999999999999361 ) ) ;
#157 = FILL_AREA_STYLE_COLOUR ( '', #134 ) ;
#158 = DIRECTION ( 'NONE',  ( -0.000000000000000000, -1.000000000000000000, -0.000000000000000000 ) ) ;
#159 = ADVANCED_FACE ( 'NONE', ( #20 ), #346, .F. ) ;
#160 = CARTESIAN_POINT ( 'NONE',  ( 0.000000000000000000, 1.270000000000000018, 0.000000000000000000 ) ) ;
#161 = AXIS2_PLACEMENT_3D ( 'NONE', #269, #51, #72 ) ;
#162 = AXIS2_PLACEMENT_3D ( 'NONE', #164, #347, #218 ) ;
#163 = DIRECTION ( 'NONE',  ( 0.000000000000000000, 0.000000000000000000, -1.000000000000000000 ) ) ;
#164 = CARTESIAN_POINT ( 'NONE',  ( -2.527499999999999858, 1.270000000000000018, -7.684658664649639766E-17 ) ) ;
#165 = CARTESIAN_POINT ( 'NONE',  ( 0.2833308201211386934, 1.270000000000000018, 2.086813040953647835 ) ) ;
#166 = ORIENTED_EDGE ( 'NONE', *, *, #217, .T. ) ;
#167 = VECTOR ( 'NONE', #307, 100.0000000000000000 ) ;
#168 = ORIENTED_EDGE ( 'NONE', *, *, #4, .T. ) ;
#169 = APPLICATION_PROTOCOL_DEFINITION ( 'draft international standard', 'automotive_design', 1998, #229 ) ;
#170 = CARTESIAN_POINT ( 'NONE',  ( 2.326828918379970872E-16, 1.270000000000000018, 1.899999999999999911 ) ) ;
#171 = FACE_OUTER_BOUND ( 'NONE', #133, .T. ) ;
#172 = DIRECTION ( 'NONE',  ( 0.000000000000000000, -1.000000000000000000, 0.000000000000000000 ) ) ;
#173 = AXIS2_PLACEMENT_3D ( 'NONE', #104, #294, #271 ) ;
#174 = EDGE_LOOP ( 'NONE', ( #273, #90, #71, #253 ) ) ;
#175 = DIRECTION ( 'NONE',  ( -0.000000000000000000, -1.000000000000000000, -0.000000000000000000 ) ) ;
#176 = CIRCLE ( 'NONE', #332, 1.899999999999999911 ) ;
#177 = ORIENTED_EDGE ( 'NONE', *, *, #203, .F. ) ;
#178 = EDGE_CURVE ( 'NONE', #322, #35, #205, .T. ) ;
#179 = CARTESIAN_POINT ( 'NONE',  ( 0.000000000000000000, 0.000000000000000000, -1.899999999999999911 ) ) ;
#180 = CARTESIAN_POINT ( 'NONE',  ( -2.527499999999999858, 0.000000000000000000, -7.684658664649639766E-17 ) ) ;
#181 = DIRECTION ( 'NONE',  ( 0.000000000000000000, 0.000000000000000000, -1.000000000000000000 ) ) ;
#182 = DIRECTION ( 'NONE',  ( 0.000000000000000000, 0.000000000000000000, -1.000000000000000000 ) ) ;
#183 = DIRECTION ( 'NONE',  ( 0.000000000000000000, 0.000000000000000000, -1.000000000000000000 ) ) ;
#184 = AXIS2_PLACEMENT_3D ( 'NONE', #235, #237, #344 ) ;
#185 = EDGE_CURVE ( 'NONE', #320, #275, #262, .T. ) ;
#186 = CARTESIAN_POINT ( 'NONE',  ( 0.2833308201211387489, 0.000000000000000000, 2.886813040953647658 ) ) ;
#187 = DIRECTION ( 'NONE',  ( 0.000000000000000000, 0.000000000000000000, -1.000000000000000000 ) ) ;
#188 = CARTESIAN_POINT ( 'NONE',  ( 0.2833308201211387489, 1.270000000000000018, 2.886813040953647658 ) ) ;
#189 = AXIS2_PLACEMENT_3D ( 'NONE', #278, #236, #183 ) ;
#190 = ORIENTED_EDGE ( 'NONE', *, *, #299, .T. ) ;
#191 = EDGE_LOOP ( 'NONE', ( #61, #55 ) ) ;
#192 = PRESENTATION_LAYER_ASSIGNMENT (  '', '', ( #105 ) ) ;
#193 =( NAMED_UNIT ( * ) SI_UNIT ( $, .STERADIAN. ) SOLID_ANGLE_UNIT ( ) );
#194 = ORIENTED_EDGE ( 'NONE', *, *, #132, .F. ) ;
#195 = CARTESIAN_POINT ( 'NONE',  ( -2.527499999999999858, 0.000000000000000000, 0.3999999999999998557 ) ) ;
#196 = CYLINDRICAL_SURFACE ( 'NONE', #252, 0.4000000000000000222 ) ;
#197 = PRODUCT_CONTEXT ( 'NONE', #229, 'mechanical' ) ;
#198 = VERTEX_POINT ( 'NONE', #156 ) ;
#199 = DIRECTION ( 'NONE',  ( -0.000000000000000000, -1.000000000000000000, -0.000000000000000000 ) ) ;
#200 = VECTOR ( 'NONE', #238, 100.0000000000000000 ) ;
#201 = FACE_OUTER_BOUND ( 'NONE', #174, .T. ) ;
#202 = PRODUCT_DEFINITION_SHAPE ( 'NONE', 'NONE',  #149 ) ;
#203 = EDGE_CURVE ( 'NONE', #325, #302, #212, .T. ) ;
#204 = ORIENTED_EDGE ( 'NONE', *, *, #107, .T. ) ;
#205 = CIRCLE ( 'NONE', #318, 0.3999999999999999112 ) ;
#206 = AXIS2_PLACEMENT_3D ( 'NONE', #254, #47, #152 ) ;
#207 = LINE ( 'NONE', #259, #14 ) ;
#208 = DIRECTION ( 'NONE',  ( 0.000000000000000000, -1.000000000000000000, 0.000000000000000000 ) ) ;
#209 = DIRECTION ( 'NONE',  ( 0.000000000000000000, -1.000000000000000000, 0.000000000000000000 ) ) ;
#210 = EDGE_CURVE ( 'NONE', #343, #2, #58, .T. ) ;
#211 = CARTESIAN_POINT ( 'NONE',  ( 0.2833308201211386934, 1.270000000000000018, 2.486813040953647747 ) ) ;
#212 = CIRCLE ( 'NONE', #1, 1.899999999999999911 ) ;
#213 = CARTESIAN_POINT ( 'NONE',  ( 0.000000000000000000, 1.270000000000000018, 0.000000000000000000 ) ) ;
#214 = ORIENTED_EDGE ( 'NONE', *, *, #210, .F. ) ;
#215 = DIRECTION ( 'NONE',  ( 0.000000000000000000, 0.000000000000000000, 1.000000000000000000 ) ) ;
#216 = ORIENTED_EDGE ( 'NONE', *, *, #326, .F. ) ;
#217 = EDGE_CURVE ( 'NONE', #343, #94, #92, .T. ) ;
#218 = DIRECTION ( 'NONE',  ( 0.000000000000000000, 0.000000000000000000, -1.000000000000000000 ) ) ;
#219 = VECTOR ( 'NONE', #145, 100.0000000000000000 ) ;
#220 = CIRCLE ( 'NONE', #114, 0.3999999999999999112 ) ;
#221 = VERTEX_POINT ( 'NONE', #125 ) ;
#222 = EDGE_CURVE ( 'NONE', #12, #225, #220, .T. ) ;
#223 = EDGE_LOOP ( 'NONE', ( #124, #204, #190, #177 ) ) ;
#224 = DIRECTION ( 'NONE',  ( 0.000000000000000000, 0.000000000000000000, 1.000000000000000000 ) ) ;
#225 = VERTEX_POINT ( 'NONE', #34 ) ;
#226 = CARTESIAN_POINT ( 'NONE',  ( 0.2833308201211386934, 1.270000000000000018, 2.486813040953647747 ) ) ;
#227 = CYLINDRICAL_SURFACE ( 'NONE', #189, 0.3999999999999999112 ) ;
#228 =( NAMED_UNIT ( * ) PLANE_ANGLE_UNIT ( ) SI_UNIT ( $, .RADIAN. ) );
#229 = APPLICATION_CONTEXT ( 'automotive_design' ) ;
#230 = UNCERTAINTY_MEASURE_WITH_UNIT (LENGTH_MEASURE( 1.000000000000000082E-05 ), #28, 'distance_accuracy_value', 'NONE');
#231 = ORIENTED_EDGE ( 'NONE', *, *, #143, .T. ) ;
#232 = ORIENTED_EDGE ( 'NONE', *, *, #341, .T. ) ;
#233 = AXIS2_PLACEMENT_3D ( 'NONE', #291, #340, #321 ) ;
#234 = CYLINDRICAL_SURFACE ( 'NONE', #98, 0.3999999999999999112 ) ;
#235 = CARTESIAN_POINT ( 'NONE',  ( 0.000000000000000000, 1.270000000000000018, 0.000000000000000000 ) ) ;
#236 = DIRECTION ( 'NONE',  ( -0.000000000000000000, -1.000000000000000000, -0.000000000000000000 ) ) ;
#237 = DIRECTION ( 'NONE',  ( 0.000000000000000000, 1.000000000000000000, 0.000000000000000000 ) ) ;
#238 = DIRECTION ( 'NONE',  ( -0.000000000000000000, -1.000000000000000000, -0.000000000000000000 ) ) ;
#239 = AXIS2_PLACEMENT_3D ( 'NONE', #67, #148, #308 ) ;
#240 = EDGE_LOOP ( 'NONE', ( #316, #136 ) ) ;
#241 = DIRECTION ( 'NONE',  ( 0.000000000000000000, -1.000000000000000000, 0.000000000000000000 ) ) ;
#242 = EDGE_LOOP ( 'NONE', ( #142, #21, #88, #99 ) ) ;
#243 = ADVANCED_FACE ( 'NONE', ( #310 ), #196, .F. ) ;
#244 = CARTESIAN_POINT ( 'NONE',  ( 0.000000000000000000, 1.270000000000000018, -3.154999999999999361 ) ) ;
#245 = CARTESIAN_POINT ( 'NONE',  ( 2.326828918379970872E-16, 0.000000000000000000, 1.899999999999999911 ) ) ;
#246 = EDGE_LOOP ( 'NONE', ( #97, #8, #82, #281 ) ) ;
#247 = ADVANCED_FACE ( 'NONE', ( #284 ), #227, .F. ) ;
#248 = ORIENTED_EDGE ( 'NONE', *, *, #289, .F. ) ;
#249 = APPLICATION_CONTEXT ( 'automotive_design' ) ;
#250 = ORIENTED_EDGE ( 'NONE', *, *, #299, .F. ) ;
#251 = DIRECTION ( 'NONE',  ( 0.000000000000000000, 1.000000000000000000, 0.000000000000000000 ) ) ;
#252 = AXIS2_PLACEMENT_3D ( 'NONE', #120, #330, #155 ) ;
#253 = ORIENTED_EDGE ( 'NONE', *, *, #178, .T. ) ;
#254 = CARTESIAN_POINT ( 'NONE',  ( 0.2833308201211386934, 1.270000000000000018, 2.486813040953647747 ) ) ;
#255 = ORIENTED_EDGE ( 'NONE', *, *, #68, .F. ) ;
#256 = DIRECTION ( 'NONE',  ( 0.000000000000000000, 0.000000000000000000, -1.000000000000000000 ) ) ;
#257 = EDGE_CURVE ( 'NONE', #2, #343, #304, .T. ) ;
#258 = ADVANCED_BREP_SHAPE_REPRESENTATION ( 'uboltnoseconepart', ( #317, #126 ), #263 ) ;
#259 = CARTESIAN_POINT ( 'NONE',  ( 3.863760651309899072E-16, 1.270000000000000018, 3.154999999999999361 ) ) ;
#260 = CARTESIAN_POINT ( 'NONE',  ( -2.527499999999999858, 1.270000000000000018, -7.684658664649639766E-17 ) ) ;
#261 = CARTESIAN_POINT ( 'NONE',  ( 0.000000000000000000, 1.270000000000000018, 0.000000000000000000 ) ) ;
#262 = CIRCLE ( 'NONE', #113, 3.154999999999999361 ) ;
#263 =( GEOMETRIC_REPRESENTATION_CONTEXT ( 3 ) GLOBAL_UNCERTAINTY_ASSIGNED_CONTEXT ( ( #230 ) ) GLOBAL_UNIT_ASSIGNED_CONTEXT ( ( #28, #295, #193 ) ) REPRESENTATION_CONTEXT ( 'NONE', 'WORKASPACE' ) );
#264 = CYLINDRICAL_SURFACE ( 'NONE', #206, 0.4000000000000000222 ) ;
#265 = CARTESIAN_POINT ( 'NONE',  ( 0.000000000000000000, 0.000000000000000000, 0.000000000000000000 ) ) ;
#266 = CARTESIAN_POINT ( 'NONE',  ( 0.000000000000000000, 0.000000000000000000, -3.154999999999999361 ) ) ;
#267 = DIRECTION ( 'NONE',  ( -0.000000000000000000, -1.000000000000000000, -0.000000000000000000 ) ) ;
#268 = LINE ( 'NONE', #106, #167 ) ;
#269 = CARTESIAN_POINT ( 'NONE',  ( 0.000000000000000000, 1.270000000000000018, 0.000000000000000000 ) ) ;
#270 = DIRECTION ( 'NONE',  ( 0.000000000000000000, 1.000000000000000000, 0.000000000000000000 ) ) ;
#271 = DIRECTION ( 'NONE',  ( 0.000000000000000000, 0.000000000000000000, 1.000000000000000000 ) ) ;
#272 = ADVANCED_FACE ( 'NONE', ( #301, #73, #62, #286 ), #280, .F. ) ;
#273 = ORIENTED_EDGE ( 'NONE', *, *, #153, .F. ) ;
#274 = CARTESIAN_POINT ( 'NONE',  ( -2.527499999999999858, 1.270000000000000018, 0.3999999999999998557 ) ) ;
#275 = VERTEX_POINT ( 'NONE', #42 ) ;
#276 = ADVANCED_FACE ( 'NONE', ( #303 ), #264, .F. ) ;
#277 = AXIS2_PLACEMENT_3D ( 'NONE', #24, #41, #314 ) ;
#278 = CARTESIAN_POINT ( 'NONE',  ( -2.527499999999999858, 1.270000000000000018, -7.684658664649639766E-17 ) ) ;
#279 = ORIENTED_EDGE ( 'NONE', *, *, #11, .T. ) ;
#280 = PLANE ( 'NONE',  #239 ) ;
#281 = ORIENTED_EDGE ( 'NONE', *, *, #217, .F. ) ;
#282 = DIRECTION ( 'NONE',  ( 0.000000000000000000, -1.000000000000000000, 0.000000000000000000 ) ) ;
#283 =( NAMED_UNIT ( * ) SI_UNIT ( $, .STERADIAN. ) SOLID_ANGLE_UNIT ( ) );
#284 = FACE_OUTER_BOUND ( 'NONE', #60, .T. ) ;
#285 = DIRECTION ( 'NONE',  ( 0.000000000000000000, 1.000000000000000000, 0.000000000000000000 ) ) ;
#286 = FACE_BOUND ( 'NONE', #191, .T. ) ;
#287 = LINE ( 'NONE', #244, #200 ) ;
#288 = LINE ( 'NONE', #188, #150 ) ;
#289 = EDGE_CURVE ( 'NONE', #225, #322, #146, .T. ) ;
#290 = DIRECTION ( 'NONE',  ( 0.000000000000000000, 1.000000000000000000, 0.000000000000000000 ) ) ;
#291 = CARTESIAN_POINT ( 'NONE',  ( -2.527499999999999858, 0.000000000000000000, -7.684658664649639766E-17 ) ) ;
#292 = CIRCLE ( 'NONE', #32, 3.154999999999999361 ) ;
#293 = ORIENTED_EDGE ( 'NONE', *, *, #26, .F. ) ;
#294 = DIRECTION ( 'NONE',  ( 0.000000000000000000, 1.000000000000000000, 0.000000000000000000 ) ) ;
#295 =( NAMED_UNIT ( * ) PLANE_ANGLE_UNIT ( ) SI_UNIT ( $, .RADIAN. ) );
#296 = CLOSED_SHELL ( 'NONE', ( #247, #243, #122, #54, #38, #272, #56, #159, #276, #313 ) ) ;
#297 = VECTOR ( 'NONE', #199, 100.0000000000000000 ) ;
#298 = ORIENTED_EDGE ( 'NONE', *, *, #178, .F. ) ;
#299 = EDGE_CURVE ( 'NONE', #221, #302, #7, .T. ) ;
#300 = FACE_BOUND ( 'NONE', #240, .T. ) ;
#301 = FACE_BOUND ( 'NONE', #327, .T. ) ;
#302 = VERTEX_POINT ( 'NONE', #179 ) ;
#303 = FACE_OUTER_BOUND ( 'NONE', #3, .T. ) ;
#304 = CIRCLE ( 'NONE', #6, 0.4000000000000000222 ) ;
#305 = AXIS2_PLACEMENT_3D ( 'NONE', #103, #49, #309 ) ;
#306 = VERTEX_POINT ( 'NONE', #66 ) ;
#307 = DIRECTION ( 'NONE',  ( -0.000000000000000000, -1.000000000000000000, -0.000000000000000000 ) ) ;
#308 = DIRECTION ( 'NONE',  ( 0.000000000000000000, -0.000000000000000000, 1.000000000000000000 ) ) ;
#309 = DIRECTION ( 'NONE',  ( 0.000000000000000000, 0.000000000000000000, 1.000000000000000000 ) ) ;
#310 = FACE_OUTER_BOUND ( 'NONE', #246, .T. ) ;
#311 = DIRECTION ( 'NONE',  ( 0.000000000000000000, -1.000000000000000000, 0.000000000000000000 ) ) ;
#312 = CIRCLE ( 'NONE', #305, 1.899999999999999911 ) ;
#313 = ADVANCED_FACE ( 'NONE', ( #201 ), #234, .F. ) ;
#314 = DIRECTION ( 'NONE',  ( 0.000000000000000000, 0.000000000000000000, -1.000000000000000000 ) ) ;
#315 = CARTESIAN_POINT ( 'NONE',  ( 2.326828918379970872E-16, 1.270000000000000018, 1.899999999999999911 ) ) ;
#316 = ORIENTED_EDGE ( 'NONE', *, *, #210, .T. ) ;
#317 = MANIFOLD_SOLID_BREP ( 'Cut-Extrude1', #296 ) ;
#318 = AXIS2_PLACEMENT_3D ( 'NONE', #180, #282, #187 ) ;
#319 = PRODUCT_DEFINITION_FORMATION_WITH_SPECIFIED_SOURCE ( 'ANY', '', #130, .NOT_KNOWN. ) ;
#320 = VERTEX_POINT ( 'NONE', #266 ) ;
#321 = DIRECTION ( 'NONE',  ( 0.000000000000000000, 0.000000000000000000, -1.000000000000000000 ) ) ;
#322 = VERTEX_POINT ( 'NONE', #345 ) ;
#323 = ORIENTED_EDGE ( 'NONE', *, *, #43, .F. ) ;
#324 = CARTESIAN_POINT ( 'NONE',  ( 0.000000000000000000, 0.000000000000000000, 0.000000000000000000 ) ) ;
#325 = VERTEX_POINT ( 'NONE', #245 ) ;
#326 = EDGE_CURVE ( 'NONE', #275, #320, #37, .T. ) ;
#327 = EDGE_LOOP ( 'NONE', ( #298, #64 ) ) ;
#328 = DIRECTION ( 'NONE',  ( 1.000000000000000000, 0.000000000000000000, 0.000000000000000000 ) ) ;
#329 = EDGE_LOOP ( 'NONE', ( #91, #279, #293, #250 ) ) ;
#330 = DIRECTION ( 'NONE',  ( -0.000000000000000000, -1.000000000000000000, -0.000000000000000000 ) ) ;
#331 = EDGE_CURVE ( 'NONE', #35, #322, #70, .T. ) ;
#332 = AXIS2_PLACEMENT_3D ( 'NONE', #160, #290, #215 ) ;
#333 = ORIENTED_EDGE ( 'NONE', *, *, #80, .T. ) ;
#334 = EDGE_CURVE ( 'NONE', #225, #12, #10, .T. ) ;
#335 = DIRECTION ( 'NONE',  ( -0.000000000000000000, -1.000000000000000000, -0.000000000000000000 ) ) ;
#336 = CARTESIAN_POINT ( 'NONE',  ( -2.527499999999999858, 1.270000000000000018, -7.684658664649639766E-17 ) ) ;
#337 = CYLINDRICAL_SURFACE ( 'NONE', #44, 3.154999999999999361 ) ;
#338 = FILL_AREA_STYLE ('',( #157 ) ) ;
#339 = FACE_BOUND ( 'NONE', #115, .T. ) ;
#340 = DIRECTION ( 'NONE',  ( 0.000000000000000000, -1.000000000000000000, 0.000000000000000000 ) ) ;
#341 = EDGE_CURVE ( 'NONE', #306, #198, #84, .T. ) ;
#342 = CARTESIAN_POINT ( 'NONE',  ( 0.2833308201211386934, 0.000000000000000000, 2.086813040953647835 ) ) ;
#343 = VERTEX_POINT ( 'NONE', #165 ) ;
#344 = DIRECTION ( 'NONE',  ( 0.000000000000000000, -0.000000000000000000, 1.000000000000000000 ) ) ;
#345 = CARTESIAN_POINT ( 'NONE',  ( -2.527499999999999858, 0.000000000000000000, -0.4000000000000000222 ) ) ;
#346 = CYLINDRICAL_SURFACE ( 'NONE', #277, 1.899999999999999911 ) ;
#347 = DIRECTION ( 'NONE',  ( 0.000000000000000000, -1.000000000000000000, 0.000000000000000000 ) ) ;
ENDSEC;
END-ISO-10303-21;
