ISO-10303-21;
HEADER;
FILE_DESCRIPTION (( 'STEP AP214' ),
    '1' );
FILE_NAME ('uboltattatchmentpart.STEP',
    '2026-02-16T07:47:57',
    ( '' ),
    ( '' ),
    'SwSTEP 2.0',
    'SolidWorks 2025',
    '' );
FILE_SCHEMA (( 'AUTOMOTIVE_DESIGN' ));
ENDSEC;

DATA;
#1 = CIRCLE ( 'NONE', #237, 3.154999999999999361 ) ;
#2 = ORIENTED_EDGE ( 'NONE', *, *, #179, .F. ) ;
#3 = DIRECTION ( 'NONE',  ( 0.000000000000000000, 0.000000000000000000, 1.000000000000000000 ) ) ;
#4 = AXIS2_PLACEMENT_3D ( 'NONE', #235, #231, #47 ) ;
#5 = ORIENTED_EDGE ( 'NONE', *, *, #57, .F. ) ;
#6 = ORIENTED_EDGE ( 'NONE', *, *, #203, .T. ) ;
#7 = DIRECTION ( 'NONE',  ( -0.000000000000000000, -1.000000000000000000, -0.000000000000000000 ) ) ;
#8 = DIRECTION ( 'NONE',  ( 0.000000000000000000, -1.000000000000000000, 0.000000000000000000 ) ) ;
#9 = DIRECTION ( 'NONE',  ( 0.000000000000000000, 0.000000000000000000, 1.000000000000000000 ) ) ;
#10 = PRODUCT ( 'uboltattatchmentpart', 'uboltattatchmentpart', '', ( #342 ) ) ;
#11 = SURFACE_STYLE_USAGE ( .BOTH. , #193 ) ;
#12 = FACE_OUTER_BOUND ( 'NONE', #215, .T. ) ;
#13 = CARTESIAN_POINT ( 'NONE',  ( 0.000000000000000000, 1.270000000000000018, 0.000000000000000000 ) ) ;
#14 = AXIS2_PLACEMENT_3D ( 'NONE', #280, #164, #336 ) ;
#15 = CARTESIAN_POINT ( 'NONE',  ( 0.2833308201211386934, 1.270000000000000018, 2.486813040953647747 ) ) ;
#16 = CARTESIAN_POINT ( 'NONE',  ( 0.000000000000000000, 1.270000000000000018, 0.000000000000000000 ) ) ;
#17 = EDGE_CURVE ( 'NONE', #133, #159, #178, .T. ) ;
#18 = CARTESIAN_POINT ( 'NONE',  ( -2.527499999999999858, 1.270000000000000018, 0.4149999999999999800 ) ) ;
#19 = EDGE_LOOP ( 'NONE', ( #244, #295, #6, #104 ) ) ;
#20 = LINE ( 'NONE', #41, #260 ) ;
#21 = VERTEX_POINT ( 'NONE', #213 ) ;
#22 = LINE ( 'NONE', #262, #46 ) ;
#23 = ORIENTED_EDGE ( 'NONE', *, *, #207, .F. ) ;
#24 = EDGE_LOOP ( 'NONE', ( #296, #76, #236, #187 ) ) ;
#25 = AXIS2_PLACEMENT_3D ( 'NONE', #143, #255, #111 ) ;
#26 = DIRECTION ( 'NONE',  ( 0.000000000000000000, -0.000000000000000000, 1.000000000000000000 ) ) ;
#27 = ADVANCED_FACE ( 'NONE', ( #90 ), #313, .F. ) ;
#28 = ORIENTED_EDGE ( 'NONE', *, *, #265, .T. ) ;
#29 = EDGE_LOOP ( 'NONE', ( #50, #151 ) ) ;
#30 = EDGE_CURVE ( 'NONE', #294, #261, #214, .T. ) ;
#31 = ORIENTED_EDGE ( 'NONE', *, *, #154, .F. ) ;
#32 = CIRCLE ( 'NONE', #232, 0.4150000000000000910 ) ;
#33 = CARTESIAN_POINT ( 'NONE',  ( 0.000000000000000000, 0.000000000000000000, -1.899999999999999911 ) ) ;
#34 = CARTESIAN_POINT ( 'NONE',  ( 0.2833308201211387489, 1.270000000000000018, 2.901813040953647782 ) ) ;
#35 = DIRECTION ( 'NONE',  ( 0.000000000000000000, -1.000000000000000000, 0.000000000000000000 ) ) ;
#36 = FACE_OUTER_BOUND ( 'NONE', #121, .T. ) ;
#37 = DIRECTION ( 'NONE',  ( 0.000000000000000000, 0.000000000000000000, -1.000000000000000000 ) ) ;
#38 = EDGE_CURVE ( 'NONE', #69, #243, #22, .T. ) ;
#39 = AXIS2_PLACEMENT_3D ( 'NONE', #166, #141, #171 ) ;
#40 = CARTESIAN_POINT ( 'NONE',  ( 0.000000000000000000, 0.000000000000000000, 0.000000000000000000 ) ) ;
#41 = CARTESIAN_POINT ( 'NONE',  ( 0.2833308201211387489, 1.270000000000000018, 2.901813040953647782 ) ) ;
#42 = VERTEX_POINT ( 'NONE', #344 ) ;
#43 = DIRECTION ( 'NONE',  ( -0.000000000000000000, -1.000000000000000000, -0.000000000000000000 ) ) ;
#44 = ORIENTED_EDGE ( 'NONE', *, *, #292, .F. ) ;
#45 = CARTESIAN_POINT ( 'NONE',  ( -2.527499999999999858, 1.270000000000000018, -7.684658664649639766E-17 ) ) ;
#46 = VECTOR ( 'NONE', #149, 100.0000000000000000 ) ;
#47 = DIRECTION ( 'NONE',  ( 0.000000000000000000, 0.000000000000000000, 1.000000000000000000 ) ) ;
#48 = EDGE_LOOP ( 'NONE', ( #95, #66 ) ) ;
#49 = EDGE_LOOP ( 'NONE', ( #266, #324 ) ) ;
#50 = ORIENTED_EDGE ( 'NONE', *, *, #30, .T. ) ;
#51 = ORIENTED_EDGE ( 'NONE', *, *, #38, .T. ) ;
#52 = VECTOR ( 'NONE', #340, 100.0000000000000000 ) ;
#53 = AXIS2_PLACEMENT_3D ( 'NONE', #170, #194, #250 ) ;
#54 = CARTESIAN_POINT ( 'NONE',  ( 0.000000000000000000, 1.270000000000000018, -3.154999999999999361 ) ) ;
#55 =( LENGTH_UNIT ( ) NAMED_UNIT ( * ) SI_UNIT ( .CENTI., .METRE. ) );
#56 = FACE_OUTER_BOUND ( 'NONE', #327, .T. ) ;
#57 = EDGE_CURVE ( 'NONE', #347, #42, #20, .T. ) ;
#58 = AXIS2_PLACEMENT_3D ( 'NONE', #208, #291, #93 ) ;
#59 = CARTESIAN_POINT ( 'NONE',  ( -2.527499999999999858, 1.270000000000000018, -7.684658664649639766E-17 ) ) ;
#60 = DIRECTION ( 'NONE',  ( 0.000000000000000000, 1.000000000000000000, 0.000000000000000000 ) ) ;
#61 = DIRECTION ( 'NONE',  ( 0.000000000000000000, 1.000000000000000000, 0.000000000000000000 ) ) ;
#62 = CARTESIAN_POINT ( 'NONE',  ( 0.2833308201211386934, 1.270000000000000018, 2.071813040953647711 ) ) ;
#63 = CARTESIAN_POINT ( 'NONE',  ( -2.527499999999999858, 1.270000000000000018, 0.4149999999999999800 ) ) ;
#64 = DIRECTION ( 'NONE',  ( -0.000000000000000000, -1.000000000000000000, -0.000000000000000000 ) ) ;
#65 = CARTESIAN_POINT ( 'NONE',  ( 0.000000000000000000, 1.270000000000000018, 0.000000000000000000 ) ) ;
#66 = ORIENTED_EDGE ( 'NONE', *, *, #134, .T. ) ;
#67 = DIRECTION ( 'NONE',  ( 0.000000000000000000, -1.000000000000000000, 0.000000000000000000 ) ) ;
#68 = AXIS2_PLACEMENT_3D ( 'NONE', #276, #8, #106 ) ;
#69 = VERTEX_POINT ( 'NONE', #120 ) ;
#70 = PRODUCT_RELATED_PRODUCT_CATEGORY ( 'part', '', ( #10 ) ) ;
#71 = ORIENTED_EDGE ( 'NONE', *, *, #341, .T. ) ;
#72 = CIRCLE ( 'NONE', #183, 1.899999999999999911 ) ;
#73 = VERTEX_POINT ( 'NONE', #346 ) ;
#74 = EDGE_CURVE ( 'NONE', #261, #294, #72, .T. ) ;
#75 = ORIENTED_EDGE ( 'NONE', *, *, #196, .F. ) ;
#76 = ORIENTED_EDGE ( 'NONE', *, *, #57, .T. ) ;
#77 = COLOUR_RGB ( '',0.7921568627450980005, 0.8196078431372548767, 0.9333333333333333481 ) ;
#78 = SURFACE_STYLE_FILL_AREA ( #310 ) ;
#79 = CARTESIAN_POINT ( 'NONE',  ( -2.527499999999999858, 1.270000000000000018, -7.684658664649639766E-17 ) ) ;
#80 = CARTESIAN_POINT ( 'NONE',  ( 0.2833308201211386934, 1.270000000000000018, 2.486813040953647747 ) ) ;
#81 = CARTESIAN_POINT ( 'NONE',  ( -2.527499999999999858, 0.000000000000000000, -7.684658664649639766E-17 ) ) ;
#82 = AXIS2_PLACEMENT_3D ( 'NONE', #153, #259, #177 ) ;
#83 = CARTESIAN_POINT ( 'NONE',  ( 0.2833308201211386934, 1.270000000000000018, 2.071813040953647711 ) ) ;
#84 = PLANE ( 'NONE',  #114 ) ;
#85 = PRODUCT_DEFINITION_SHAPE ( 'NONE', 'NONE',  #242 ) ;
#86 = ADVANCED_FACE ( 'NONE', ( #96, #175, #287, #263 ), #206, .F. ) ;
#87 = DIRECTION ( 'NONE',  ( -0.000000000000000000, -1.000000000000000000, -0.000000000000000000 ) ) ;
#88 = PRESENTATION_STYLE_ASSIGNMENT (( #11 ) ) ;
#89 = CYLINDRICAL_SURFACE ( 'NONE', #181, 0.4150000000000000910 ) ;
#90 = FACE_OUTER_BOUND ( 'NONE', #209, .T. ) ;
#91 = DIRECTION ( 'NONE',  ( 0.000000000000000000, 0.000000000000000000, -1.000000000000000000 ) ) ;
#92 = VERTEX_POINT ( 'NONE', #234 ) ;
#93 = DIRECTION ( 'NONE',  ( 0.000000000000000000, 0.000000000000000000, 1.000000000000000000 ) ) ;
#94 = EDGE_CURVE ( 'NONE', #243, #92, #32, .T. ) ;
#95 = ORIENTED_EDGE ( 'NONE', *, *, #288, .T. ) ;
#96 = FACE_BOUND ( 'NONE', #212, .T. ) ;
#97 = AXIS2_PLACEMENT_3D ( 'NONE', #316, #152, #257 ) ;
#98 = CIRCLE ( 'NONE', #297, 3.154999999999999361 ) ;
#99 = ORIENTED_EDGE ( 'NONE', *, *, #94, .T. ) ;
#100 = AXIS2_PLACEMENT_3D ( 'NONE', #15, #110, #307 ) ;
#101 = ORIENTED_EDGE ( 'NONE', *, *, #247, .T. ) ;
#102 = CIRCLE ( 'NONE', #278, 0.4150000000000000910 ) ;
#103 = ORIENTED_EDGE ( 'NONE', *, *, #188, .T. ) ;
#104 = ORIENTED_EDGE ( 'NONE', *, *, #38, .F. ) ;
#105 = UNCERTAINTY_MEASURE_WITH_UNIT (LENGTH_MEASURE( 1.000000000000000082E-05 ), #108, 'distance_accuracy_value', 'NONE');
#106 = DIRECTION ( 'NONE',  ( 0.000000000000000000, 0.000000000000000000, -1.000000000000000000 ) ) ;
#107 = STYLED_ITEM ( 'NONE', ( #88 ), #200 ) ;
#108 =( LENGTH_UNIT ( ) NAMED_UNIT ( * ) SI_UNIT ( .CENTI., .METRE. ) );
#109 = PRODUCT_DEFINITION_CONTEXT ( 'detailed design', #197, 'design' ) ;
#110 = DIRECTION ( 'NONE',  ( 0.000000000000000000, -1.000000000000000000, 0.000000000000000000 ) ) ;
#111 = DIRECTION ( 'NONE',  ( 0.000000000000000000, 0.000000000000000000, 1.000000000000000000 ) ) ;
#112 = DIRECTION ( 'NONE',  ( 0.000000000000000000, 0.000000000000000000, -1.000000000000000000 ) ) ;
#113 = CIRCLE ( 'NONE', #173, 0.4150000000000000910 ) ;
#114 = AXIS2_PLACEMENT_3D ( 'NONE', #308, #61, #26 ) ;
#115 =( NAMED_UNIT ( * ) SI_UNIT ( $, .STERADIAN. ) SOLID_ANGLE_UNIT ( ) );
#116 = CARTESIAN_POINT ( 'NONE',  ( 0.2833308201211386934, 1.270000000000000018, 2.486813040953647747 ) ) ;
#117 = SHAPE_DEFINITION_REPRESENTATION ( #85, #318 ) ;
#118 = DIRECTION ( 'NONE',  ( 0.000000000000000000, -1.000000000000000000, 0.000000000000000000 ) ) ;
#119 = CIRCLE ( 'NONE', #304, 0.4150000000000000910 ) ;
#120 = CARTESIAN_POINT ( 'NONE',  ( -2.527499999999999858, 1.270000000000000018, -0.4150000000000002021 ) ) ;
#121 = EDGE_LOOP ( 'NONE', ( #5, #44, #71, #128 ) ) ;
#122 = DIRECTION ( 'NONE',  ( 0.000000000000000000, 0.000000000000000000, 1.000000000000000000 ) ) ;
#123 = AXIS2_PLACEMENT_3D ( 'NONE', #40, #253, #146 ) ;
#124 = APPLICATION_PROTOCOL_DEFINITION ( 'draft international standard', 'automotive_design', 1998, #197 ) ;
#125 = ORIENTED_EDGE ( 'NONE', *, *, #179, .T. ) ;
#126 = EDGE_CURVE ( 'NONE', #73, #319, #277, .T. ) ;
#127 = CIRCLE ( 'NONE', #25, 1.899999999999999911 ) ;
#128 = ORIENTED_EDGE ( 'NONE', *, *, #140, .T. ) ;
#129 = AXIS2_PLACEMENT_3D ( 'NONE', #79, #284, #218 ) ;
#130 = CARTESIAN_POINT ( 'NONE',  ( 0.000000000000000000, 1.270000000000000018, 0.000000000000000000 ) ) ;
#131 = ORIENTED_EDGE ( 'NONE', *, *, #300, .F. ) ;
#132 = ORIENTED_EDGE ( 'NONE', *, *, #196, .T. ) ;
#133 = VERTEX_POINT ( 'NONE', #285 ) ;
#134 = EDGE_CURVE ( 'NONE', #148, #69, #102, .T. ) ;
#135 = DIRECTION ( 'NONE',  ( -0.000000000000000000, -1.000000000000000000, -0.000000000000000000 ) ) ;
#136 = CARTESIAN_POINT ( 'NONE',  ( 0.2833308201211386934, 0.000000000000000000, 2.071813040953647711 ) ) ;
#137 = FACE_BOUND ( 'NONE', #186, .T. ) ;
#138 = FACE_OUTER_BOUND ( 'NONE', #19, .T. ) ;
#139 = CARTESIAN_POINT ( 'NONE',  ( 2.326828918379970872E-16, 1.270000000000000018, 1.899999999999999911 ) ) ;
#140 = EDGE_CURVE ( 'NONE', #323, #42, #119, .T. ) ;
#141 = DIRECTION ( 'NONE',  ( -0.000000000000000000, -1.000000000000000000, -0.000000000000000000 ) ) ;
#142 = DIRECTION ( 'NONE',  ( 0.000000000000000000, 1.000000000000000000, 0.000000000000000000 ) ) ;
#143 = CARTESIAN_POINT ( 'NONE',  ( 0.000000000000000000, 1.270000000000000018, 0.000000000000000000 ) ) ;
#144 = AXIS2_PLACEMENT_3D ( 'NONE', #80, #251, #165 ) ;
#145 = VECTOR ( 'NONE', #329, 100.0000000000000000 ) ;
#146 = DIRECTION ( 'NONE',  ( 1.000000000000000000, 0.000000000000000000, 0.000000000000000000 ) ) ;
#147 = CARTESIAN_POINT ( 'NONE',  ( 0.000000000000000000, 0.000000000000000000, 0.000000000000000000 ) ) ;
#148 = VERTEX_POINT ( 'NONE', #63 ) ;
#149 = DIRECTION ( 'NONE',  ( -0.000000000000000000, -1.000000000000000000, -0.000000000000000000 ) ) ;
#150 = AXIS2_PLACEMENT_3D ( 'NONE', #65, #43, #91 ) ;
#151 = ORIENTED_EDGE ( 'NONE', *, *, #74, .T. ) ;
#152 = DIRECTION ( 'NONE',  ( 0.000000000000000000, 1.000000000000000000, 0.000000000000000000 ) ) ;
#153 = CARTESIAN_POINT ( 'NONE',  ( 0.000000000000000000, 0.000000000000000000, 0.000000000000000000 ) ) ;
#154 = EDGE_CURVE ( 'NONE', #233, #21, #199, .T. ) ;
#155 = ORIENTED_EDGE ( 'NONE', *, *, #314, .F. ) ;
#156 = ORIENTED_EDGE ( 'NONE', *, *, #158, .F. ) ;
#157 = ORIENTED_EDGE ( 'NONE', *, *, #154, .T. ) ;
#158 = EDGE_CURVE ( 'NONE', #148, #92, #172, .T. ) ;
#159 = VERTEX_POINT ( 'NONE', #139 ) ;
#160 = ORIENTED_EDGE ( 'NONE', *, *, #30, .F. ) ;
#161 = AXIS2_PLACEMENT_3D ( 'NONE', #116, #195, #224 ) ;
#162 = ADVANCED_FACE ( 'NONE', ( #56 ), #163, .T. ) ;
#163 = CYLINDRICAL_SURFACE ( 'NONE', #321, 3.154999999999999361 ) ;
#164 = DIRECTION ( 'NONE',  ( -0.000000000000000000, -1.000000000000000000, -0.000000000000000000 ) ) ;
#165 = DIRECTION ( 'NONE',  ( 0.000000000000000000, 0.000000000000000000, -1.000000000000000000 ) ) ;
#166 = CARTESIAN_POINT ( 'NONE',  ( 0.000000000000000000, 1.270000000000000018, 0.000000000000000000 ) ) ;
#167 = PRODUCT_DEFINITION_FORMATION_WITH_SPECIFIED_SOURCE ( 'ANY', '', #10, .NOT_KNOWN. ) ;
#168 = APPLICATION_PROTOCOL_DEFINITION ( 'draft international standard', 'automotive_design', 1998, #269 ) ;
#169 = DIRECTION ( 'NONE',  ( 0.000000000000000000, 0.000000000000000000, 1.000000000000000000 ) ) ;
#170 = CARTESIAN_POINT ( 'NONE',  ( 0.000000000000000000, 1.270000000000000018, 0.000000000000000000 ) ) ;
#171 = DIRECTION ( 'NONE',  ( 0.000000000000000000, 0.000000000000000000, -1.000000000000000000 ) ) ;
#172 = LINE ( 'NONE', #18, #52 ) ;
#173 = AXIS2_PLACEMENT_3D ( 'NONE', #305, #283, #37 ) ;
#174 =( GEOMETRIC_REPRESENTATION_CONTEXT ( 3 ) GLOBAL_UNCERTAINTY_ASSIGNED_CONTEXT ( ( #217 ) ) GLOBAL_UNIT_ASSIGNED_CONTEXT ( ( #55, #246, #115 ) ) REPRESENTATION_CONTEXT ( 'NONE', 'WORKASPACE' ) );
#175 = FACE_BOUND ( 'NONE', #185, .T. ) ;
#176 = ORIENTED_EDGE ( 'NONE', *, *, #17, .T. ) ;
#177 = DIRECTION ( 'NONE',  ( 0.000000000000000000, -0.000000000000000000, 1.000000000000000000 ) ) ;
#178 = CIRCLE ( 'NONE', #241, 1.899999999999999911 ) ;
#179 = EDGE_CURVE ( 'NONE', #133, #294, #226, .T. ) ;
#180 = CARTESIAN_POINT ( 'NONE',  ( -2.527499999999999858, 0.000000000000000000, -7.684658664649639766E-17 ) ) ;
#181 = AXIS2_PLACEMENT_3D ( 'NONE', #59, #303, #112 ) ;
#182 = ORIENTED_EDGE ( 'NONE', *, *, #126, .T. ) ;
#183 = AXIS2_PLACEMENT_3D ( 'NONE', #147, #204, #122 ) ;
#184 = ADVANCED_FACE ( 'NONE', ( #302 ), #282, .F. ) ;
#185 = EDGE_LOOP ( 'NONE', ( #258, #23 ) ) ;
#186 = EDGE_LOOP ( 'NONE', ( #293, #28 ) ) ;
#187 = ORIENTED_EDGE ( 'NONE', *, *, #341, .F. ) ;
#188 = EDGE_CURVE ( 'NONE', #21, #233, #98, .T. ) ;
#189 = MECHANICAL_DESIGN_GEOMETRIC_PRESENTATION_REPRESENTATION (  '', ( #107 ), #272 ) ;
#190 = VECTOR ( 'NONE', #7, 100.0000000000000000 ) ;
#191 = DIRECTION ( 'NONE',  ( -0.000000000000000000, -1.000000000000000000, -0.000000000000000000 ) ) ;
#192 = LINE ( 'NONE', #223, #145 ) ;
#193 = SURFACE_SIDE_STYLE ('',( #78 ) ) ;
#194 = DIRECTION ( 'NONE',  ( -0.000000000000000000, -1.000000000000000000, -0.000000000000000000 ) ) ;
#195 = DIRECTION ( 'NONE',  ( -0.000000000000000000, -1.000000000000000000, -0.000000000000000000 ) ) ;
#196 = EDGE_CURVE ( 'NONE', #319, #73, #1, .T. ) ;
#197 = APPLICATION_CONTEXT ( 'automotive_design' ) ;
#198 = CARTESIAN_POINT ( 'NONE',  ( 0.000000000000000000, 1.270000000000000018, -1.899999999999999911 ) ) ;
#199 = CIRCLE ( 'NONE', #97, 3.154999999999999361 ) ;
#200 = MANIFOLD_SOLID_BREP ( 'Cut-Extrude1', #334 ) ;
#201 = CYLINDRICAL_SURFACE ( 'NONE', #14, 0.4150000000000000910 ) ;
#202 = DIRECTION ( 'NONE',  ( 0.000000000000000000, -1.000000000000000000, 0.000000000000000000 ) ) ;
#203 = EDGE_CURVE ( 'NONE', #92, #243, #267, .T. ) ;
#204 = DIRECTION ( 'NONE',  ( 0.000000000000000000, 1.000000000000000000, 0.000000000000000000 ) ) ;
#205 = ORIENTED_EDGE ( 'NONE', *, *, #247, .F. ) ;
#206 = PLANE ( 'NONE',  #82 ) ;
#207 = EDGE_CURVE ( 'NONE', #42, #323, #113, .T. ) ;
#208 = CARTESIAN_POINT ( 'NONE',  ( 0.000000000000000000, 1.270000000000000018, 0.000000000000000000 ) ) ;
#209 = EDGE_LOOP ( 'NONE', ( #131, #268, #125, #343 ) ) ;
#210 = VECTOR ( 'NONE', #249, 100.0000000000000000 ) ;
#211 = CIRCLE ( 'NONE', #68, 0.4150000000000000910 ) ;
#212 = EDGE_LOOP ( 'NONE', ( #240, #326 ) ) ;
#213 = CARTESIAN_POINT ( 'NONE',  ( 3.863760651309899072E-16, 0.000000000000000000, 3.154999999999999361 ) ) ;
#214 = CIRCLE ( 'NONE', #4, 1.899999999999999911 ) ;
#215 = EDGE_LOOP ( 'NONE', ( #156, #315, #51, #99 ) ) ;
#216 = ORIENTED_EDGE ( 'NONE', *, *, #126, .F. ) ;
#217 = UNCERTAINTY_MEASURE_WITH_UNIT (LENGTH_MEASURE( 1.000000000000000082E-05 ), #55, 'distance_accuracy_value', 'NONE');
#218 = DIRECTION ( 'NONE',  ( 0.000000000000000000, 0.000000000000000000, -1.000000000000000000 ) ) ;
#219 =( NAMED_UNIT ( * ) PLANE_ANGLE_UNIT ( ) SI_UNIT ( $, .RADIAN. ) );
#220 = FACE_OUTER_BOUND ( 'NONE', #264, .T. ) ;
#221 = FACE_BOUND ( 'NONE', #49, .T. ) ;
#222 = EDGE_CURVE ( 'NONE', #159, #133, #127, .T. ) ;
#223 = CARTESIAN_POINT ( 'NONE',  ( 2.326828918379970872E-16, 1.270000000000000018, 1.899999999999999911 ) ) ;
#224 = DIRECTION ( 'NONE',  ( 0.000000000000000000, 0.000000000000000000, -1.000000000000000000 ) ) ;
#225 = CARTESIAN_POINT ( 'NONE',  ( 2.326828918379970872E-16, 0.000000000000000000, 1.899999999999999911 ) ) ;
#226 = LINE ( 'NONE', #198, #210 ) ;
#227 = CIRCLE ( 'NONE', #100, 0.4150000000000000910 ) ;
#228 = ADVANCED_FACE ( 'NONE', ( #36 ), #299, .F. ) ;
#229 = LINE ( 'NONE', #338, #190 ) ;
#230 = DIRECTION ( 'NONE',  ( 0.000000000000000000, 0.000000000000000000, -1.000000000000000000 ) ) ;
#231 = DIRECTION ( 'NONE',  ( 0.000000000000000000, 1.000000000000000000, 0.000000000000000000 ) ) ;
#232 = AXIS2_PLACEMENT_3D ( 'NONE', #180, #118, #290 ) ;
#233 = VERTEX_POINT ( 'NONE', #335 ) ;
#234 = CARTESIAN_POINT ( 'NONE',  ( -2.527499999999999858, 0.000000000000000000, 0.4149999999999999800 ) ) ;
#235 = CARTESIAN_POINT ( 'NONE',  ( 0.000000000000000000, 0.000000000000000000, 0.000000000000000000 ) ) ;
#236 = ORIENTED_EDGE ( 'NONE', *, *, #207, .T. ) ;
#237 = AXIS2_PLACEMENT_3D ( 'NONE', #13, #60, #169 ) ;
#238 = EDGE_LOOP ( 'NONE', ( #31, #322 ) ) ;
#239 = DIRECTION ( 'NONE',  ( 0.000000000000000000, 1.000000000000000000, 0.000000000000000000 ) ) ;
#240 = ORIENTED_EDGE ( 'NONE', *, *, #94, .F. ) ;
#241 = AXIS2_PLACEMENT_3D ( 'NONE', #130, #239, #3 ) ;
#242 = PRODUCT_DEFINITION ( 'UNKNOWN', '', #167, #109 ) ;
#243 = VERTEX_POINT ( 'NONE', #330 ) ;
#244 = ORIENTED_EDGE ( 'NONE', *, *, #134, .F. ) ;
#245 = DIRECTION ( 'NONE',  ( 0.000000000000000000, 0.000000000000000000, -1.000000000000000000 ) ) ;
#246 =( NAMED_UNIT ( * ) PLANE_ANGLE_UNIT ( ) SI_UNIT ( $, .RADIAN. ) );
#247 = EDGE_CURVE ( 'NONE', #73, #233, #332, .T. ) ;
#248 = FACE_OUTER_BOUND ( 'NONE', #271, .T. ) ;
#249 = DIRECTION ( 'NONE',  ( -0.000000000000000000, -1.000000000000000000, -0.000000000000000000 ) ) ;
#250 = DIRECTION ( 'NONE',  ( 0.000000000000000000, 0.000000000000000000, -1.000000000000000000 ) ) ;
#251 = DIRECTION ( 'NONE',  ( -0.000000000000000000, -1.000000000000000000, -0.000000000000000000 ) ) ;
#252 = ADVANCED_FACE ( 'NONE', ( #274, #137, #248, #221 ), #84, .T. ) ;
#253 = DIRECTION ( 'NONE',  ( 0.000000000000000000, 0.000000000000000000, 1.000000000000000000 ) ) ;
#254 = PRESENTATION_LAYER_ASSIGNMENT (  '', '', ( #107 ) ) ;
#255 = DIRECTION ( 'NONE',  ( 0.000000000000000000, 1.000000000000000000, 0.000000000000000000 ) ) ;
#256 = CIRCLE ( 'NONE', #129, 0.4150000000000000910 ) ;
#257 = DIRECTION ( 'NONE',  ( 0.000000000000000000, 0.000000000000000000, 1.000000000000000000 ) ) ;
#258 = ORIENTED_EDGE ( 'NONE', *, *, #140, .F. ) ;
#259 = DIRECTION ( 'NONE',  ( 0.000000000000000000, 1.000000000000000000, 0.000000000000000000 ) ) ;
#260 = VECTOR ( 'NONE', #64, 100.0000000000000000 ) ;
#261 = VERTEX_POINT ( 'NONE', #225 ) ;
#262 = CARTESIAN_POINT ( 'NONE',  ( -2.527499999999999858, 1.270000000000000018, -0.4150000000000002021 ) ) ;
#263 = FACE_BOUND ( 'NONE', #29, .T. ) ;
#264 = EDGE_LOOP ( 'NONE', ( #176, #273, #160, #2 ) ) ;
#265 = EDGE_CURVE ( 'NONE', #347, #270, #211, .T. ) ;
#266 = ORIENTED_EDGE ( 'NONE', *, *, #17, .F. ) ;
#267 = CIRCLE ( 'NONE', #328, 0.4150000000000000910 ) ;
#268 = ORIENTED_EDGE ( 'NONE', *, *, #222, .T. ) ;
#269 = APPLICATION_CONTEXT ( 'automotive_design' ) ;
#270 = VERTEX_POINT ( 'NONE', #62 ) ;
#271 = EDGE_LOOP ( 'NONE', ( #182, #132 ) ) ;
#272 =( GEOMETRIC_REPRESENTATION_CONTEXT ( 3 ) GLOBAL_UNCERTAINTY_ASSIGNED_CONTEXT ( ( #105 ) ) GLOBAL_UNIT_ASSIGNED_CONTEXT ( ( #108, #219, #281 ) ) REPRESENTATION_CONTEXT ( 'NONE', 'WORKASPACE' ) );
#273 = ORIENTED_EDGE ( 'NONE', *, *, #300, .T. ) ;
#274 = FACE_BOUND ( 'NONE', #48, .T. ) ;
#275 = ADVANCED_FACE ( 'NONE', ( #220 ), #309, .F. ) ;
#276 = CARTESIAN_POINT ( 'NONE',  ( 0.2833308201211386934, 1.270000000000000018, 2.486813040953647747 ) ) ;
#277 = CIRCLE ( 'NONE', #58, 3.154999999999999361 ) ;
#278 = AXIS2_PLACEMENT_3D ( 'NONE', #45, #67, #317 ) ;
#279 = CARTESIAN_POINT ( 'NONE',  ( 0.000000000000000000, 0.000000000000000000, 0.000000000000000000 ) ) ;
#280 = CARTESIAN_POINT ( 'NONE',  ( -2.527499999999999858, 1.270000000000000018, -7.684658664649639766E-17 ) ) ;
#281 =( NAMED_UNIT ( * ) SI_UNIT ( $, .STERADIAN. ) SOLID_ANGLE_UNIT ( ) );
#282 = CYLINDRICAL_SURFACE ( 'NONE', #144, 0.4150000000000000910 ) ;
#283 = DIRECTION ( 'NONE',  ( 0.000000000000000000, -1.000000000000000000, 0.000000000000000000 ) ) ;
#284 = DIRECTION ( 'NONE',  ( 0.000000000000000000, -1.000000000000000000, 0.000000000000000000 ) ) ;
#285 = CARTESIAN_POINT ( 'NONE',  ( 0.000000000000000000, 1.270000000000000018, -1.899999999999999911 ) ) ;
#286 = VECTOR ( 'NONE', #87, 100.0000000000000000 ) ;
#287 = FACE_OUTER_BOUND ( 'NONE', #238, .T. ) ;
#288 = EDGE_CURVE ( 'NONE', #69, #148, #256, .T. ) ;
#289 = EDGE_LOOP ( 'NONE', ( #155, #216, #101, #157 ) ) ;
#290 = DIRECTION ( 'NONE',  ( 0.000000000000000000, 0.000000000000000000, -1.000000000000000000 ) ) ;
#291 = DIRECTION ( 'NONE',  ( 0.000000000000000000, 1.000000000000000000, 0.000000000000000000 ) ) ;
#292 = EDGE_CURVE ( 'NONE', #270, #347, #227, .T. ) ;
#293 = ORIENTED_EDGE ( 'NONE', *, *, #292, .T. ) ;
#294 = VERTEX_POINT ( 'NONE', #33 ) ;
#295 = ORIENTED_EDGE ( 'NONE', *, *, #158, .T. ) ;
#296 = ORIENTED_EDGE ( 'NONE', *, *, #265, .F. ) ;
#297 = AXIS2_PLACEMENT_3D ( 'NONE', #279, #142, #9 ) ;
#298 = VECTOR ( 'NONE', #135, 100.0000000000000000 ) ;
#299 = CYLINDRICAL_SURFACE ( 'NONE', #161, 0.4150000000000000910 ) ;
#300 = EDGE_CURVE ( 'NONE', #159, #261, #192, .T. ) ;
#301 = CYLINDRICAL_SURFACE ( 'NONE', #39, 3.154999999999999361 ) ;
#302 = FACE_OUTER_BOUND ( 'NONE', #24, .T. ) ;
#303 = DIRECTION ( 'NONE',  ( -0.000000000000000000, -1.000000000000000000, -0.000000000000000000 ) ) ;
#304 = AXIS2_PLACEMENT_3D ( 'NONE', #339, #202, #312 ) ;
#305 = CARTESIAN_POINT ( 'NONE',  ( 0.2833308201211386934, 0.000000000000000000, 2.486813040953647747 ) ) ;
#306 = ADVANCED_FACE ( 'NONE', ( #138 ), #89, .F. ) ;
#307 = DIRECTION ( 'NONE',  ( 0.000000000000000000, 0.000000000000000000, -1.000000000000000000 ) ) ;
#308 = CARTESIAN_POINT ( 'NONE',  ( 0.000000000000000000, 1.270000000000000018, 0.000000000000000000 ) ) ;
#309 = CYLINDRICAL_SURFACE ( 'NONE', #53, 1.899999999999999911 ) ;
#310 = FILL_AREA_STYLE ('',( #337 ) ) ;
#311 = LINE ( 'NONE', #83, #286 ) ;
#312 = DIRECTION ( 'NONE',  ( 0.000000000000000000, 0.000000000000000000, -1.000000000000000000 ) ) ;
#313 = CYLINDRICAL_SURFACE ( 'NONE', #150, 1.899999999999999911 ) ;
#314 = EDGE_CURVE ( 'NONE', #319, #21, #229, .T. ) ;
#315 = ORIENTED_EDGE ( 'NONE', *, *, #288, .F. ) ;
#316 = CARTESIAN_POINT ( 'NONE',  ( 0.000000000000000000, 0.000000000000000000, 0.000000000000000000 ) ) ;
#317 = DIRECTION ( 'NONE',  ( 0.000000000000000000, 0.000000000000000000, -1.000000000000000000 ) ) ;
#318 = ADVANCED_BREP_SHAPE_REPRESENTATION ( 'uboltattatchmentpart', ( #200, #123 ), #174 ) ;
#319 = VERTEX_POINT ( 'NONE', #333 ) ;
#320 = ADVANCED_FACE ( 'NONE', ( #331 ), #301, .T. ) ;
#321 = AXIS2_PLACEMENT_3D ( 'NONE', #16, #191, #245 ) ;
#322 = ORIENTED_EDGE ( 'NONE', *, *, #188, .F. ) ;
#323 = VERTEX_POINT ( 'NONE', #136 ) ;
#324 = ORIENTED_EDGE ( 'NONE', *, *, #222, .F. ) ;
#325 = ADVANCED_FACE ( 'NONE', ( #12 ), #201, .F. ) ;
#326 = ORIENTED_EDGE ( 'NONE', *, *, #203, .F. ) ;
#327 = EDGE_LOOP ( 'NONE', ( #75, #345, #103, #205 ) ) ;
#328 = AXIS2_PLACEMENT_3D ( 'NONE', #81, #35, #230 ) ;
#329 = DIRECTION ( 'NONE',  ( -0.000000000000000000, -1.000000000000000000, -0.000000000000000000 ) ) ;
#330 = CARTESIAN_POINT ( 'NONE',  ( -2.527499999999999858, 0.000000000000000000, -0.4150000000000002021 ) ) ;
#331 = FACE_OUTER_BOUND ( 'NONE', #289, .T. ) ;
#332 = LINE ( 'NONE', #54, #298 ) ;
#333 = CARTESIAN_POINT ( 'NONE',  ( 3.863760651309899072E-16, 1.270000000000000018, 3.154999999999999361 ) ) ;
#334 = CLOSED_SHELL ( 'NONE', ( #306, #184, #275, #162, #252, #86, #320, #27, #228, #325 ) ) ;
#335 = CARTESIAN_POINT ( 'NONE',  ( 0.000000000000000000, 0.000000000000000000, -3.154999999999999361 ) ) ;
#336 = DIRECTION ( 'NONE',  ( 0.000000000000000000, 0.000000000000000000, -1.000000000000000000 ) ) ;
#337 = FILL_AREA_STYLE_COLOUR ( '', #77 ) ;
#338 = CARTESIAN_POINT ( 'NONE',  ( 3.863760651309899072E-16, 1.270000000000000018, 3.154999999999999361 ) ) ;
#339 = CARTESIAN_POINT ( 'NONE',  ( 0.2833308201211386934, 0.000000000000000000, 2.486813040953647747 ) ) ;
#340 = DIRECTION ( 'NONE',  ( -0.000000000000000000, -1.000000000000000000, -0.000000000000000000 ) ) ;
#341 = EDGE_CURVE ( 'NONE', #270, #323, #311, .T. ) ;
#342 = PRODUCT_CONTEXT ( 'NONE', #269, 'mechanical' ) ;
#343 = ORIENTED_EDGE ( 'NONE', *, *, #74, .F. ) ;
#344 = CARTESIAN_POINT ( 'NONE',  ( 0.2833308201211387489, 0.000000000000000000, 2.901813040953647782 ) ) ;
#345 = ORIENTED_EDGE ( 'NONE', *, *, #314, .T. ) ;
#346 = CARTESIAN_POINT ( 'NONE',  ( 0.000000000000000000, 1.270000000000000018, -3.154999999999999361 ) ) ;
#347 = VERTEX_POINT ( 'NONE', #34 ) ;
ENDSEC;
END-ISO-10303-21;
